<mxfile host="Electron" modified="2024-04-10T06:47:19.799Z" agent="Mozilla/5.0 (Windows NT 10.0; Win64; x64) AppleWebKit/537.36 (KHTML, like Gecko) draw.io/21.2.8 Chrome/112.0.5615.165 Electron/24.2.0 Safari/537.36" etag="c36gJZU1CrmwNUxp-K1b" version="21.2.8" type="device">
  <diagram name="Page-1" id="2XWkQP5S-hDbL94sL5Vg">
    <mxGraphModel dx="2058" dy="1180" grid="1" gridSize="10" guides="1" tooltips="1" connect="1" arrows="1" fold="1" page="1" pageScale="1" pageWidth="3300" pageHeight="4681" background="#999999" math="0" shadow="0">
      <root>
        <mxCell id="0" />
        <mxCell id="1" parent="0" />
        <mxCell id="BMfPGsOhMgCzCpeU4s8g-1" value="" style="shape=image;verticalLabelPosition=bottom;labelBackgroundColor=default;verticalAlign=top;aspect=fixed;imageAspect=0;image=data:image/png,iVBORw0KGgoAAAANSUhEUgAAAz8AAAHbCAYAAADlHyT+AAAAAXNSR0IArs4c6QAAAARnQU1BAACxjwv8YQUAAAAJcEhZcwAADsMAAA7DAcdvqGQAAGrRSURBVHhe7d0PbFV1nv//d4H5Ydv9KaVlhhZoLwiFuj8E2oFhtqFGV2aiDNKMX0iZSeaLk2GizY4YXRM0GtZoBhJXo+ymmmEymk12aODnptVB4+BqgF9XFFtw/C4IopRWWmZoKbrbFrIgv8/nnM+5Pefec25vb2/b257nI7n03HPvuefPvaWf1/38y7p1ydLrAgAAAAAT3CTzEwAAAAAmNMIPAAAAgFAg/AAAAAAIBcIPAAAAgFAg/AAAAAAIBcIPAAAAgFAg/AAAAAAIBcIPAAAAgFAg/AAAAAAIBcIPAAAAgFAg/AAAAAAIBcIPAAAAgFAg/AAAAAAIBcIPAAAAgFAg/AAAAAAIBcIPAAAAgFDIunXJ0utmGRPRtyfJkp9NkmxzN+riN/Kn330jfebuyCqQqvXLpbp8rhQVmlVyRuo2vSUHzT0AAABgpI1o+CmoniLz55s7MfovXpf+w9/Il8evj1IBPBlZMufnk2WWjGYwGGEZEH6qttRK7TJzJ4rwAwAAgNE1ZuEnalRrIAYzAcNPnCwp/fvJMn3UrnuBbNy+QdYVijTv2iPPNnWZ9QAAAMDoGpU+PxffvCqH/9F9uyZ/evMb6dcPTp8kC1ZlWc/DBNbZInsJPgAAABhDYzTgwXXpO/6NfPymXemUnW/9yAjZ080CAAAAgAllVJq96ZqfU8fNSjenP0pQE6xvZ8mcv5kk0+dnRfus6L5C5/5wTbr+Ylb4ypKcWybJgpU6zDi1Stel//Q38llDTB+jWybLkpXq9ZMJPaevyWG1fZyA47x4+BtpPx77/NimdVnqOk2SWe5treMMbpKWo455wSDH3P/BNfn4kN9bm0Kzt5TfB5vV52dmi2x97LC0mnUAAADAaBvToa5zFprCtCpIxxbCc1ZNlpU/UyHBVeDWdJiZ/7MpsiSoqZwqqJeqcHHr3TocuJ+j7s9X61XBf863zSoj9doeFQqqg49z1t2TpfQWsyKWejzHHOv82G3nT5Jbfz5Jcsx9twK1P/vczIoRlvL7EKswT4rNIgAAADAWxqjmJ0sKVk2SWd+zC9Rxj9+iCtyqgK9ray5+8I18eWggHFm1Hrrwrx479y/XpN1T82BqNfSirpnw1LwM7LM/qCbK2T7ZWhFznHYtyDfS9RfvvuarfelzOP2P12Sgt4up+YmGF7XtmwPHqc9Phxst0XXxbjNJXRM9olvsvvwM4RxTfh+87NHeGN0NAAAAY2tUan6m3z1FVv69+zbZCgY6+PSfvhYXjOasdAr/6jFXgVvrO37N9BXKkukL7ec5clTgsIOPLtirArmnydl16TqktlUFdf/gkwJ1LH/6l6vysdrXQPDR7H2dPm3fy46paYpSoUmHFfdx6vOLbpcfc36mb5S+Lt5tnP5T6poE1TQNWervw4ACiay/S6r1MNedPdJmrwQAAADGxJg1e+tXAeW0CiIfx/ah+bYqTOsEox7/MiikqML+RfUje0GWq2lYluSr+1atyB8S1Gh4Qsrw9Tk1Huq4C26ZJKXVk2XJzydbIc8e5luFvALrGTH0cfrX0vR1p36MsYEpZSm/D0rJSnn+1Vqpf3WD7FgzV4o6z0jjy/T3AQAAwNga9aGu//SBXbDPvng9prbEKLBrhPQQ2Ld6aovcN9O0LYbTD6Y/iU746aKbnJX+XB3TzybL/LvNoACevkbp09dt/5x+92QpcNcm6b5Dpqlc/zCCk8cw3odYHep2zl4EAAAAxsyo1/z0HbJrC2T+pLiBB8Ydq3+OCjxWDYnuF3PNqs36k7rpoOc0X0ubaJM4e7CBaAhRwcsKIaevBdfSjKazh+XhTXVSs2mP1O3rkaLCuVJ7/0qJmIcBAACAsTD5OzNn/oNZTrucRXYw6P/sG+m+YFYq/ZOz5Duzs+TGOSozHL0u/2PWW7KyJH9JlnxLDyv9u2/ky/9IcPNsq7b7G93pX73+6evyda+9dmjMa6gX+a//iB+BzitLSv+3PciAHnzg+B/VObapcKf2+z9m3/7nnyU3LZskN+p9fOx/nN8qmWRdn6vnrsufYzrK5CzSzdGyrAliv2WvUuwBCT7742DHrJlz7FevHXvt3VJ+H9z65Ozx/yN/KVkuyxdcllMNp+WseQQAAAAYbWPS50fX/pzT1T/TJ8ns2A76f1EFef3YkGuG1HamVmTWj/yHibZ8O6Z/SoDAQQpiXbwu3Z6BFRym2Vg63aKHxRY5pwdZMM0I7Vv8gASD0kNtm0VfKb8PAAAAQGYaowEPrkv7YTswTF8ZG1Scx1SI+dlkKV2l58OxH7HpYaQny5K/nyyx4wh0/cc3Vo2I1U/l55Nlzi3uvjfqdVR4WKJe89bqoD453gAV26+mwPN6htrXAn2M5m50P3o4a2vAg/SxR3tToSpwdLXk9FvtDtU5uo9bn5/nOqf+PgAAAACZaIzm+dEG5rvp/+CafHzIexh6cs1brXlyAlhz6/jML/PtSSrg2M3f/A0yL03C7b3z6CQ8Rj2M9WdiDentPX/nvIOPw3nduOsy6LnpYKMCnGd+o3iBx62buMWMvpfy+xBVIBu3b5B10iJbH2PENwAAAIydMRvqeqBmQST7e5Piag/6DqmCuAoH505ft2tzHLpwr0KBNY+PX4H7L9/IxyqgnP5AbWfVcDjUfVW4/5OeVyewoK7o7dV+L6r9uFkTmb75jWdoan2Mf3ozZj/W83Q/GRWSzOhsafMX9drqeiSiR5qbdfdkKU0w34913Pr6mPsWfdynzLJLyu8DAAAAkGFGtOYH6WRqjERP4Bo0j1GWFFTb/YL8atPGBjU/AAAAyAxjWPODITGTjvZ/lmhgA/VYuub5SbfCcllfSe8gAAAAjB1qfsaLaH+f63LxzW/ky+PeEJSjwpEewnrWfN0/x9s3aaxF1m+UHWvyzD3HGanb9JYcNPcAAACAkUb4GUecASQS0n13Eg5AMDYi6++SB8vnSlGhWUH4AQAAwCgj/IwzObdMktkrs6yBDdyjvjmjvOk5h4Y03w8AAAAQEoQfAAAAAKHAgAcAAAAAQmHEwk9xccQsAQAAAMDYo+YHAAAAQCgQfgAAAACEAuEHAAAAQCgQfgAAAACEAuEHAAAAQCgQfgAAAACEAuEnrWbKQ+VPyseVT0pj8WKzbqic16iVh3LNKqRFwfrn5O9e/b3cXWlWAAAAIFQIP+mUe4vcnm0vRuaUyVp7ERkhIgvKC9XPTun50l5jKamRn6pApENR7O2n2x+R71dm3nxVdoh7RBaa+wAAAEgO4Sedeo/Le/32Ymv7CXnDXkRGmCN5VvY5Ip+dtddYZs+SPLMYK6+wQio2/1p+uj6TApAJcZ3npNusAQAAQHIIP2l1Xl5oeVqWND0t69o+MeuQEUpMyDl/TrqsFbaCoiLr5xe7fiL/vMl12/a47N/XaT2Wt+beDKplMSEu5jwAAAAwOMJP2JSslEe310r9q7Xy/PoCszIETA1PT0e7fd/IL/JpCqedbZWTe/9Jmq38UyTTS6y1Y69yhcxTP7746JB9HwAAAEnLunXJ0utmOa2KiyPS1tZq7k1EemCCzXKf6eMTq7V9l6xrO2/u+ZkpZTOqZMechRIxr9Ha3SS/bX9XZM6T8kx+t7xyrE5e6LUfS5eqLbVSu8zckR5p3LZbdrubgaWR7ptSs0akedsj8r7eR8kqufv+aplXqAOH0tks+19+Tk767L+g8hH54Y8q7FoOS6d8sa9BPtx7KEGNR0QWbvmVfHdZYbQpW8/R1+WjhnrpXqGPpdCq4XmzyTyonv/97b+WikJ1HJvUcZi1bgu3/F5WL+scOIcYqR2n2k5diwXV6lrEHOvbL9bHbKeu2XbXNUso+DwAAABAzc8YsYNTfelA8NEi+ZXyzNJa+UWOWTHO2bUqHXJRhQark/5TD3gL8XoxLlDowv7vpWazO1BohTJvzQNSs71GfOurrIELfq2CykCY0PKW3SOrn3pEVliDHTTL59Hgo5SsVMejfh790D8wqNf8rg6Ksf2ELCkepxXQVBBT16LC51hrXn1Ovu+uZdLN9ZIKPgr9gAAAABKi5ifNyoprpX5OfsKan7WLdM2OXuqWA6f+TR68YD+vLHexPLCwWm6zAtHI1PxYzd7uL5cKVZ7u2LdHHt47Uj1HTK2KvC71f5hlhYSeoy/J2w2HpMsKEioEVIqcbHJ/RlSgeFUFJKf25EPnuUrJKvn+/SowqOP21t5oznZK5+uy/+X6aG2SVTOjA4q+ox6rf8xVs6Ie+zt9XPsel3/d6zqOEnVsK+6V766xtwve31CP06lp0stq213/JB+q87ePR+1zvdln7HFGmf0GPg4AAIBECD9pNmj4yb1DGpdWqqJuULhxmtONUPgZNU5BvVN6VGG/RxX03/QEnXh2E7Nm2b/NvymcVbvz1D0iMWHF3k4tqHD1zy/69IVRIeenOgDFPG43y7OSSAAdbtRxu4ORkupxRveXKLyo8LRQDiV83djzAAAAQHJo9jbacgpU8FG6D43jYJMEZ3S1wkIVfB4ZNPjosHSz1RepQlY/5T/vzt/pgr/1XJdo0zQVKBIEAr2d/2AHfnToeUnqt6njjgk+KR+n2m6FFbRUaEpUa3M2IPhoZtAGBjsAAABIDeFnlJVl2z1BWvsuWD8nLGd0tX2PxzT9CmBGMRuqghXL7f20HA4MFM5w1j0d7iATkekz9U89SIAzvPXr0qNXdR6xByzwCyEpHmc0DAb1L0rCwu9WqH99RqYDAABAUgg/GBFOQf2LDwer8bEFzrfjc3M3JXOGqg7ej5kUNHawA2e+HHcYOVsvHx1VPwuXy4KAoa1TPc6gobaT54Q1ewAJAAAADB3hZ4xEcmaYpYko9YJ6XpHVKDCNTMiJHQnN1ODEhpGTHzWrfwulonqVvSJA+o9zMD5hDQAAAENC+BllJ7o/Fas+IL9M1lprYuTOkHkBcwelxahMchoQOBLo6uiwfuaVrwwYIlqkoDIS8Fih5M02ix56WGkzCtz5c55mcf5N4ZSmD+UL/XPZCllorfBK+Ti/PGc1qctbc6/v61pKVgW+ZrTZHAAAAFJG+BltvcflvX69sFCeKd8ga3OttZayGRukcWm13Gbuj4SqanuYa61ozWrZGNC8a1icgnpM4EjICR2F91hz5Cx0HZeeEPT7em6czb+WFZVmpdHd0Wn9nLf5Ee82lTVy93Y9749933+wA7/+M4fkc930TSrk5ph9WVI8Tjl7WL6wDrVCVm/Xx+qqOdJDa6vt9DxIP1w/SI3Ssmr5vgpXDnuf6jjMfQAAAARjqOs0S2aen4Hhrn30n5QDfQvltvyRGeq6akut1JpAoCKBNG7bLbvT3YckaP6cwZjtgljzBL14KCZQueb4idXZLPtbimT1GpHmbY/I+9HzdObb0YMdPBffjMw5jqAhqVM6TsUZqtrcjdVz9HW1XdBIcO45guLFzykEAACAWNT8jIXed2XdsQZ5pdvdKKxbDrQ3SE3LHnmpb+Tm6T/Y0CLNdmWJdOzbn/7gowQ2KRtM03Pyz9teki86zQEaOhTs3/YT+Ve/QCGH5E21TfNR1zZq+y92Pa6Cy3Om2V1s36NBmuU1vWZfo6CBD1I6TuVsvfzrpsdlvzpWa1Q5hwppzep4/zUw+Git8v5jj3vPU+nRAU/tk+ADAAAwOGp+AAAAAIQCNT8AAAAAQoHwAwAAACAUCD8AAAAAQoHwAwAAACAUCD8AAAAAQoHwAwAAACAUCD8AAAAAQoHwAwAAACAUCD8AAAAAQoHwAwAAACAUCD8AAAAAQoHwAwAAACAUCD8AAAAAQoHwkxFmykPlT8rHlU9KY/Fis26onNeolYdyzaphSffrAQAAAGOL8JMJcm+R27PtxcicMllrL44AE2jK75AyswYAAAAIC8JPJug9Lu/124ut7SfkDXsRKYiUlMrGLRul/tVaqd9SatYmFqlcKY9uV8/X21i3jfLo+lKJmMeDpLodAAAAxgbhJyOclxdanpYlTU/LurZPzDoMRdUWO4DseOpOWbcsz6wdXGT9RtmxuVwqCs0KS55UrLlTdmxfGRhkUt0OAAAAY4fwEyozZJ5pXjdqSgZqR55fX2BWpl9bwztSt8vc9vWYtYNQx/bgGh2UeqR53x7ZuqlOavRt2zvS3KlWF5bLDr/ao1S3AwAAwJjKunXJ0utmOa2KiyPS1tZq7k0saxc9Kc/kixw49bQ8eMGs1HJnWn1pTvSet+8b9vO75ZVjdfJCr+53s1nuCwghre27ZF2bd3svtY8ZVbJjzkKJmNdo7W6S37a/KzLHvR/7MZmxQRpdz02ou0GWfOrUPDnHOXDcaxf9WH6Rnx+t1dD73frpu3LC3Peja2Rql5k7Kiw0btstu8+auyOl8i6p3zxX5Og7UvPiKbMynnNsHSrAPLy3y6x1lMqjr94pFT7HnOp2AAAAGFvU/KTgdF+39bMke6b106bCwsLNUr90szQWe9ffnKN+9H8qbzuBJGV2IKkv9YaZSH6lPLO0Vn6h9+MjqeCTSM5i2an2+4wr+Gh6v/XjdvCEUvmeFcrOSENcgNFOyV6rBilPZs+219hS3Q4AAABjjfCTghP9dqE3kjPD+mlxj9jmt77vgqkhGejf477VtNuBKpG1i5wao245cGrXwLbHGuRAvwomfiHnwh7XftTz9Lr+JqmJrnPdorU+bvlyX2m13KZrgNz7PHXSfji7Uh5wnW6sgw0tdlMwpWPf/sypCSmZLlZ3naOfy0Frhc0d7lo7Llk/C4tczfVS3Q4AAABjjvCTigsn7BChQk601iOnQBWAT8oBnWHi1qsCsQo/w5J7h/wiXy/YzdAevDDQNO5E7yfyYMsuecWMGJd2/SfliaY6ecG9TxWqnjB5zVsDFuPsYXn2MbtPTHwTsTE0O0+K1I+Ojov2fau5Wq3scPdN+rJHOtSPoqLp9n0t1e0AAAAw5gg/KbkgX+igkV0g8+0VsjZ/oQoJXbJfN4nLXiQ/NBODlqnnaGf7E/XjSYIJUdJ9aKA/z6hQYevkHt/ht53mfxNC5c1SYRaHFFpS3Q4AAACjjvCTkvPyeZ/+uVBWW02+TL+evgvyhtUkLl/mmf4383N0dc1J2T/Mih8nRA27Bgke0cDSdEQareZ5PdL8UfAgCY5UtwMAAMDYIfykyDvogT2EtBVM+rpEj3Fnr18sq3X2UYHotPqBDGKapg3okt1W87zd8myTWRXXxE1JdTsAAACMOcJPik50f2qFHGtwgxllcptatpq29R6X9/rV+oJbpCx3hpToJ0cHOxg+z2AKqXI11wutsxfFqrBZdrNUWSviRYqmWT87O1x9lVLdDgAAAGOO8JOq3gtiDVymwshaq0ma07TNNInTASNdgx0oTtiS/DJZa62JoYJW8hOYFsjNpk/SiBulSU6H7pR8cFT/nCvVvsdVKuutiUzPyAdOjY4l1e0AAAAw1gg/KRsY9GC17tfjatr2RrceBlqtN6Ozvdc9zMEONFOjpPsZPVO+Qda6wkuZnsh0abVV+5TYJ7Lfaq2XL/ctvMPzGnqC1rUzEozalqKq6nKpsMaGFilas1o2WlVhmUEPw22NyrZmgwpmpQPDVZeUqsCmJypVYoa01lLdDgAAAGMr69YlS6+b5bQqLo5IW5tVVzFhrV30pDxjBRylu2FgnpzcO1QYqTSFYj1MtP9oaW5lxbVSPydfWtt3ybq2gLDked0Y/SflQN9CuS3fHgo7cES4RK/hOVZ7QtX79Pw+Aa+XzDFXbamVWmtSUK1HGrftTvtcP959JHD0Hal50TsoQWT9Rtlh1dT46GyRrY8dtmvcYqS6HQAAAMYONT/DYNfw2A50uyYIdZrEaekc7KD3XVl3rEFe6XYPMd0tB9obpKZlj7yUzNDT5jUO9Huf26rC0yunDg4a0oYqYyc5NVr37patu/Qx9pg1Wo8073snYYBJdTsAAACMHWp+AAAAAIQCNT8AAAAAQoHwAwAAACAUCD8AAAAAQoHwAwAAACAUCD8AAAAAQoHwAwAAACAUCD8AAAAAQoHwAwAAACAUCD8AAAAAQoHwAwAAACAUCD8AAAAAQoHwAwAAACAUCD8AAAAAQoHwk7KZ8lD5k/JxZa08lGtWjTrnGJ6UxuLFZl26ZML5AQAAAOlD+BnPcm+R27PtxcicMllrL2YQE6DK75AyswYAAAAYK4Sf8az3uLzXby+2tp+QN+xFpCBSUiobt2yU+ldrpX5LqVmbWKRypTy6XT1fb2PdNsqj60slYh4Pkup2AAAAGB7Cz7h2Xl5oeVqWND0t69o+MeswFFVb7ACy46k7Zd2yPLN2cJH1G2XH5nKpKDQrLHlSseZO2bF9ZWCQSXU7AAAADB/hByNohswzzfKGrGSgduT59QVmZfq1NbwjdbvMbV+PWTsIdWwPrtFBqUea9+2RrZvqpEbftr0jzZ1qdWG57PCrPUp1OwAAAKRF1q1Lll43y2lVXByRtrZWc28i0v1ZNst92d3yyrE6eaF3pqxd9GP5RX5+9Nv71u4m2frpu3LC3I+Tu1gemrNKbndv039Sfntyj7zRa1ZEOfszd2O0tu+SdW3nzT1/ZTM2yI45CyWSIJAMvE6K56f20TjIPqK6G2TJp/41VrpGpnaZuaPCQuO23bL7rLk7UirvkvrNc0WOviM1L54yK+M5x9ahAszDe7vMWkepPPrqnVLhc8ypbgcAAID0oOYnHXIWy04VFJ5xBQMtkl8p9QGd/cuKa+XjpdVyX+w22QvlmaV69LaZZk16rF1UK/WlSYaSWEM8v5T2MW6UyvesUHZGGuICjHZK9lo1SHkye7a9xpbqdgAAAEgXws+w5ct9pdVym64hObXL6n+jbzWnTtoPZ1fKAzPsxagZG6R+Tr5a6JYD7Q1SY7ZxttP1ZZE5P44ZYnqgf4/7VtPebR5PQO1PBxe9P+8xNln7EjkpT5h18bVHQzy/C3uiz1nS1CAH9Lr+Js85Rm8BtT7awYYWuymY0rFvf+bUhJRMF6u7ztHP5aC1wuYOha0dl6yfhUWu5nqpbgcAAIC0IfykQ78OD3XywoWB4HBChYAnTC4pyXbX4syUh+YstJYOnKqTB9s+8TQb09uts4JFvtyen57an7JsuzCt9+c9xnfNvhbK6tiA5jak80uTs4fl2cfsPjHxTcTG0Ow8KVI/Ojou2vet5mq1ssPdN+nLHulQP4qKptv3tVS3AwAAQNoQfoatW17RfXTMPbfTfT61Ms7cPP1N8tIFe1WcCyesGpNIwS2jNj9OcIAZ4vmFTeXNUmEWhxRaUt0OAAAAKSP8jLacArupU3al1Fc+KR/73qrlNuvJ6XGi3645ua10g6x1N6XLXSw7S+1aqLP9sc3dkEg0sDQdkUareV6PNH8UPEiCI9XtAAAAMHyEnzCINlGzB1OIhqylJmR1NwTXQsHLNE0b0CW7reZ5u+XZJrMqrombkup2AAAASBvCz2jr67IHGdDDPPsNAuC+tSQYJnvI7CZq3sHHzYALn3r7HaVddoHMN4vj3tmLYlXYLLtZqqwV8SJF06yfnR2uvkqpbgcAAIC0IfyMtt7j8l6/+pm/KmY0txFkjfYm8sqxp2WdJ2DFD7gwMgrk5qGe6yhNcjp0p+SDo/rnXKn2Pa5SWW9NZHpGPnBqdCypbgcAAIB0IfyMuvPyQrs9mtt9S2tlZ/FiKfMEg5mytniDNFZukLVmzXDZo73ly7w0jR6XvE9kv1XhpM514R0x/Y3Uec4IPp6q6nKpsMaGFilas1o2ltjLmUAPw22NyrZmgwpmpQPDVZeUqsCmJypVYoa01lLdDgAAAOmRdeuSpdfNcloVF0ekrc3byGpimSkPlW+W+/T8N8fq5IVes9pFT2Sq5/Npbd8VN3+O81ig/pPWKGt+r+uWaB9RuXdI49JKz5wysVrV/t5rP+gaznp45xeVcN96CG3/keSqttRKrTUpqNYjjdt2p32uH+8+Ejj6jtS86B2UILJ+o+ywamp8dLbI1scOxzQxtKW6HQAAAIaPmp8xcqKtTpYca5BXuru9hd1+0w+nZfDgk7Te4/JbtZ9EItkL5b7SzbIz0Xw/qeh9V9ap8zygzstNh61XTh30DT5axk5yarTu3S1bd+lj7DFrtB5p3vdOwgCT6nYAAAAYPmp+JjxTgyNNKlAFDaAwU9Yu2mz1C0pYiwMAAACMY9T8THRmUtXWruMJBjY4z4SlAAAAmPAIPyERmfNj2TljppSZ+46y3MXy0CKn/9FJ+S21PgAAAJigaPYWAmsXPWk1aUsoyQEWAAAAgPGK8BMSZTPukAfmLJKS7HzPyGvOKG9vXzg/CvP9AAAAAGOH8AMAAAAgFOjzAwAAACAUCD8AAAAAQoHwAwAAACAUCD8AAAAAQoHwAwAAACAUCD8AAAAAQoHwAwAAACAUCD8AAAAAQoFJTseL3DukcWmlRMzdqP4mqWl5V06YuxivpsjGDXmybto1aXztouzuNqsBAACQNtT8YALQwWGG1P9S3TbkDgTEBTfa69Tt0QVm3bg00c8PAABgdBB+xoved2Vd09OyJHprkAPmIbhcuirx9Y3X5MuLZnG8m+jnBwAAMIIIPwAAAABCgfCDkVWyUh7dXiv1r9bK8+sLzMp0uyrnLplFt4vXpMMsjm8T/fwAAABGB+EnLWZK2YwN0lheKx9XPmlutdK4aLGUmWf4KZtxh+wsd56f3DbDkcr+yor1OdXKQ7lmRe5ieWiR2i76Gk8mfI2q6nKpKLSXi9aslo0l9vJI6bh0zSy5qfAQMIBAZMV0qf/ldNmYb1bkT5WNP5guz5u+NPr2/A+mxg80ofk9d8ONUuW8lq8pEllwo3qe+/Vz1TYBASfGUM8PAAAAAwg/w6XCwM7yzVJfulAi2e5Sb75E8qul3h0combKQyqE1JdWym3ZZpUl0TbDkZ79WUFoabXcl6+2M+s0vTzWo821mVDQ2XPV+mnpviqd+qd6rM1akZgVhO69UdZFJkuRWafp5dh+NoHPnTZVau9VgWbFFLPGzR7RbcftU9XzzCqlKJKjtpku1a51sdJxfgAAAGFH+BkWFXxUGLACRf9JeeXULteABLvkifaTqtCcL/Ny7Gc7yop/LPdZIaRbDri3OdYgr/Tr9fly39INslYvpsHw96fOYc4GqZ+jwp06zyeOec+zpv0T87x4BxtapNkqoYt07Nsvu8/ay+nW6g4FUdfkyyRqU0Qmy+yKG2XH0skqSFyRutd6pOY3F8ytR7Y2XzHPMxaY56rXbz72tWyNPveCbH3vitUUrWjpjQO1SUbVD/RQ1npJbffewD62vva1NF9SISpB+Bne+QEAAEAj/AxDWfEquU0vWHPt7JEXLpy31tvOyxtte2SdCgoPXjCrtNw7ZIcOESqIvHKsTj3m2qb3E3mhZZcJJAvlF8UzrdXDkqb93Za/UFrbVehR5/lGr/c8T/SaRT9nD8uzj9VJzaY6eXhvl1k5UgJGPfMdIc2rIjJVOo6pQLLnaznY7Q4aaltPk7IpsnHZVGup+b2L8uyHVzyv3frZ1/KwCkA6UC2/2VX7k58r1VZ1mT2Pz7OfDeyjtfuKPLunRxoHDTKpnx8AAAAIP8MwU35YYELFyQSTjHqCgpJTYDcZ6z4kL/iGhvPyQvtJaylScMvw+/+ka3/dDbKuLeZcMokKHTW/iZ0c9Krs3nNBav4YU3Pjp1WFlg/9aldi5E+V5bqG5lKf7P3MXhXnsyvSrH4UqUAVbR443TSPa+1NbQLT4Z4fAAAACD+pmyHzrKZkXfJ5opqPGGXZ9ohnrX3u6qAYfV32N/nqufOtFalL1/4Sbj8B+A8k4MMJMdNyZIdroAPv7UapsJ48IJJn1wIlvR8AAACkHeEHAAAAQCgQfoatQG5OYWS2SM4Ms+TDaarW3yWnrRXDN9r7m7CcuXVadTO0gYEOfG97euP64hRN0wMlAAAAYCwQflL2iey3+l/ky30L7wjuK5M70/PYie5P7QJx/qqA4aVnykNzFlpLrV3HBx9CepCmcWnf31CNyiSno6j7ihzRAxNEcuNGc0uk9XN7FDiJTJUqa02M/MkyO8FobwAAABg+ws8wvNHeZPrKVEp9+QZ5aIZ7tDQz8enSzVK/aLFZp/S+K791QtPSWtnp3kZPIFq+2QxLfVJ+m3CAgQvyRXSUNtcko+o11rpDTtr2l5rRnuR05F2V3Uft0dzW3TtdHl0xVSKeEDRFqlbcKM//8kZvyHFCk0yV2piJUK1JT++N7ycEAACA9Mq6dcnS62Y5rYqLI9LWFtvoZwLKvUMFnMqBUb3i2ENMe0da05OOOqHDj9828fSko9bcO7G6G2TJp+65d1Lfn7MPPcx1KqO9VW2pldpl5o70SOO23SM2108q9GSles4ePcx1UqO9Gc52gS5dkcZ//9o7Olt+rgo5OZ5JUaPU85svTZWKiD0UdkojwgEAACChyd+ZOfMfzHJa3XTTNPnqqxDMwPg/Z6S+/ZScy/ormfd/Fci0b5n1KlC0dv9R7j+6T/7wP2ZV1H/L4c6DcuDyFJmRUyyRpLaJ1/XVETmQNVO+e5Par1lnTbZ6/oQc7vtvs0JLfX8zblou/+umHLn0dYvUf+V+zeScPT9Z5i4qlKL/W09y+oY89x995pHMMG1Wttw5c5L81/nL8va5b8zawV061y//b+s1+VbOFLlx2iRRp2e7dE2aP/1v2fnHPvn/rJo5l/7/kbfNNovUNjY9Uar9/OP5N6hjETl5ol/+T+y2AAAAGDZqfgAAAACEAn1+AAAAAIQC4QcAAABAKBB+AAAAAIQC4QcAAABAKBB+AAAAAIQC4QcAAABAKBB+AAAAAIQC4QcAAABAKBB+AAAAAIQC4QcAAABAKBB+AAAAAIQC4QcAAABAKBB+AAAAAIQC4QcAAABAKBB+AAAAAIQC4QcAAABAKBB+AAAAAIQC4QcAAABAKBB+AAAAAIQC4QcAAABAKBB+AAAAAIQC4QcAAABAKBB+AAAAAIQC4QcAAABAKBB+AAAAAIQC4QcAAABAKBB+AAAAAIQC4QcAAABAKBB+AAAAAIQC4QcAAABAKBB+AAAAAIQC4QcAAABAKBB+AAAAAIQC4QcAAABAKBB+AAAAAIQC4QcAAABAKBB+AAAAAIQC4QcAAABAKBB+AAAAAIQC4QcAAABAKBB+AAAAAIQC4QcAAABAKBB+AAAAAIQC4QcAAABAKGTdumTpdbOcVsXFEWlrazX3gImsQKrWL5fq8rlSVGhWyRmp2/SWHDT3AAAAMPao+UnVLZNl5d9PsW6lt5h1HllSah5fWZ1l1oXQtyfJEnMdlqyamNehassGqV3jDj4AAADIRISfNJhe6lOov2WSTDeLYZazMEuyzXL2gizJMcsTR4HMmmkvNe/aIzWb6syNWh8AAIBMQ/hJh/mTVBHYq8AvEIVOluSrwCMXv5FzH1xXKVHd/7Z5aKLpbJG9TV3mDgAAADIR4WeYLp7WXaayZLqn6Zu6P1/9UI9dtFeE07fVdZgu0v/ZdWk/eV369XVZSCgEAADA2Jj8nZkz/8Esp9VNN02Tr766ZO5NQDMmyWxdq6EK9v81WxXqs67Ll5+ax26ZLAvUYxfVY6Iey77oeswl55ZJMneteu7fqtf6G32za0b+Sz33f8xzonTfmQcmy9xFKnAdvR7/uAoWc34+RW752yzJUqHr616zOipLClapfd2pXiN2fyqh/U/c811UiJmzWm33I3Wztpsk+Yuy5Nq569KXaLsSdX7qOvzXn76R7lb1mVDb3ZgTdPy2HHWMFRsmDZyD376/ra657zVK8TgDtvu/roh8fcE8J1CfTP9/lsvyv+qUd/79S5nAn3gAAIBxj5qfYbsu/bp6x9X0LSdf/6vWd0u0v4uXHVRuvXuSVTMyQAWl+ZPl1r+fLHPS2jwsS0p/Plnmf0+9vt/+fjZZSgMGI9BhZKV6fNb8gb47Wvb0LJn/s8SDGNhN/67LxeP6nvp5Wv0YQtO3wH2rW5+9GJXacar3oTp4u1l3q+viO5iFj8I8KTaLAAAAyEyEnzTo1jU8qiBtN31z+rlcl+6ALiA5qybJLCuEqEDw5jU5/I9X7du/XJNzVjs5VfBWBfLYfkSp0vuzQpY6ptP/YvZl3a7Jn97U4c1b8I+6RQUjFZis4/xAPTe63VV7O/VI9vcmBQQ1p+nfN+Jchq5T5joN2vRNHc/fmH1bx+y6RvqY/0O/jkuqx3mLeh9U6On32cdp3UdJma4CULreBwAAAIwtws8wZeeL9B36xurbY436Zvq5XDz8TVzthOXbk2SBKaifUwXuU8ddBfm/XJf237kCUJqHhu7/TAWRv5g7luvSd/yafPy7q/LxoZhAofY/Z6W9fx3QTqnH3edjbaeCRWCYMaPdXbQCj3Hcvk7JjPo2XYcSFWQOq+vRpa7LAHUcnnMYxnGqx/6kwuDHPvvoOqQCkK6pUrIDa6oKJLL+LqlephY7e6TNXgkAAIAMRfhJi4EmXQXW0M7qvm7qVeBTo+KsO/2NtHsK8Q4VgA7bBfF0DQ3dZw02YNd+6OZtOck0OzMhTo/U9qXVbM1HgjDjbfLmGLhOgzZ9O61CS1wg8zHM44wGKfU6BSqwlVZPliU/t+dwmq9rrlRoyo6t+ilZKc+/Wiv1r26QHXp+n84z0vjyYWFKXwAAgMxG+EkTq0nX9ElWvxp3U69Ydn8gsfoDBeqyw4oOCekIP/KXb+Tjf1EB4KIKCt/TfXzM5KuqkB8YhpyQps7pVjNJafxtcsBcRmo/JjjMj9nGCRSDNX1LeH3chnWc6v3Qgefn6jk/myzzdR8s3fdHXfeh6FC3c/YiAAAAMhjhJ11M7YLmaeqVKVQAOvW7q1a/It2f5eJFFbBUId8JQ0uq0xS0NNPkLZGMmPBU9xVyBp1Q10P3F9J9f/5k+v84zd7inD0sD1sTme6Run09UlQ4V2rvXykR8zAAAAAyE0Ndp8oZ6loVmp1hrLMmZ0l2znX5yx9NvxOf53yrZJJ8Z3aWfOuy//DXFjNEtLWdMyx0bpbMXKK2678ufw4Y6vqmZZPkxmyR//rYb6hrQ63va7su3eo1/vwf38iXp69Lzhy13Sx1m6zWOR1XsrIkX+/vtO53o56nnxt0izmegsrJKlDYfZqO7499/nXJWqT2pQLHVZ8huZ3rc/Wc61gSSfk4s6T0f0+ymiiee/MbOf7Hb6Rb7U8Pie0M+52jjlMHI91Xqtt3yOs+OXv8/8hfSpbL8gWX5VTDaTlrHgEAAEDmoeYnjXQn+Y9VATzRPP9O/xs9NHbQKGlOB349OWi08/5fEjeFGxhBLl7OLQlqWdTrnnL6GJkmeRa1/qKuygo8ziCmyZsKbt0BfZqio+MNOupbElI+TkMfp3vQiSjTnA4AAAATBuFntP3lGzlnNaeyh7MuVcEkSk+2+fPJ0WGwz8V0+LfmE1LbzXc3UdPbVDtDPfvQo8vdrR7/+8l20zb1fDd9v/RuE7Y8/WycgRfMccb1DbInTV2iXtczHoBp8uYJbjGiAzCkpelbisfpmK6uj97G3NXPz7nFHvRgltU/CQAAABNF1q1Llvp97T1sxcURaWubwONfqQLySh0adHOrhoBLGPgcd8jxYzcZixsNznk9H3pY6HP5k2X+/Phtdaf+2StN35YgF7+RP/0ufnhuPXloYLDSLqr9/WFgfwXV9qAGF9+8KqeCRl9T519qDULgc6xmf/p8khrtzRjqcWoJt1HPP/2ZWANYJD6XAtm4fYOskxbZ+hgjvgEAAGQyan7GhJ7PR0/AqUdgM6ss16VfBaU//aNP8NH0vDTWpKTmvqYL6XquGj2/Tbd/WOg7bg92YO/P+xw9wee5N9Xr+gQfre+QCm4qoJw7bZrdOdR21oSiv3MfqzPKm3osMCxo6nFT+5WWpm/K0I7Tprfxu576eljzCyU74hwAAADGBWp+gGGh5gcAAGC8oOYHSIfCcllf6durCAAAABmCmh9gmCLrN8qONXnmnuOM1G16Sw6aewAAABh71PwAw9S6d7ds3XdGOjrNCgAAAGQkan4AAAAAhAI1PwAAAABCgfADAAAAIBQIPynSzfoAAAAAjB+EHwAAAAChQPgBAAAAEAqEHwAAAAChQPgBAAAAEAqEHwAAAAChQPgBAAAAEAqEHwzBTHmo/En5uPJJaSxebNYNlfMatfJQrlmFtChY/5z83au/l7srzQoAQ8bvEQBMbFm3Lll63SynlZ4Hp62t1dybeCb6+fnKvUMal1aKPcPRSXmiaY+8YS0PhQ4/m+W+7G555VidvNBrVmOYIvL97b+WisJOad72iLx/1qwuqZGfPnWP5Jm7bj2dzfLFH16T95sy63OsC581azpk/6bn1KcssYVbfi+rl6mFztel/rF66bJXD6h8RP5uc4VaaE7q9Sas6HWI+XyMW6vk7lcfkHnmXqCjL8k/v3jI3ElGwO8RAGDCoOYHyes9Lu/124ut7SdSCD4YOXMkr1D96Dwin7kLbLNn+QYfLa+wQio2/1p+uj6TJuyNyIJydSKd56TbrAkWkekzzWLhLMk3iwNUQfZHusCvJPV6E5XrOkih5M02i+NZ5YrBg4/S09FulpIV8HsEAJgwCD8YgvPyQsvTsqTpaVnX9olZh4xQYkLO+XOe2o+CoiLr5xe7fiL/vMl12/a47N/XaT2Wt+ZeWWgtZQJT+Iw5D3/2c3s67fOIVbD+V9Y3+D364aReb4KqvNeuydj1uvSou3lFmRR2U9T0nOfzXG8+y7Gf83/dO8RazYDfIwDAxEH4wcRSslIe3V4r9a/WyvPrC8zKEDA1PLHfdOcXWV9jS8+X9v2os61ycu8/SbNVZiyS6SXW2rFnvtH/4qMkmiqZgmpPyxFVqI89h1WyYk2h9Bzt0JUdKdQATBSm1kfXZDSds8LPRBT4OR+qgN8jAMDEQZ+fFE38Pj9O3xxzN0Zr+y5Z13be3PMzU8pmVMmOOQslYl6jtbtJftv+rsicJ+WZ/JHp81O1pVZqdR8QS480btstu0eo+YrdN0UG+gaUrJK776+WeYW6IKZ0Nsv+l5+Tkz77L6h8RH6oCqVWLYelU77Y1yAf7j2U4BvniCzc8iv57rJC+9tppefo6/JRQ710r9DHUmh98/1mk3lQF3yt/gvB/V3sPjPB/RtSO061nboWC6rVtYg51rdfjO2Xo67Zdtc1SyjmPEw/li/2vS55a+6RHte5R/sN7RJZrZ/juS5Gibqe1d7rqd+z5qB+UE7/qcB+JImvd0Fljaz40XLXuarC+tEj1vvn9xlxS/V9iF4j6/xNP5lB+sFk0uf65Gx9/EWD9L9x+v8Ef869hvp7BACYSKj5wQiwg1N96UDw0SL5lfLM0lr5RY5ZMc7Z3zZ3yEVVKLNGiHpKFcDchXi9GFdg04X930uNKpAOFBC1Qpm35gGp2V4jvvVVuuD96q9VUHEV1JW8ZffI6qcekRW6n4wq/H3uLrCVrFTHo34e/dC/QKhe87vWYAF+/RtSPE6rYKkKkOpaVPgca82rz8n33TU0uvYmqeCjxPTbsZv0qQDxoV2jMdCcy9T67HtN5Lv2YAee66LoQvpPn4q/npKoH9SgtQJOfxGf/kVqfzWb74kJeWrf1vv3nNxdGdQULdX3QVPbqu30YBAfWuffbjcBnDkrwTaZ9LlW18V6/+xjCeQ0VQv6nLul8nsEAJhQqPlJUShHe1PKimulfk5+wpqftYt0zY5e6pYDp/5NHrxgP68sd7E8sLBabrMC0QiN9qabvd1fLhWqDNOxb488vDfh9+LDYL7ll9el/g+zrEJfz9GX5O2GQ9JlFdRUCKgUOempQVAFROsbavNt+IfOc5WSVfL9+1VgUMcd/62zs52iCrL7Xx6oKbC+adcFTn0ndsQz861/z77HvX0fdI3Hinvlu2vs7YL3N9TjdGo+9LLadtc/qUJ3qzketc/1Zp9BI7M5+w183M1dy/KaTFfL81rs87RrswbWW++Rz3XRrPfsRadWIqIK+/dKjTpGffyxtQ12jUiCWoHAmiHnWO1r8mb0M6H2V3mvef/8at9SfR9s8cebuGbKNg4+17GCPudx0rQ/AMC4Rs0P0iv3DvmFCT463DjBRzvR+4k82LJLXjEjxo2Is4fl2cfqpGZT3QgGH818yy/LVaGpSBXsVMFLF6KdQp+0xhQQdRMzXfBSBU9VyH1TNwOKPlc5e0jef9m/Q7q9naIL1apQ5m5u1NX0nPzrrma7L0fAYAd5a35tzVsSvekaDyv46MLq43EF51SP0x5gQC3owuMmtW00+Gi6j5E61m0vWYVO33dmSJ3N42tZ8ormWAFE12bpWp+TvoMnqAKwKuRqujBuvWfWPU0drzpGu/N8ocxb4T2/QfuVDFYz1HnECoMD1P70+7fpcetaxzbrSvV9sNm1X95ajFa5mKilqiWzPteWQT4Pzue8pyNR8En99wgAMLEQfpBeOQViFXG6D03sOXycgnphofTssgv6ia2Sm62+SBWy+ilXEPGEEp/5eKJN01Sg8NQmePkVuu3Cuh8del6SequwGnvcKR6nq7C9P9G35qow7C50epjwMLTBDg6rfQ0U6hdW62Nrlo/0eTnPcV2XgvXVVgFY1xL41t4oXR/qARRMmIoyw2onGAJ5odVEy68Qbo6v8B754ZZVUhA3uIQKFHGvmer7YBs4Tx0CYyUY4CLDPtda4s+DGRrdE/J8DOP3CAAwsRB+kFZl2XbL/ta+C9bPCcv5lj9BIdojyXlJYhWsWG7vxyrk+/P/5tuZA0eFEWfo3232N/BWDUTsN/SOFI8zWmhOpt9FADs8JDliV7SWxT7n7o5OkZnVrlof17VzXRen9uaLDwcr1Mdw+k8F1go419v/+E+++LjsP9opecsekBorJDwnd69XQcg8HifV98EyEEStEOhiXSfd1yhorp+M+1wP9nlI0M/KJfXfIwDAREP4AVLgFNSTLUQ7BSvd1Mo9D4nfzd1vYfDCetA336ZQ6A4jZ+vlo6PqZ+FyWRDwzX+qxzlok69BOeFhkM7tRmzBuKtDD2mtCvWdr8vb5rjim6kluQ+/cxn0/JxCeFDNUKsKQI+Y+ZV08yozEIAVguKbraX8PijR5l26NiamFkb3AUok8z7XSQ52MEhTtdR/jwAAEw3hByMikjPDLE1EQyuou/n3zxiOgG++zTfysYX1kx/pfhSFUlG9yl4RIP3HORifsBbIp2D85Tn54qgeptppcmfeowTN1PxF7HlxFHcNgFPID6oVKHBqQAbrL2LNr6T7+ahAsO0l+aJTh6BfeUfAcxny++A07xqE/+uOg891rGGHbkeS+wMAjHuEH6TVie5PxSoe5pfJWmtNjNwZMi9g7qC0GJVJTodeULJqJpS88pWBTZ0KKiMBjwU1U9LDSptv+WMK3YGF9aYP5Qv9c9kKWWit8Er5OFX4sPrJrLnX93UtJQmaeTnf4CfF5/qfrZc3X3xO3o9+a2+e47kuTt+gCrm50loRxz1ogz08tC2+FmmANaqaGUQhvhC+Su7W/XzMPY+zh+TNP9hhNPb9TfV9sPs8KbpTf0zNi3Uzgwh4+zM5Mv9zHWtoNVXD3x8AYPwj/CC9eo/Le9ZobgvlmfINsjbXWmspm7FBGpdWy23m/kioqraHudaK1qyWjUEdu4cjyaY2Hk7oKLzHmvNkoeu49ISg39dz42z+tayIKZTbfTRE5m1+xLtNZY3cvV3PV2Lfjy10BxfWD8nnuulbUABI8Tj1KHtfWIdaIau362N11QToobXVdnq+mB/6zZ/jtqxavu+a88bepzoOc99irn+i/hvR5/jWfOnrGTO3jnNuVrOwTmn2HZHOrjGLFuTVNtbcNmqbL47a71Ns2LQGHtD9fLbb+/OEAL29qWWKk8r7EK31aZb9QZ36TUj1netnHHyuvZKvqUrP/gAAEwHz/KSIeX6C5/nRw103Lq1URRMf/SflQN9CuS1/ZOb5qdpSK7XRZj890rhtt+weYhOeQSU9r0gM1/wyfrxzzjhcc5PE0jPttxTJavds/JZB5nNxjkOPfOU3MltKx6mowrc1z425G0vPov/2i0EjwTnHbO7G0H1Koh3wzfF51sVINCePPQ+QuRPHb74dJfCa2M//bIXeX+z7YHOOJZC6nnoEsuG+D855Jf5cms+T33tv9pf5n2tzN4jv5zqV/QEAJiJqfpB+ve/KumMN8kq3u/FMtxxob5Calj3yUt/Itao/2NAizfaXvNKxb3/6g48yWP+PQE3PmX4e5gANHQr2b4udc8ZxSN5U2zSbmgWL2l7Pv1L/2HOmeVLsN9+DNF9qes2+RkEDH6R0nMrZenvOGnWsVu2CQxUum635YoKCj9Yq7z/2uPc8lR5dMFX7dAcY+/r7N0FzJGqmdvLFn0i9ntPFvSt9TfXw35sCCr/qmujzGuB9vr0//xqIrr16oAP7PXRflx7nfQy6nkN5H1QAsQKda8AHf+32eRfOEms6Lpdx87kejG/NVSr7AwBMRNT8pCisNT8AAADAeEXNDwAAAIBQIPwAAAAACAXCDwAAAIBQIPwAAAAACAXCDwAAAIBQIPwAAAAACAXCDwAAAIBQIPwAAAAACAXCDwAAAIBQIPwAAAAACAXCDwAAAIBQIPwAAAAACAXCDwAAAIBQyLp1ydLrZjmtiosj0tbWau5NPBP9/MaPmfJQ+Wa5L7tbXjlWJy/0mtXwVTbjDnlgziK5LTvfrBFp7T8p77UflBcunDdrYjnXWD23vUHWtX1i1rvk3iGNSyslYu5G9TdJTcu7csLcjZPqdgAAACmg5gcIixkbpL600hN8tEj2Qrkvf4a55yP3FrldBR8tMqdM1tqLgK/I+o1S/+pdUmXuAwCQSQg/QCgslp2lC60lXXtT0/S0LHFux3bJE+0XrMd89R6X9/rtxdb2E/KGvejV+66sc79mU4McMA8llOp2yFAF8v3yPJHOHmkzawAAyCSEHyAMcmdIif7Z3yRb2z7xNifrPS9vqFuw8/JCix1OfJu8AVHTZXah+nH+otAoGACQiQg/AMa/kpXy6PZaqX+1Vp5fX2BWYtRV3iwV6kfzR6fs+wAAZBgGPEhRqAY8yF0sD81ZJbfn50c7pgd3kjed48XpsD5T1i76sfzCvW13k2z9NFFn9plSNqNKdswpkEi0f0q32u6Q2i6m1iJuwIOh788eBED3hTErAvc1oKxYFbTnyMAgC37XqLvB93jXFlfJLwoWqnMzq5z9tavnpnHAhrLiDeoaqv2Y+4HUcS5Rx2kbGNzAT2v7LlnXlqiWyLFYdlZWy21DHrggte2qttRK7TJzR3qkcdtu2X3W3E2bAtm4fYOsO/+O1Lx4SiKVK2X9j8qlQtd0KB2dZ6Th5bfkYOB+C9RxrpbqZXlSZNZ0HG2RhobDcnD2XVK/eZrvces+NDvWyMBjJaXy6P0Var959hPUfusC9hupvEse/NFcKTLHqK9N875m2bv3lE/NjPf8rONdv1yq16jt7Seo431HdqrHBrZVx7LddSwJqePcpI7T3AMAYCxQ84MEVEF4Ua18vLRa7nMV6jWrk3zpZtkZ1E8+u0Dmq0CwUxWkn4ndNr9S6svvkDJz38NsU1+qw4G7Y756jfxqqa+slYdyzapYOUPdny7oP2kGATCrLEnsy0UHId9rpG7ewrs5Ph1I/Pa3tFZ2Fs8069JBhUezhDQomS/LVYjokOmycYsKJJsHgo9WVDhXap/aKBut9oUxSlbK869uUAFtIPhoRcvKrW0e/e5cde+SnPMJMMVFOljYj1mDCTx1pzds6GOI206Hklp1jO7go+VJxZo7Zcf2lfGfDef8Oi4OHK8r+GhFy+6UB901ayXTpTCp4KPQDwgAkAGo+UlRKGp+ZmyQj1UI0bU8vz150NUvRNde/FgV4nU4OSlPNO1xdYKPrTnolldO/Vu0hqjMGnHM7nh/4NTT8qCnn7351l8vqn2+4qlZMjUmKjic9WyX+v7s2ht9Dt3qsX9Tj5l96VqchSrMWK8Ze342Z9sD3Sfltnz1+up4n4i5RmW55z01OdH9Wc9Vrxl9zKnpUq/TlWzNyhA5Q0qnOIS0c+yZWvNjNXu73w4jHfv2yMN7u8wDaVSpa2d0SNF6pHnXftnb1GXXgli1MTqUqOWjTs2JQz32qnpML3a2SN3Lh6O1NFbNjA4o+o56bOtjh2NqZExtjKjH/pBnhRmr9qXhlLRar1EgVZUiB9VxDHD2Z2p5PnSeq6jj3KiOc506zuZddfJsk1mvmfPrUCFFVKApsmqUjqhj1a+ta610eFOLcefnMPv1PQ8AADIDNT8IdmGP1Bx7Wta16IK6u8B7Xt5oq5MnuvVygdwcVDuiC/lNdZ6mcSfUa9rbqXJYtreWo6x4lQk+uuC7J6ZJnd7nHll3bFdMYHIZyv5UGNhhgo9uuhYNPlrvJ/JCyy55xRrhbKH8IkFtjA4+OhAs8blGQU3YWrt0SDJ3LOq56jjXtegBBdyvgaSdPSzPPlYnNZvqRib4KJGiafaCLtxv2q2Cgwk+2tlT8uzLLdKhl2dO99SqVG0xwUeHBhUK3M3TWpvekod3nbHv+A4SYAYQkLkqJE1TgUUFO93sLPoaXTHBx9mfCi7b1DHq5m2u/enj3G2Os7DI2zfKOb8iXZOjAmTNY7opnfPaaj8N5vyC6Fog/ZPBDgAAGYzwg4SiBfjcmbJ2xh2yc1GtNJbXyseVT8ozVqu0fJmXYz0jhgoVunbD3HM73WfSiMdM+WGBCSMnE3zjHzgq2RD3l2OahHUfCpgY9by80H7SWooU3OLfRE/r1pN+JhdYTnR/ahUKI3N+LDuLF0tZEk3qkDns5mc90vhyQK3G2YvSaRajSlZKta4t0YHJt7ZkgO8gAU6gUIGkc5cduBIrle9ZfZ90E7xaawCIuNtT5Z6mbA77/HSNUOKaM6tZnJ/ZdpM+BjsAAGQywg8S0oMB7Cx/Uj5eulme0X1jdL+WmEky02OGzLOamXXJ5wE1JulUlm1/693al2B+mz7zzb7uv2StiJdw+1h6TptjTXKgP19um6P7+KjrqkLkxypMEoYyXYHMsioA/fvlBImssJu0dbScDqwNsWtceuTLL+37HiZQ6KZ8niZqQcxoa0PnnN8Z+SAgYDnn0tnh/3iV1W8p4DwAAMgQhB8Es/rLmMEA+k/KgfYGeeLYLqlRNz3ni9OcDEOgAtCDes4ca2JRdU37u6VVhUknDDUuUiHIPBWZxDQ/O/p58GhlPs2+nNqiIx8G1aSYSUEDQpUTKIK393Karun+PLoJYKKbt3bHnF+CQQmcc/EPN6mFQwAARhvhBwEWy05roAA9gIDdp+XBtk+sfi0nApuepUOCPkQjIJITNFyd4jSN6++S09aKNFLXUPdherClTtapILnkWIMKQup48qtlR1pHfENamBqVwCZfSlW13ZxsaM2+EoWO1ANFbH+eQTk1RoH9dQY7liTCIQAAGYDwg8T6P5W3PQMPOGbKzWYpPT6R/VZNUr7ctzBgGGwtd2Zaakac/jeSvypgOOuZ8pAefU1p7To+5NHR/JTNSFCr0/uJPOj0MUoUyHJNM8TKJ6VxPISkBE0GExrqdiM8yalToxLU5EuPlGbPM6SbjVlrXPJk9myz6KFHUDODISQa7GAIQ0S3dlyyfhaVzw8c5jxSGT8EerTGKDC4DXIsTq0XAAAZjvCDxLIrZYfuj2Lu2sMyb5BGPbx0mrv+vNHeZBcA1T7ryzfIQzPchXuz36WbpX7RYrNuGHrfld86YUvPr+Pelx7qOjp89kn5bTpGYNOjy5XacwdZTdtUiHMr0/MbmSG5E/UjWuuajFUPnJDMPERj44J8ER0tz/X5Uee5NuExp7adrnVx5twpWrPaf66dYXAGA6jYrMNVqSs86ACzMToEdvMu7ySebR091s+KzXdJleuY9ASpj243Q0crvjVKqYye1vS5NOufheXWXD6efephrq35iTbI+kqz0kjcpE1xar4S9F2yLKuQjSpcOex9quMw9wEAGGuEHwT4RF5qtzv1RHR/FN0x37qZCUj1/DempiJtzIAAdgCyJ1G19+neb7e80v6J9fTheuNTZzjrfLnNvS89YakVMNS+jvmPIDdk6ty2nrIHO7AnNHWf25PqvjO/UZNsnRDDXZ+Xt7t8Pj/qPJ+Zkyi8prrdSDJNvjp7pKNTh6s7ZUd09DR74lLNb1CC1r3NdhiJGX3NmiBVD0e9T4ejgD49zmAHCZraxTslzzpDZ6sA5NnnU3fKOnWsep6gvZ7jHLx53aA1X2dPyxFrqLs8WafClXef5fK9mLAFAMBYIfwg0Im2Oqk5dVJarYBg9J+M9gF6w70+XXQAarIHA/DsVwWR1u4GqdHz+KRtNLjz8kLL0+ocdSgxqywjsS8955A92IG9P7uA79ATyerrOtjEnrp2zDnW1vZ/S+vxpZv1+dHvo7lv0efZnXiEvFS203PQNJtxpjv27Zfdae10b5p8nW+Whx/bI3VHVQiyH7B0HG2Rum1B8wupMLLtHWlU20SpEKWHk9762FumCZl/6Bg0cARpektq1D6b1X7cosep5wky62yDN68btGZIumS3ujae81Q69ESpap9JjVQHAMAoyLp1ydLrZjmtiosj0taWsIHEuDbRzw+AUbJSnn+q3Jr4c6QmUAUAAKODmh8ASGCw+W0AAMD4QfgBgAQGb/IFAADGC8IPAARi8k4AACYSwg8ABBr6XDsAACBzMeBBihjwAAAAABhfqPkBAAAAEAqEHwAAAAChQPgBAAAAEAqEHwAAAAChQPgBAAAAEAqEHwAAAAChQPgBAAAAEAqEHwAAAAChwCSnKWKS0wyRe4c0Lq2UiLkb1d8kNS3vyglzNzkz5aHyzXJftkhre4Osa/vErE+PsuJaqZ+Tr157l3rt82btWHHOtVteOVYnL/Sa1RmhQKrWL5fq8rlSVGhWyRmp2/SWHDT3AAAAUkHNDzJS2Yw7ZGd5rXxc+WT01rjoDlmba54wEnJvkdtV8NEic8pkrb2IUVa1ZYPUrnEHHwAAgPQg/CDDzJSHFtVKfWml3Jadb9bZIvmV8szSWtk5w6zQet+VdU1Py5LorUEOmIeGrPe4vNdvL7a2n5A37EWMqgKZNdNeat61R2o21ZkbtT4AAGD4CD/IIKYpVr4OPd1y4NQuqYmGml3yRPtJaZV8uS1/sf30tDsvL7TY+0t3kzcMUWeL7G3qMncAAADSg/CDzDGjyupvI3JSnjhWJw9eOO/qs3Ne3mjbI+uO7ZIlnxJMRk3JSnl0e63Uv1orz68vMCsBAADGJ8IPBmX3vxnoe/NxZa00LlosZeZxL117o55Tfod5fKasXaSeH9N3J35btd2chdbSgVN75I2gDvi96RoowByn67jct8Zi0/YqoZnq2myQRk/fpETXJjF9nazXCNo+d7HVJNBzLcs3DNIPyjlG1zZW36nz8nmfeUoCVdXlUmH63hStWS0bS+zlkdMl58Z6LAgAADBhEX6QgB0Q7P43ZpUlXyL51VKvCvoPBRW8swtkviqs7yzfLM/kq+eb1Zruu1MfDUdGdLCBk7L/grUms5lzqy9dKBFP36Qkro0PPRKcvk7S3SA1n34SN0qdfvzjpdVWk0DPtcxeKM8sDQprdjNC+xjNKsXpO/WLHLMiExXmSbFZBAAASBfCDwKVFf/YNEOz+99EBxU41iCvWAMD5Mt9SzcEjIqmC+XVKjR1yyuubWtOnbQfzq6UB9wDF+QU2IX67tEaaGCgf4/7VtPebR5PRAUf69zUYv9Jz/m5+ybNSzJcOENgW8Nz+wQfmbHBfly/D+0qHLmPV11PPeB6ZM6P48LW2kX2sN2x71+Nev8O9KsQ5QpEQQ42tEhzp73csW+/7D5rLwMAAIxHhB/4y71DdpgCt54HRve/ier9RAWHXSYALZRfBDURU8HgiaY6ecG17YkLe+QJky9Ksge2K8seP/1JyopXyW16wZpLaI/n/Nx9kx5MogbLE3x85yVyNwdU70ObNxzp67nOCpT5cnu+631Q798v9Nvn8/6dUO/fg9H3bxBnD8uzj9kjrj28d6QHIFABeP1dUr1MLXb2SJu9EgAAIG0IP/AXrYk5FDAB5nl5od2uxYkU3OLTR0UVuk/u8a3FOd2XTO1KppopPywwofBkgklUk+ibNBB8VEgMmpDVaQ6owtFLQWHqwglreG/P+zDo+5dBSlbK86/qQRU2yA49v0/nGWl8+bBVowUAAJBOhB/4cmpiWvsSVF/0ddkFVN2/x1qRuhP9plYhZ0ZKgwWMnhkyz2ou1iWfDyNU6EEI7KZsWpecNktxnBCTXSn1roEOvLdquybKJan3L0N1qNs5exEAACCtCD/IDGkMUhmv4MfWIAS6NucJ3cdIB5tFIzV30Thw9rA8bE1kukfq9vVIUeFcqb1/pWdgBwAAgHQg/CChSI57VIIYTq1Ef4Kai2T1Hpf3ButDlFEK5OYhjObmZo0OZ/r4vNFWZ/eByq+WnX6X2gmF3Q3RAQsCbz5N5xK+fxmnSw7u3S11R9Uio70BAIARQPiBrxPdn9qF7vxVAUM2D3TEb+06Htz3JWnn5e0uuy+Q38hlUXqumxlJhKMRq0H6RPZbh5kv9y30m6/IyJ0Z/FjM4AZvfNpg9dm5rdRneGwnFAa+D/4G3r8y/9H4cp3me4NgklMAADCBEH7gr/dd+a1TyF9aKzvdgUMHkHJnGOWT8tu2wTv3J+NE27+5htBW+yx2T/ZpJuvUc92UJghHckG+iNYgubZXx5x4MtDkvdHeZJro6fmKNsSEMec4Nwc2ZYsPi5/Ig2bEtvhA5Qws4bomnvOYKWuL1f4qY4Ycd9WkPRMzEapzHWP7CfkZ/UlOAQAARk7WrUuWXjfLaVVcHJG2NquIOCFN9POz2ZNk2iHHjz2Msnc0MWcbv8dszihnre27ZF1ccBp8n9aQzwn68UdHUYulm459+om54y/xsbnk3qECRGWCfinx5z/Ya0eP2+c4A8/JoecbOrnHe70THaN6/oG+hXJbfvD7pFVtqZVaPfS0pUcat+0e4bl+CmTj9g2yTlpk62OM+AYAANKLmh8kYE8EWnOqSQ5YtQiObmlVBfQaPYdPQKE5de592s3gbHqfTfKENWeNWRXgRFud1FgTjbrocNCdxpHPet+Vdc6Epmm6NtGaL6v/j7dpnz4na3LZbvX6Zp1FXSNr4lM931Ds/vQxmm0GDDz/pSSGHGeSUwAAMJFQ85OicNT8AKONmh8AADByqPkBkHkKy2V9JQMsAACA9CL8AMggXfJ+S4+1VLF5gzXKnH27S6qstQAAAKkj/ADIKK17d8vWfWekw/Q1AgAASBf6/KSIPj8AAADA+ELNDwAAAIBQIPwAAAAACAXCD3zpZn0AAADAREL4AQAAABAKhB8AAAAAoUD4AQAAABAKhB8AAAAAoUD4AQAAABAKhB8AGCslK+X57XdJlbkLAEAmiqzfKM9vKTX3xresW5csvW6W00oPldzW1mruTTycHya0/EfkO/MqzJ0Bl7/4iXzVbe6MJR0aniqXInM3qrNFtj52WMbFJ7fyLnl+81wp6jwjdS+/JQfPmvVjIT9Xnr83J/56XuqTrXt6h3g9p8jGDXmybppIx7Gv5eEPr5j16RFZMV12LJ2sXrtHvfZVs3asOOd6TRpfuyi7R+R3Y2Sv5+gajes1EXHdJqS0/r878nT42bEmT+ToO1Lz4imzdnyi5gdAnCk3xP13rDTLFf7opocObzr4iAo+jwUFH13gmSH1v1S3DbkSnXlrwY32OnV7dIFZFyCyIFce3TA9+nx9e/4HuVKVb54wEvKnynJVUNeKlk6lVmu4Mv56ms+p+zMKpB2fs/RI/e9K697dsnVfj8iyO+X59QVm7fhE+AEQ5+q5R+TPR35ibo9L72W18vI5Gevv2aPOHpaHN9VJTfT2jopm40WBbLxf11r1SOM2FXzM2oQuXfX5FvCafHnRLMZRf+B+MF123J4jFdMmm3W2okiO1N473fsHrrtXHv7NBamJ3r5O/Xp2X5Ejl+zFjmNXkjs/BON6AhNTOv/fTcWQ/67YAajuqPo7sma1bCwxK8chwg+AQcyRyTeoH/0ZFH7Gscj61bKuUBVk9+2X3SPS1E1/s5cn6yI69FyT5vd6ZGv0j2uP1KkCdIdMloq5U+2np91V2b3H3t/4bqKVKbieADLHwRf1l43qb8z9K8dtLRzhB0Bi+StEZ5/LPYfs+xiGUlmv20x3tsjOvV1mXZCrcs584+9x8ZoKLwksyLH6h4hckbrXLsqzn7m/3bsqBz/8Wh5+rUdq/khBGukwWWabZnnAyOFzlh4p/l3xOCV7dfO3wnJZX2lWjTMMeJAizm9imZKzSm4oqpapeYUyxay72vO6fHW6Xv1XESAnorb5leS6tpHLzdLb8Zr8d7fftYvIXy3+teT2vyR/Pq2DhNp+1r2SW1Th2udLap+HfPc5Jb9GPXe53HBDoVnTqZ5/RO2vXi73mVV+hnycXlNmPSf5RSK9//mI/Hei/bhMyX9EbtLnpVOTpVMudzRI7zn/cxu+Unn01TulYggDHkQqV8r6H5VLhXM5pUc6jjbLzhdPJdw+UnmXPPijuVIU3S5ex7498rBfuFHb1m+eG/x4jKofzJDaiG7u5OrcH+0kq8LNb76OaQZlan1UIaH5vQsq+JjVQzZVHv3ljVIxaMfbgf35SW5QgikSUYHtwWVTpCjaRE/9IW7tlZ0qoMXue7ABD6p+MF1dM/U6rV/LVp/tdR+ajRW5slw9x+nZ1nHpijT8u7qWgX3anGOcqo7RXtPR2icNzb0iFfo9SldH9FSvp9lOnPdriroON0q1+xzV8e78Y5o6US+4UZ53XYuE1PswELSd83OuVwrHmdL7lxr7syYD763fvtX5+X1OM/tzZhv989OG8Pue8ufMJeA4jxztk92fxf4uDf/3KKKO2f3++Qn+PU72/12XFN6Hof9d8eEMOjROBz+g5gchp4LBfFW4/+sHvOFAmZJ3j+Qvf07+KsescNGF+/y//rXcFLON3FAhufN+LfmzfCqDc1bKVBUGrva3q+Ua9dpqe1fw0abkPSA3+W2r9zfvHlfw0dS+1THe9NfPyU35/pXPKR1njCnZep8dcjWp4LNKblr8e3Ws7uCjFaoA9oDkL67xHseYKJCN22tlx2Z38NHypGjZnbLj1Y2BbZmrtmxU2yUOPolUfXeu+rdHjnw4ePDR2i5ds3529rj+UHZfVVFSUY+1WStc1B9Cu3P8Ffkg5eAzitTxPqoKGztu14UFd98k9Yc8cqPs+OV02TiEwRl0YS5R8NGP1997o9Uk0CkoaEXTpkrtvTPk+RV+n067QGQfo1mlOH2nqpMpmI0WdQ2LzTXV18Fzjup4d6Sxs3hSBdJEpg/9OFN7/9IjcN/qNhE+ZyN/fkoKv++pf87U9fxB8HGuuz0veMCYFH+P9Bcvse/fSEr1fRjy3xU/Z0/LEb3BspvH5aA21PykiPObCExNjFVI75TLX/yT9Ha3mpoJV63M5del+xNXDZBrGGhvTU1Epqht8tU2+vXiakrMdlcvq/8xVIiZcrlZvvr8Nbncp6+zDmE6pKhF9Zp2zZDDOU77GL+K1tao/eXfKzfpoJFgf9qQjtNDhZnlD8gNccfkxzxXX0tdy9Oj9ue8bs4q+aubVcBU13pkhstOvuYnOlynCiHNu/bLs00miJSUysb777T644gehW1TzGAEptZGb9eottttttM1SA+qIGWN3Ba7jYcOXRvU6w/2PBc9Ao/6Y+qtxYn9dtLFPD/wW9CkqT/8Q/0G0kX/UR58OGqzD7146Yo0er6JnSJVK3KkeulU6YypwQp6bWd94DCxzrXR/aCO9creDwfCkfVtrS60qMdiv1l3viW1+099bTUj1CKqcLT+b9XxWwWdkR2CePDraT4T0UKXOh51rM711OenC2Xa8GoE/QzlszKM40zx/RsO57o3t16Riojat/qc1v17nxxUBUXbFPU5uCqt7v2leJxj8TkbzfNL9fd9wBD/TzLHadeCeM+pasWNUqv/r4ir5UjP59O7Ta66JsnWqAzhHFN+HxSzbdJ/VwLYf0tFGrftHqH+qyOHmh+E1pRZv7KDjw43Rx6xQoXz36P+ruvyueek+z9VaPjc3fRNFfBNoNCF+G5PEzW1vd6mQ38dUihT87zfDTnDR0/RtTcdj8ufP3nOBB9N7a/jdddr+bh8xApnA9T+utX+jjwuX8UFmNSP0yNnlvov0dRWDeKG+Tr4qECnjuUr3bzNfTx9h+S/P7fPb8oNCfY30kpUUDHBR/+HHQ0+2tlTsvuxPdJoff01V6pjhvKMmK/zmnep/+hd27U2HZaHd51RS3PlewnbP0+X2TpYdfYk981aVMDoO5fiR+qJ5I3cN9/pFlmRawpC+o/tQGHBNtA3KZmC+qDBR/9hX+YUWi7Ks66Cgtb6mdrXezosTpblN7uuYX6uVJsCqS5EOAVSrbX7ijy7R32O/NrPjyVdgP2NKvC4j1WdX5054cJM+YwM6ThTfP/SRAcDHTxr1Od0oBCtxQSDcfo5G/HzU9L5+54UdSxbX7sgD/uc08EPL5rP2RSZFVSzPMTfI+f/Xn1dvNv0mmsyVb43yNQEyUvH70Pyf1cSy5PZs83iOEL4QUitklyr7ZIqrLtrdWKpQru7P82UWdVW5/+rKrwE1V7ofjj69aZkz7FXGHbzMR1GHpfuc8H/vcQHDRVW+tWPG+6Rm+avkilxzfBUcIqpuRnOcXpkm/BzebD/DlepEKV/VshNf/17+c5yn9tf32O91pianSdWBD3aHPBNVZfs/oMOMiJF5fNlqDGtsCjNcx+oP2I1+g+w5z00o38Nq2ZnrE2R70f0N6+qsPfvCb5l9BRa/A0EH1VYCfrGMt80B1QFr71BhavPrljDzBapgmD0fZ9umpO09qbt2/aRpa+n/7fLTlOXzDDE40z1/UuXVlWYDKzBdBmvn7ORPr80/r4PRTS45U+RKj3n2Q+my/Nm3jO7lm2yzJ5uPSPGyPwepe2Lh+H+PqTp70prR6Z985M8wg/CydRoSM+HoqewSZYdYDrlSs9gYSBWRG2rf+qJQv23nZK3PDBoXD6tQkxPp9UnKN8KF8/JTbNUEDKPx0r9OL1uyNPf1SUxuakZES7TObU3HR0JJjL4ssce9aYwT4qtFTbnP/qKzXdJlbtPUEmpPGo1h1NXvCO5vjwjpdVpwz1tSvoLgGnljNx0Vc4No7BnNUOxmq9oCdqqO4XLaTmyw0zkF38zTXJcnG9zOzIqOIRQiu9fuiT9/o/Tz9lIn1+6ft+Hyp7kWR3TvXlSq+c8031jPH2N0sf5v7fi9hu9k0iroPKoaSrn6WMzHGP8+zAREH4QTk6NRhLNuQY4AWaQzv++r23mykkwUagTWK7pWp44rSoAPSJ//k8Vgjqa1WuYAQSsEBRbzB3OcbqZ10liclOnSZ9uYjcwOar/LVGtV0Zresua3E03b6t9qlbqXzW3p+60/8gcfUf2NumFMeQMV6o77ForJjDdQVoXKi71Sd0xVXjTBYEf2IUMACGnvxixJnlWy5euSPOxr6XutR7Zqof5/82FaPO1tIk2ibMHG4iGkHtNCGn9OriWZpxyvkwcjwg/QFpF5K+sgQRUqHDX4Dg1I4EThSYZWPpMXyQdJP7zJbl8WYegX/mOSJdYwHF6DH1y0zHtzzMERUW+bR1sTtM43745Pda/3vkQeqR53zuydZAhslUykS+tblbeGqW06r4iR6wKqqlSPYIjX6VPgjb3g7C+wVXBR/fxibbhV4HoUb929U4o1ANBRCd8Dbj5NJ0bqW+LJ5SRDNzDfP9GzUT/nA37fUj99z0qqc+ZU9tyTRrfs/sy6X4xuu9Pa5qb1nnZNWjevw96QIKAYfdTlVG/Dz3y5ZdmcRwh/CCcTIF+StG9wc21cmKblZm+N1IhUwP+A3cPotDrqt6P1oz0BI2YFlQztMru52PuefQdsmqBVGlaJlvByZH6cXqYwJZM7djVy/Z/91Omr/Q/VmVKvgp4ZjlQyUp5dLtdo/J8zIADSRkkWLR+eMb+o7GsImA46wLZ+CO7CVtHy2nvH43Ku6R2mR7Zpk4e3lQnNdHbbnl272DBR+uSc+f1z2kyK2Ao7eG7Ku+32n+Ai5beGDxMdP5U2bggiXA0YgXaK/KBdcEmy7q/TTD8cn6C5nsm+DjX/eAfv7bauFfc7jM8thMKI7lDGjq79fMr9uclMtV/ONd8Jl4ckIaCbZAU379RN9E/Zym/D2n4fY8awufs0hV53zOwgkO9hllKmwU3Wv2IGvUgC54AEj8gwaAG+383I34fCuT75bqj7yU5N85GetMIPwinvsNyxersUyE3LX5Ebshx/ZerJwWd/5x856/j59y53KOLVyI3zIuZW0cP5aznC7IGUeiUXs8Iceq/2oRN2hQnaFw87N1OD1yg+/kstvfnKa6qfep5gvykepx+dKC5walZ0tfGb06hbtN36oZ7rLl8os9X9ASy1j7n/VpyB/mPuqp6YO6dojWrA+fbiWdqVaxR2koH/oCWlHr755w9LA1W07U8WffURnm00hWw9FDX1lDU+s4ZaYiZhNSu4s+T2StSH9Tg4Ed6MIU8WT6M1xhM64dfm5GhVEHj3uny6Apvx2PdT+Z5PTfE7QnCkVyTL63X0DVIru1VaPK0Zx+Gg819doFPN1fboI7FE8ac48wLbMrW0RpboLgiz5oRjuILWFdl91HzmHNNPOdhD3/7/C9v9BY+nUKGbsqijtF97s519P8NDBNvwdbb30F3NE8iZA8qxfdv1E30z1nq78Nwf99T+pypfT3o/v/L2Y8e0tn7H8Sw2f22VEgd1miDyf6/mwG/DyXzZbn+W3n080GG785MzPOTIs5vAtATjSYYgexqz+vy1en4cHDD/N/b8/H48ps3x5mnp1m+OvKc7wALU2bZgcRvDhznsUA9L8UMZW0b+nHGcubtiRE775HDNa+QH+9cQ/6qttRatSs2ezjqZOcPGJi/J0bcDNTOfDvmbpyA/TozWpu7fjo6z8iRPxzxDIXtlfx8RMMzJWa+ilh6LhE9pK656yM6ilos3dRikBGBnG0Tz/OjRGcVD3Itbp6KwV47etw+xxl4To5LV6xRnjyjICU6Rt2X4NJUqUjzzPuxBr+ezvsdfBxJvyepSPg+6iGDnZGzhnecKb1/w5DqNUvpOMfgczaq56el8PvukfTnbJBjVMenm8nWLg2Y6yaVz+eg56b+Pqj9HvHMbxQv8LjT9f9Zmjh/b5t31cmzY93XNQXU/CC8+urtOXJ6Or0F8svN0quHo/YJPtrl0z+R7i+a5ao7xVzWE3uqEHLEL1AMb7CDq+f0QAcvSW/McerJUq1hswMCxdCPM9Yh+eo/X5fLru2v6mvT4a2diup+zvRDsqpgoqwQ+Z+xcw35O9jQIs1m8459+4c0cVrr3t2ydZ9p1uZQYaTxo9iR3bpk92N1snXXwL5sPdKhgtLWTQGB6+xpaThq9/kJUlQ4V9Zt3iCPBs73c0r27lOvUVguD6bSrC9pV61hS7e+16cKTe6RnK5JR2uf1Kk/7IPNp9H64UXZesw0x3HoP6ZnkhwZKhndvfLwb3qkTu/H+sbToY/za9kaNxzr4KI1X1b/H+9XG/qcal5Tj7eaNvMOdY2sdvl6/pHY/eljNNsMGHj+3jEaoSujmGvk/azZhb1G9RlM1zfDKb1/Y2Cif85Sfh+G+/s+hM+Z9f/XezH7sZ5n5jNK/F/50HVfkQbPexevaNpUWXd7nn+/RMM67iT/3x2734dSWa+/aOxsGftBflJEzU+KOD8gTExtkSSqsSmQqi0brJqrjn175OGYZnMDnJqnodVsAQAykakxkqBJlrUpUvWDPKtf0IjUvo4iu4XG+P77Rc0PAAzGtG+OGwTBo0vaOpL5OrFLdr/cIh1Wv6O7xriPAgBgWMyko/H9EN2uZthEw6nRzd3sL/iG1jIj0xB+ACBJehAGPUhCbF/ZiB4sYYvT5yh+sIQ4Zw/Lw7t0E725UrudAAQA450eYVM3tY37+6BH1/yB0z/nijSM01qfaL/ao+8kaNkwPtDsLUWcHxAu3sEYAug+Ri+/lfw3YnoQhfvzpEFtc5DmbwAwLlX9YIbVpC0h3XdnhAYgGA06/DxY1CwPewYQGp8IPyni/IDwiVSulPU/miuFhWYiVMMZ5e39pq4RHMENAJCpIgtyZf2yqVI4bbL374MKPXqUNz3nEH8fMgPhJ0WcHwAAADC+0OcHAAAAQCgQfgAAAACEAuEHvmjyBgAAgImG8AMAAAAgFAg/AAAAAEKB8AMAAAAgFAg/AAAAAEKB8AMAAAAgFJjkNEVhmAS0akut1C4zd6RHOjovScPLb8nBs2YVAAAAMI5Q84Mk5UlR4VypfeouqTJrAAAAgPGE8INAB1+sk5pN5rbtHWns1GunyawS62EAAABgXCH8IDlnT8n7LT3mDgAAADD+EH6QtNaOS2YJAAAAGH8IP0hapGiaWQIAAADGH8IPhuiSnGO0NwAAAIxDhB8AAAAAoUD4wRDNldrtK6WKEd8AAAAwzkz+zsyZ/2CW0+qmm6bJV19N3A7yE/38/Fw6fl7+UlIksxbMkztuXy7/q3q5/M23zsjbx/vMMwAAAIDMRc0PhqzI/AQAAADGE8IPkle5XGqX5Yl0npG6bXusyU8f3ttlHgQAAAAyG+EHSbOHuu6RxpffkoNnCT0AAAAYXwg/GCKGugYAAMD4RPjBEE2TWYz0BgAAgHGI8AMAAAAgFAg/SFprR7iG9gYAAMDEQvhB0uwBDwAAAIDxifCD5JSUyvo1eeYOAAAAMP4QfhCoakut1L9qbk/dKRV6ZecZeZ/R3gAAADAOEX6QpB7pONoidS8fllazBgAAABhPsm5dsvS6WU6r4uKItLVN3GLyRD8/AAAAYKKh5gcAAABAKBB+AAAAAIQC4QcAAABAKBB+UkR/HwAAAGB8IfwAAAAACAXCDwAAAIBQIPwAAAAACAXCDwAAAIBQIPwAAAAACIWsW5csvW6W06q4ODLhR0Sr2lIrtcvMHemRjs5L0vDyW3LwrFkFAAAAIGNQ85M2eVJUOFdqn7pLqswaAAAAAJmDmp90KSmVjfffKesKe6Rx227ZTe0PAAAAkFGo+UmXs6fk/ZYecwcAAABApiH8pFFrxyWzBAAAACDTEH7SKFI0zSwBAAAAyDSEn7S7JOfo7wMAAABkHMIPAAAAgFAg/KTdXKndvlKqSsxdAAAAABmBoa7TqkCqtqyW6mV5UmTWdOzbIw/v7TL3AAAAAIwVan5GgBN8AAAAAGQOan7SqfIuqd88V6TzjNS9fEQOnqXGBwAAAMgU1PykkT3UdY80vvwWwQcAAADIMISftGOoawAAACATEX7SbprMYqQ3AAAAIOMQfgAAAACEAuEnjVo7LpklAAAAAJmG8JNG9oAHAAAAADIR4SddSkpl/Zo8cwcAAABApmGen2Go2lIrtcvMHUdni2x97LCEbIYjAAAAIONR85M2PdJxtEXqXib4AAAAAJmImh8AAAAAoUDNDwAAAIBQIPwAAAAACAXCDwAAAIBQGLHwQ38fAAAAAJmEmh8AAAAAoUD4AQAAABAKhB8AAAAAoUD4AQAAABAKhB8AAAAAoZB165Kl181y2lVtqZXaZeaO9EhH5yVpePktOXjWrAIAAACAUTKKNT95UlQ4V2qfukuqzBoAAAAAGC0jWvPjUVIqG++/U9YV9kjjtt2ym9ofAAAAAKNo9Gp+zp6S91t6zB0AAAAAGF2jOuBBa8clswQAAAAAo2tUw0+kaJpZAgAAAIDRNQZDXV+Sc/T3AQAAADDKxiD8AAAAAMDoG4PwM1dqt6+UqhJzFwAAAABGwegNdW0pkKotq6V6WZ4UmTUd+/bIw3u7zD0AAAAAGBlj0uzNCT4AAAAAMFpGt+an8i6p3zxXpPOM1L18RA6epcYHAAAAwOgYg6Gue6Tx5bcIPgAAAABGFUNdAwAAAAiFMQg/02QWI70BAAAAGGVjMuABAAAAAIy2UQ0/rR2XzBIAAAAAjK4xGPAAAAAAAEbf6IWfklJZvybP3AEAAACA0TWi8/xUbamV2mXmjqOzRbY+dlhazV0AAAAAGA2j2OytRzqOtkjdywQfAAAAAKNvRGt+AAAAACBTMNQ1AAAAgFAg/AAAAAAIBcIPAAAAgFAg/AAAAAAIBcIPAAAAgFAg/AAAAAAIBcIPAAAAgFAg/AAAAAAIBcIPAAAAgFAg/AAAAAAIBcIPAAAAgFAg/AAAAAAIBcIPAAAAgFAg/AAAAAAIBcIPAAAAgFAg/AAAAAAIBcIPAAAAgFAg/AAAAAAIBcIPAAAAgFAg/AAAAAAIBcIPAAAAgFAg/AAAAAAIBcIPAAAAgFAg/AAAAAAIBcIPAAAAgFAg/AAAAAAIBcIPAAAAgFAg/AAAAAAIBcIPAAAAgFAg/AAAAAAIBcIPAAAAgFAg/AAAAAAIBcIPAAAAgBAQ+f8BZCOwIyVqK54AAAAASUVORK5CYII=;" vertex="1" parent="1">
          <mxGeometry x="180" y="430" width="831" height="475" as="geometry" />
        </mxCell>
        <mxCell id="BMfPGsOhMgCzCpeU4s8g-2" value="" style="shape=image;verticalLabelPosition=bottom;labelBackgroundColor=default;verticalAlign=top;aspect=fixed;imageAspect=0;image=data:image/png,iVBORw0KGgoAAAANSUhEUgAAA2UAAAHDCAYAAACkrLKJAAAAAXNSR0IArs4c6QAAAARnQU1BAACxjwv8YQUAAAAJcEhZcwAADsMAAA7DAcdvqGQAAGjSSURBVHhe7d0PbFVVvvf/L9D7Q+g8SGkZafnTg0IRJ/KvAzK3oUYfmYki0oxPSZlJ5ofzXG60uSMGLgmaMYwZIyReiHpvihnmdyU3udMGfj4pOmgcvBrhx4hiwT/PFUGUAtLqQCn6DC3k8ue31t5rn+69z97nX0+7T9v3Kzn0nN2zz/5zTsv+dK31XcNmzZ5zXQAAAAAAkRhuvgIAAAAAIkAoAwAAAIAIEcoAAAAAIEKEMgAAAACIEKEMAAAAACJEKAMAAACACBHKAAAAACBChDIAAAAAiBChDAAAAAAiRCgDAAAAgAgRygAAAAAgQoQyAAAAAIgQoQwAAAAAIkQoAwAAAIAIEcoAAAAAIEKEMgAAAACIEKEMAAAAACJEKAMAAACACBHKAAAAACBChDIAAAAAiBChDAAAAAAiRCgDAAAAgAgRygAAAAAgQoQyAAAAAIgQoQwAAAAAIkQoAwAAAIAIEcoAAAAAIEKEMgAAAACI0LBZs+dcN/cxlH1/uMz+xXAZZR7Gnb8mH//rNekyD/tWiVTXzpeaeVOlrNQskhPSsPJ12WseAQAAAINNXoSykpoCmTbNPPDpPn9dug9ck68+vd5PwSAdw2TyL0fIROnPwNLH8iCUVa+ul/q55kEcoQwAAACDW96Hsrh+bbFJZRCGsgTDpOIfR8i4fjvvJbJi43JZVirSsm2HPLv/nFkOAAAADG55Nabs/GtX5MA/uW9X5ePXrkm3/ua44TJ90TDreRjE2g/JTgIZAAAAhpA8L/RxXbo+vSYfvWY35o0qtr7khVHjzB0AAAAA6IW86r6oW8qOfWoWujnjncK60n1/mEz+2+Eybtqw+JgoPRbtzB+vyrm/mAWBhsno24bL9IU6ZDmtcNel+/g1+bzZN4btthEye6F6/XTC2PGrckCtnyBkP88fuCanP/U/399Fcpg6T8Nlontdaz/DuxaOVvs8PcU+d793VT7aF/QRyKL7Ytbvg80aUzbhkKx//IC0mmUAAADAYDcgSuKPnmEu8tUFvj8cjF40Qhb+QoUXVxDQdMia9osCmR3W5VEFiAoVembdp0OL+znq8TS1XAWSyd83i4zsW8dUWKkJ38+J942QitvMAj/1/dFmX6f51502XGb9criMNo/dStT27GMzC/pY1u+DX2mRTDF3AQAAgKEgz1vKhknJouEy8Q77Qj/h+7epIKCCh27dOv/eNflqX09os1qJdChR3zvzb1fltKelxrQC6bu6JcfTUtWzze6wljtn/XRbkcx+2q1G1+TcX7zbmqa2pY/h+D9dlZ7RVKalLB6q1Lqv9eynPj4durRk58W7znB1TnSFRf+2gmRwjFm/D1529UWqLQIAAGBoyauWsnH3FcjCf3TfRliBRQey7uNXEwLb5IVOKFHfcwUBrevTq2Ys2jAZN8N+nmO0CkJ2INOBQwUFT9fB63Jun1pXBYjgQJYFtS8f/9sV+UhtqyeQafa2jh+3H43ytczFqTCnQ5R7P/Xxxdcr9h2fGXunz4t3HWd8njonYS1zGcv+fehRIrHae6VGl8Nv75RT9kIAAABgSMj77ovdKjgdVwHpI/8Yre+ri3ydrNT3vwoLTyqEnFdfRk0f5uriN0yK1WOrFemPSVqAPOGp97qcFiK13yW3DZeKmhEy+5cjrPBpTwegwmeJ9QwfvZ/BrVpdHdnvoz/IZS3r90EpXyhbttdL0/blsmnJVClrPyG7XmQ8GQAAAIaWvC2J//F7duAYdf66r3XJKLFb0HSp/Fme1jX3zXRR9HHGWXWnUXwiV3TXwYpfqn36xQiZdp8phuEZy5Y7XR3213H3jZASd+ubHptmujx29yLQefTiffBrU7cz9l0AAABgyMjblrKufXbrikwbnlBwY8Cxxn+pIGa1KOlxV1et1r+P1U0HUKcbYs7EuzbaRTbi4UgFQiscHb8a3qrVn04ekDUrG6Ru5Q5p2N0pZaVTpf7hhRIz3wYAAACGghE3TZjwG3M/MqNvtQNL9+fXpOOsWah0jxgmN00aJmMmqyxz+Lr8l1luGTZMimcPk7/R5ef/9Zp89eckN8+6ar2/1cUu1Osfvy7fXbSXZsa8hnqR//PnxIqQXsOk4v+2i2voohuf/kkd4ykVOtV2/8tsO/j4h8mNc4fLGL2Nj4L382/Kh1vn58qZ6/KNbyDW6Ft1t8Jh1sTbf2MvUuxCHJ//KdU+a+YYu9Vr+8+9W9bvg1uXnPz0f8tfyufL/OmX5FjzcTlpvgMAAAAMdnk9pky3lp3RzWXjhsskf2GKv6iAob+XcUuaWs+0Ik28P7icvOX7vvFPIUKLc/idvy4dnoIiDtP9L5du0+XzRc7o4iKmO6h9SyzEkZIuyW/uBsr6fQAAAACg5Xmhj+ty+oAdZMYt9Aco53sqXP1ihFQs0vN52d+x6XLzI2T2P44Qf/2Mc3++ZrUgWeOgfjlCJt/mHtulXkeFmtnqNWfVhI358gY7/7itEs/rGWpb0/U+mofx7eiy91ahj9yxqy+qsBda7TA93Vb/UXWM7v3Wx+c5z9m/DwAAAADUFXN+z1Om9czX1f3eVflon3d39aTFs6x5vkJYc4MFzI/1/eEqeNndGIOlmFcr6freecCS7qMud/+5WKX/vcfvHHf4fjivm3BeUh6bDlwqWHrmZ0sUut+6q6KvGmbW70NciazYuFyWySFZ/zgVGAEAADB05H1J/J6WGJFRdwxPaG3p2qcCggotZ45ft1u/HDp0qLBizUMWFAT+ck0+UsHp+HtqPatFyKEeq9DxsZ4XLDRAKHp9td3zajtu1gTRr13zlLDX+/jxa77tWM/T47BUeDPVEnPmL+q11flIRld+nHjfCKlIMl+Ztd/6/JjHFr3fx8x9l6zfBwAAAGCIy4uWMuSSaWETPTF22Dxsw6Skxh53FtT6GA1aygAAADA0DYCWMmTETObc/Xmygh7qe7mapyzXSudJbRWjzwAAADB00FI22MTHk12X869dk68+9Yaz0Sq06VL3E6fp8V/esW9Ri9WukE1LiswjxwlpWPm67DWPAAAAgMGGUDYIOYVTktJjw5IW3ohGrPZeeXTeVCkrNQsIZQAAABjkCGWD1OjbhsukhcOsgh7uKoxO1UU9Z1pG85UBAAAA6BOEMgAAAACIEIU+AAAAACBCkYeyKVNi5h4AAAAADD20lAEAAABAhAhlAAAAABAhQhkAAAAARIhQBgAAAAARIpQBAAAAQIQIZQAAAAAQIUJZJCbIY/OelI+qnpRdU243yzLlvEa9PFZoFgEAAAAYcAhlUSi8Te4aZd+NTZ4pS+27QI/yOvn59j/IPwTcfr5xrfyoKv/m9yup3az2b63MMI8BAACQHkJZFC5+Km9323dbTx+RV+27QI9JE6XI3PUrKq2UylXPyM9r8ymYxWT6vFKR9jPSYZYAAAAgPYSySHwtzx36rcze/1tZduoTswzoUVJWZn39ctvP5F9Wum4bnpA9u9ut7xUteTCPWqUmq7Covnx9Rs7ZCwAAAJAmQhmClS+UdRvrpWl7vWypLTEL0V+Ky3TCaZfOr+zHcSdb5ejOf5YWK5eVybhya2n0qhbIzerLlx/ssx8DAAAgbcNmzZ5z3dyPxJQpMTl1qtU8Gox0QY5V8pAZQ+bXenqbLDv1tXkUZILMHF8tmybPkJh5jdaO/fL702+JTH5Sni7ukJc+bJDnLtrfy5Xq1fVSP9c8kE7ZtaFRGk+ahzkXkxmrfyU/nFsa77LXefgV+aC5SY5OWiv/sKpMWjaslXd929djmOqWSM/3yhfJfQ/XyM2lOtAo7S2y58XNcjRgv0uq1spP7q+0W3cs7fLl7mZ5f+e+pC09ma0Xkx9tfEYqv94q//K8DivqOGsflB8uUevbT1DHuVXeUN/zrmvWK1X7v1Ltv1nqNmP1H2Tx3PbA86JlfXzqHE6vUefQ91688XyTbz11rje6znVS4ccBAAAAWsrynB3omip6ApkWK66Sp+fUy9+NNgsGMqugxTMqYPSEAK1o7gOy+Km1ct8PK9WjNjkfEDzs1iT7e1aRiace8YYEfTdhPR0m/iB1q9yBRSuVm5c8InUb6yS4XTCL9coXqv1RoabtdM9xugKZVjT3EfmJf2yYWU8Ovx8cZNRr/VAH5vaD8nnOjk8HYxVy1TmsDHgv6rZvlh+5W+XKJ6rX92wgHOPMAAAAkqKlLCIzp9RL0+TipC1lS2/VLWH6Xoe8c+x/yaNn7efNLLxdHplRI3daQa1vWsqs7osPz5NKdd3dtnuHrNmZrH0lWypAbFdBSt2Lt4yZkGG19OhgoR+0vyJNj/tbakxrkqjv/XGiFUKsVqfmfXLOeg0VMqpEju53f7ac7ZlWo/ed5yrli+RHD6tAoo5Xj+N6bb9ZbslyPXUM/6D3q71dZSIVdKyWu5fVMep90iFIh1F1V+233ZJmOOvtfkL+fadr/8vVOgt6Wtpytp/xljl9X6277Z/lfXXe7PPtat0LfB80s93Q7wMAACAZWsryVeHd8ncmkOnQ5QQy7cjFT+TRQ9vkJVPBsU+cPCDPPt4gdSsb+iiQ6S54TiDbKv/+fE8g087t3yz/vq3Fut956EDAhb4pLCHzVXgrU0FCBRjdDTD+Gq2+QOZsTwWjDWvlNd2Nz7U9OblP3n3xFelUd4vKvC1X2a7nFOuwWpRUwPqXx3VXSmef1P412+v5xddb8oy3HP5TTkubDl1P+IJVL/az9ld2INOhaqVaNx7IND2GTb0XG7aqQBkSuHSrmf5KkQ8AAICsEMry1egSsS6dO/blvhUsH8S74OnxSsmLQ3S2ecOVxQkCKvB0brODRHKL5BZrjFylLH7KFXQ8oecB+zU9sl3P6V6pW6Z8LV4+VvdGF2e9RDqMbZUmK3T5Xy/741uwRG9PhblkrVwq1AWNzbOY8v0U+QAAAMgOoSxPzRxlj/xp7TprfR1sShbMty7kg1vBbHaLUUAFQs0EAd3Fz99iFMhUB8xYtuupSD1ugv7aIl+EBMb4OfCEzp719sTL4JsWtfaDdqGOoHCU7X464TZs/FoaZljj/kLeJwAAAKREKEMknJLvX74f1oJkJiMOKfLhBIHw9b1C5/0KuLlbtbJdL969MkmRi+Cy92Y9d0g62SQfHFZfS+fL9JAS+FnvpxNufa116XNCZPD7BAAAgNQIZXkuNnq8uTfEOBUIA0NN9kHAP54qXRmv57RchY6zCjkGs54/JB39QI+vK5XKmkX2ghDZHl/2AkIkAAAAMkIoy1NHOj4Tqz2jeKYstZb4FI6Xm0PmPsuJfpk8ulRuXhAQIqxKgWb8U2CoSd0K5Xeurc36WjRvYUhJeJGSqljC97JdL95yFTrOKvgYnPUSxtHtf1++1F/nLpAZ1gKvbPdTvjpjF/9Y8mDg61rU+xH2mvHujwAAAMgaoSxfXfxU3raqK86Qp+ctl6WF1lLLzPHLZdecGrnTPO4L1TV2OXytbMliWRHSbS5bdsuPDgPPyM9rF8mMchUYdBhbvVl+rufKMtsODDXZVPtzQk3pA9ZcXTNcx+Nst27VM7Kgyix0ZLlecNdEF6dFzDemLny9ffKF7sIolXKLfx+1bI/v5AH5sl3fqZTFG9da70OcLsGv1tPzvyXMpeY3t0Z+pEKfw96m2g/zGAAAAOGYpywi6cxTpsvi75pTJYGXw91H5Z2uGXJncd/MU1a9ul7qrWp+Wqfs2tAojTkeMzRj9R/sebp8rDnL2ubL4iUiLRvWyrv+7YbN45WKWS+MNc+ZLqtvHsdlvJ4z75cu1rE5sFufnuy6bkmpNQasp1BJivWc/QibDyzb49MTW4dUkNT0+/HG82GVGd1znCVKnBMNAAAAfrSU5bOLb8myD5vlpQ53B7cOeed0s9Qd2iFbu9LtvJe5vc2HpMVqQdGTR+/JeSDTjj7/M2na9op8ebjdmmD5S3Xxv2eDnm/sgIxLUuQjtItfKvs3y79s2Cpf6smcXXTo2LPhZ/Y8Z2aZR8br9bLIR9h6+1+235Owgh/ZHt/JJvn3lU/IHv0+mEWW9hZpseZ/SzYhdKu8+/gT0qLWdevUE2WrbRLIAAAAUqOlDHlokdy3/RG5OaxFCAAAABhEaClD3imprQkcbwUAAAAMRoQy9D89hmn7Zrmv1lfVzylIsUT34WuRDzIZLwYAAAAMUHRfRP9LUVhCj7UKLPABAAAADEKEMkREl1v/lfxwbmlPONPFPg41y/s7QwpSAAAAAIMQoQwAAAAAIsSYMgAAAACIEKEMAAAAACJEKAMAAACACBHKAAAAACBChDIAAAAAiBChDAAAAAAiRCgDAAAAgAgRygAAAAAgQoSyAWWCPDbvSfmo6knZNeV2syxTzmvUy2OFZlGv5Pr1AAAAgKGFUDaQFN4md42y78Ymz5Sl9t0+YILWvLtlplkCAAAAoG8QygaSi5/K29323dbTR+RV+y6yECuvkBWrV0jT9nppWl1hliYXq1oo6zaq5+t1rNsKWVdbITHz/TDZrgcAAIChgVA2oHwtzx36rcze/1tZduoTswyZqF5tB6NNT90jy+YWmaWpxWpXyKZV86Sy1CywFEnlkntk08aFoQEr2/UAAAAwdBDKEGC83Gy6Sfab8p7WpC21JWZh7p1qflMatpnb7k6zNAW1b48u0QGuU1p275D1KxukTt82vCkt7Wpx6TzZFNTalu16AAAAGFKGzZo957q5H4kpU2Jy6lSreTS4LL31SXm6WOSdY7+VR8+ahVrhBGus1pGLX9uPDfv5HfLShw3y3EU9rmuVPBQSjlpPb5Nlp7zre6ltjK+WTZNnSMy8RmvHfvn96bdEJru3Y39Pxi+XXa7nJtXRLLM/c1rqnP3s2e+lt/5U/q64ON4KpLe7/rO35Ih5HES3YNXPNQ9UiNm1oVEaT5qHfaXqXmlaNVXk8JtS9/wxszCRs29tKlit2XnOLHVUyLrt90hlwD5nux4AAACGFlrK+tDxrg7ra/moCdZXmwoxM1ZJ05xVsmuKd/kto9WX7s/kDScoZc0OSk0V3pAVK66Sp+fUy9/p7QRIK5AlM/p2eUFt92lXINP0dpsGbNGQCrnDCosnpDkhWGnHZKfV4lYkkybZS2zZrgcAAIChhlDWh4502xfjsdHjra8WdwXFoOVdZ02LUs/4Mfet7rQd9JJZeqvTwtYh7xzb1rPuh83yTrcKTEHh6+wO13bU8/Sy7v1SF1/musVbydyK5aGKGrlTt5i5t3nsqP3tUVXyiOtw/fY2H7K79Cltu/fkT8tR+TixhoMd/kL2Wgts7tDZ2nbB+lpa5up2me16AAAAGHIIZX3p7BE73KjwFW8lGl2iLsyPyjs6WyUsVxfqKpT1SuHd8nfF+o7dnfDRsz1dHI9c/EQePbRNXjIVHHOu+6j8en+DPOfepgp7vzY50tti6HPygDz7uD3mKrGrX4QmFUmZ+tLWdt5+bHU7rJdN7rFvX3VKm/pSVjbOfqxlux4AAACGHEJZnzorX+oANKpEptkLZGnxDBVezske3bVx1K3yEzPh8kz1HO1kd7JxYmkw4U469vWMF+sXKgQe3RFYpt/pxjkoVN0ileZuRmEq2/UAAAAw6BHK+tTX8kWX/jpDFltd98y4sa6z8qrVtbFYbjbju6aN1s1bR2VPLxvKnHDX6xY3eMSD1P6DssvqZtkpLR+EFwdxZLseAAAAhg5CWR/zFvuwS81bganrnOiak/by22WxzmQqqB1XX5BHTBfDHuek0epm2SjP7jeLEroqKtmuBwAAgCGHUNbHjnR8ZoUvq6jH+Jlyp7pvdVG8+Km83a2Wl9wmMwvHS7l+crzIR+95iohky9Xtcsg6eV6sBq65t0i1tSBRrGys9bW9zTUWLtv1AAAAMOQQyvraxbNiFRJUIWmp1bXQ6aJoujbq4JOrIh+KEwKleKYstZb4qACY/sTQJXKLGfPW5/pp8ujMHZP3DuuvU6UmcL8qpNaaIPqEvOe0gFmyXQ8AAABDDaGsz/UU+1isx425uii+2qHLxavlplri2x29LPKhmRY4PY7t6XnLZakrVM3UE0TPqbFa65L7RPZYvS6L5aEZd3teQ098vXR8kiqKWaqumSeVVg15kbIli2WF1XSYH3S5fqtK4pLlKjBW9JS1L69QQVJPAK34St9r2a4HAACAoWXYrNlzrpv7kZgyJSanTlltO4PW0luflKet4KV0NPfM81V4twpJVeZiXZeTD65e6DZzSr00TS6W1tPbZNmpkBDneV2f7qPyTtcMubPYLpkfWqEx2Wt49tWeqPohPT9ZyOuls8/Vq+ul3ppsWeuUXRsacz5XmXcbSRx+U+qe9xbjiNWukE1Wy1aA9kOy/vEDdgulT7brAQAAYOigpawf2C1itnc6XBMvO10btVwW+bj4liz7sFle6nCXou+Qd043S92hHbI1nRL15jXe6fY+t1WFupeO7U0ZHjOVt5NHG607G2X9Nr2PnWaJ1iktu99MGqyyXQ8AAABDBy1lAAAAABAhWsoAAAAAIEKEMgAAAACIEKEMAAAAACJEKAMAAACACBHKAAAAACBChDIAAAAAiBChDAAAAAAiRCgDAAAAgAgRygAAAAAgQoQyAAAAAIgQoQwAAAAAIkQoAwAAAIAIEcoAAAAAIEKEsj43QR6b96R8VFUvjxWaRf3O2YcnZdeU282yXMmH4wMAAAAGLkLZUFB4m9w1yr4bmzxTltp384gJdvPulplmCQAAADBUEMqGgoufytvd9t3W00fkVfsushArr5AVq1dI0/Z6aVpdYZYmF6taKOs2qufrdazbCllXWyEx8/0w2a4HAACAgYVQNiR8Lc8d+q3M3v9bWXbqE7MMmahebQejTU/dI8vmFpmlqcVqV8imVfOkstQssBRJ5ZJ7ZNPGhaEBK9v1AAAAMPAQypAHxsvNpntlxsp7WpO21JaYhbl3qvlNadhmbrs7zdIU1L49ukQHuE5p2b1D1q9skDp92/CmtLSrxaXzZFNQa1u26wEAAGBAGjZr9pzr5n4kpkyJyalTrebRYKTHS62Sh0Z1yEsfNshzFyfI0lt/Kn9XXBxv7Wjt2C/rP3tLjpjHCQpvl8cmL5K73Ot0H5XfH90hr140C+Kc7ZmHPq2nt8myU1+bR8Fmjl8umybPkFiSoNTzOlken9rGrhTbiOtoltmfBbfw6Ras+rnmgQoxuzY0SuNJ87CvVN0rTaumihx+U+qeP2YWJnL2rU0FqzU7z5mljgpZt/0eqQzY52zXAwAAwMBES1l/Gn27vKACzNOuwKLFiqukKaTIxcwp9fLRnBp5yL/OqBny9BxdTXGCWZIbS2+tl6aKNMOSX4bHl9U2BowKucMKiyekOSFYacdkp9XiViSTJtlLbNmuBwAAgIGKUNZviuWhihq5U7coHdtmje/St7pjR+1vj6qSR8bbd+PGL5emycXqToe8c7pZ6sw6znq6fTE2+ae+UvQ948fct7rTHeb7Sajt6UClt+fdx/3WtkSOyq/NssTWtgyP7+yO+HNm72+Wd/Sy7v2eY4zfQlrJtL3Nh+wufUrb7j3503JUPk6s4WCHv5C91gKbO6y2tl2wvpaWubpdZrseAAAABixCWX/q1qGmQZ472xNojqhw8muTl8pHuVu9Jshjk2dY99451iCPnvrE0/1Pr7fMCjzFcldxblrLZo6yL/L19rz7+JbZ1gxZ7A+ObhkdX46cPCDPPm6PuUrs6hehSUVSpr60tZ23H1vdDutlk3vs21ed0qa+lJWNsx9r2a4HAACAAYtQ1m865CU9Bsw8cjveFdCK5cwt1r1ftp61FyU4e8RqYYqV3NZv83uFB6sMj2+oqbpFKs3djMJUtusBAABgwCCU5avRJXaXtVFV0lT1pHwUeKuRO60n58aRbrul6c6K5bLU3SWy8HZ5ocJutTvZ7e+2iGTiQWr/QdlldbPslJYPwouDOLJdDwAAAAMPoQw94l0N7SIi8fA3x4S/jubwVjt4mS6GPc5Jo9XNslGe3W8WJXRVVLJdDwAAAAMWoSxfdZ2zi2vocvBBxS/ct0NJyulnzO5q6J2kwBQa+cw7ri3nRpXINHN3wDt5XqwGrrm3SLW1IFGsbKz1tb3NNRYu2/UAAAAwYBHK8tXFT+XtbvW1eJGvumIfsqovirz04W9lmSf4JRYa6Rslckumx9pPk0dn7pi8d1h/nSo1gftVIbXWBNEn5D2nBcyS7XoAAAAYqAhleetree60XV3xoTn18sKU22WmJ7BMkKVTlsuuquWy1CzpLbv6YrHcnKNqjun7RPZYDXTqWGfc7RvPpo5zfPj+VNfMk0qrhrxI2ZLFsqLcvp8PdLl+q0rikuUqMFb0lLUvr1BBUk8ArfhK32vZrgcAAICBadis2XOum/uRmDIlJqdOeTvLDS4T5LF5q+QhPX/Xhw3y3EWz2EVPEK3nI2s9vS1h/i/ne6G6j1pVD4Ne1y3ZNuIK75Zdc6o8c2L5tartvX16r6vsfe+OLy7ptnWp/eDKjtWr66XemmxZ65RdGxpzPleZdxtJHH5T6p73FuOI1a6QTVbLVoD2Q7L+8QO+rqK2bNcDAADAwENLWZ47cqpBZn/YLC91dHgvwrvNOK9DqQNZ2i5+Kr9X20kmNmqGPFSxSl5INl9ZNi6+JcvUcb6jjstNh8CXju0NDGRa3k4ebbTubJT12/Q+dpolWqe07H4zabDKdj0AAAAMPLSUwTAtXrJfBb2wwiETZOmtq6xxZ0lbvQAAAACkjZYy2Mxk1a3nPk1S0ONrJoIGAAAAcoxQBo/Y5J/KC+MnyEzz2DGz8HZ57FZnfNtR+T2tZAAAAEBO0H0RcUtvfdLqmphUmoVFAAAAAKSHUAaPmePvlkcm3yrlo4o9lRCdqotvnP26H+YrAwAAAIYOQhkAAAAARIgxZQAAAAAQIUIZAAAAAESIUAYAAAAAESKUAQAAAECECGUAAAAAECFCGQAAAABEiFAGAAAAABEilAEAAABAhJg8erApvFt2zamSmHkY171f6g69JUfMQwAAAAD5gZYyDCEFsmL5eGn6e3VbXtgTXKePsZep27rpZhnSwPkEAADIBULZYHPxLVm2/7cyO35rlnfMt+By4Yokts9ela/Om7vIDOcTAAAga4QyAAAAAIgQoQz5oXyhrNtYL03b62VLbYlZmGtX5MwFc9ft/FVpM3eRCc4nAABALlDoo19NkJnjq2XT5BKJjSo2yzqktWOfrP/sk9AiHDPH3y2PTK6SO0eZBWms0+N2eaGqRu7MoNBHNtubOUUFqskiL33YIM9dVAsKb5fHJi+Su4qL42ONWjuaQ1+jenW91M81D6RTdm1olMaT5mEOVf94vNSrHWr7sFPWvH/FXlhcKFseHC1lclkafved7LWXJohNHyOPzh0pZWPNggCe11ViC8bJpjkiu14+L40dakHxSFlRWSjzYyPU9mxtrd/JC3+6nNj9L+i5Fy5L83+ofdSvFSaj9fS4sCJZJl2yfsdFtQ8F6hyNkRrP/nWp/dPfS9Sb8wkAAAAbLWX9RYWUF+atkqaKGa5ApqnQUlwjTVX18lihWRQ3QR6b96Raxx2QtGTr9EZutqcD2kdzauQhVyDT9P10QmFfOnXhqvW1vbMnOEnHFWnXX9X3TlkLElX/WIWru5IHslR0QGt6cIwscwUeTd/3B57Q544dKfUPjpctCwrMEq9s15OxI2SKCnPrVECr968bGy2b3IU8XLI9nwAAAOhBKOsXKpCpkGIFne6j8tKxba5CHNvk16ePqovyYrl5tP1sx8wpP5WHrHDUIe+41/mwWV7q1suL5aE5y2WpvpsDvd+eOobJy6Vpsgqd6jh//aH3OOtOf2Kel2hv8yFpsa7kRdp27+mTVjKt1R0e4q7KV0Hd8BzTx1hBRT9v19udUve7s9Zt/dtdppuebhGyl7lbyXqMkEmVY2TTHPUaF9RzX+55jbrfdcr6lsvmeYbanvVctb2WD7+T9fHn6m1etrZZNmeMrHBney3b9Sw6tI2RyrH+YzT7Nna01AZUUszqfAIAAMCDUNYPZk5ZJHfqO1YXwh3y3NmvreW2r+XVUztkmQowj541i7TCu2WTDjcqIOkugY+617n4iTx3aJsJSjPk76ZMsBb3So62d2fxDGk9rcKYOs5XL3qP84ju1hjm5AF59vEGqVvZIGt2njML+0pIVcDACoIisSK7danl7fPS+HlPCGn9/KKssULLSLkjRen3ythIq4tf3Q7dhdAdZNQ2PV0KC2TF3JHWPb29Z9/3dmts/fw7s80RMv8Wd6tXtuu56MD4O/8xficN5oVKzXlIlNn5BAAAgBehrM9NkJ+UmLBzNMmYLk+AUUaX2N3FOvbZY7QSfC3PnT5q3YuV3CYzrXu9kKvtdTTLslO+Y8knKmTU6eDhCUJXpHHHWan7k6/FKgPhgcVoVaEosBXNp3ikzNddJC90yc7P7UUJPr8sLepLmQp68S6F2a4Xd1V26TFn5pGb00UxUB+dTwAAgKGEUNbnxsvNVpfAc/JFspYin5mj7AqErV3u5jOfrnN2S4R67jRrQfZytb2k6w9QThe9yrvGSLW7658eg3WX3TrlGVMVoC1ZsHEbZ8ZzjR0tm8wEzIm3MVJpPdkl2/UAAAAQOUIZkEq8C59dLCMecvQYLL249bvw1ikAAAAgBUJZvymRW7KolBgbPd7cC+B0Oew+J8etBb3X39sbOOyWLu/8W6agRlA5+2w5c3ypoOcU2wi9WSXsjWzXAwAAQOQIZX3uE9ljjbcplodm3B0+Fqtwgud7Rzo+sy+cixeFlKGfII9NnmHdaz33aepS8ym6OOZ8e5nql8mjs2RVX9RzjZ2VNZ6Ak1hQo9c6LstBXbkwVhhSJTFEtusBAAAgcoSyfvDq6f32hfuoKmmat1weG++uXqgnlF4uu+askqZbbzfLlItvye+dMDenXl5wr6MnZp63ypSvPyq/T1pY46x8Ga+aeHtP8FOvsdQdvnK2vexU18yTylL7ftmSxbKi3L6fD+zqiyNkUljVwpy6Io2H7SqJyx4cJ+sWjJSYJ2QVSPWCMbLl78dItVliy3Y9AAAARG3YrNlzrpv7kZgyJSanTg2BzlSFd6vgVRVQ9c5hl6L3Vj7Ukzk7YShI0DqJ9GTO1txhfh3NMvsz99xh2W/P2YYuh59N9cXq1fVSP9c8kE7ZtaGxz+Yqy1hxoWx5cLRnQmW/tguX5eDhLk85eU1P5qznDtPl8NOqvmg464VS29PVEr1VD7NZr0BWLC+SZXp+spf9VRRt2R4DAAAA0jPipgkTfmPuR+LGG8fKt98OgZlm/+uENJ0+JmeGfU9u/r9KZOzfmOUq6LR2/EkePrxb/vhfZlHcX+VA+15551KBjB89RWJprZPo3LcH5Z1hE+SHN6rtmmXWJNZfH5EDXX81C7Tstzf+xvnyP24cLRe+OyRN37pfMz0nvx4hU28tlbL/piePflU2/7nLfCcPdF+X7uL/S+aPDW9Y/m83FMitU0fJ1O+65M+uObvGThwl90wYLv/n60vyxplrZmlqF850y//belX+ZnSBjFHbVafFduGqtHz2V3nhT13y/1ktoF6Zrzdcbv/BKLn1huty9Ei3/O+A18z2GAAAAJAeWsqApExLknTJ+tACGQVS/eMia9wZrUkAAADIFGPKgGTMpMxtrckKelxJPsEyAAAAkAShDEhD2Zwxsm56QcKYwJgKbSt+7IzjuizNtJIBAAAgQ3RfBFKo/vF4q2tiUiGFNwAAAIBUCGVAGmLTC6V27kgpHTvCU4XRqbr47udXcjtfGQAAAIYMQhkAAAAARIgxZQAAAAAQIUIZAAAAAESIUAYAAAAAESKUAQAAAECECGUAAAAAECFCGQAAAABEiFAGAAAAABEilAEAAABAhAhlAAAAABAhQhkAAAAARIhQBgAAAAARIpQBAAAAQIQIZQAAAAAQIUIZAAAAAESIUAYAAAAAESKUAQAAAECECGUAAAAAECFCGQAAAABEiFAGAAAAABEilAEAAABAhAhlAAAAABAhQhkAAAAARIhQBgAAAAARIpQBAAAAQIQIZQAAAAAQIUIZAAAAAESIUAYAAAAAESKUAQAAAECECGUAAAAAECFCGQAAAABEiFAGAAAAABEilAEAAABAhAhlAAAAABAhQhkAAAAARIhQBgAAAAARIpQBAAAAQIQIZQAAAAAQIUIZAAAAAESIUAYAAAAAERo2a/ac6+Z+JKZMicmpU63mEdCfhsnkX46QieNEut+7Kh/ti/RHoQ+USHXtfKmZN1XKSs0iOSENK1+XveYRAAAAokdLWT8bfdtwqVBBYOE/FsRvs2uGS8n3zROQAR2q1Dn85XAZbZZk5PvDZJwKZNqoO9R7YN8dNKpXL5f6Je5ABgAAgHxEKOs3KkDUjJBZ9w1XQWCYWWYbNW24TPvFCKm4zSxA//jLdTl/3r7b/d41OWffHSRKZOIE+17Lth1St7LB3GglAwAAyDeEsn5huslN02FMBYHXrsrH/3RFDli3q3L8vevSrZ4zrsIb1tDXrsvpf7Xfh8HXddFoPyQ79w+uuAkAADDYEMr6w23DrXFLOgQc/7ercuzT69JlfUO7Luf2XZWP1PIDzYM0GPShUab7IQAAADBQUeijz/UUkzj/2hUVyMziDOhxaJMW6m6PZoEKct3Hr8nnKsT1hDuH2Z5ck4//9Zr6/jApqVGhcNowGWWeYa+rv+eW7Xou31ev8bdqP93rnL8uZ/54Vc79xSwINMw6xukLdchyWgtDjvG2ETJ7oXr9dMLYcXfQ7XkfgqRT6KN/3geHev4i9fzp7mM12/uz2l7S82mrXl0v9RMOyfrHDwildAAAAPIXLWV9LV5M4rqczziQ6Qv7AjMOzSyyqAv1aSNk1j+OkMlhBUJUuBmttq2LikxzBQFNj2GbFVYcI8v1Ri8aIQt/oUKIfx31etN+USCzF4V0zTTbmnWfDh/u54QfY/+3jvX3+2Cef4c+J2aRxWxPjz8MO59+pUUyxdwFAABAfqKlrK/dpsKKChzeVpv06KAzS12YW4HutWtWt0eLusiffL/T6nNdjv/TVVeRCn+L0HU5o9Y9bdYdrfZHByDN23KX7XqKc4x6P9+7Jl/t62k50utN14FLv96/XZXTnhYeFT5UoLE2qVvUDvRsT3/PailSx98d2sJo1j/vtEZlzjnHyVrK+vd9cG1PnZPjnlZGp0VRfe/z1C17VkvZXErgAwAA5DtayvrY6GJzJ1PfVxffJgjoMBMPAtpfdIGKq3LGqhw4TCaGtZroi3oVFHqCjkjXp1fl+HH7/qjiXKynwocOCYouYHLMFcg0vd5Hr+nXGSbjZni3N1qFLjuQ6VDl3Z4+bmesXXAg6ycRvg/dn1/zdftU51afz39NVZikRGK190rNXHW3vVNO2QsBAACQpwhl+arEdHU7fs3XuuRQgeCAfWE+avqwgC5wKkToVhbzyK2rI9kFfYbrfd90z1TB6quw8PTpNdG5xbufw6RYPba3l6SVSwWfSEXwPnQd1dU41evdMdzqpjg63TnsyhfKlu310rR9uWzS85O1n5BdLzKeDAAAIN8RyvpYV4e5o8cWmbvpcFrYup31g5yzL94zfe2cckLLuOEyyzUhtvdmuij6OOOlugPDTn6I5H34yzX56N9UkD2vAu8dI2TWL8x5/KU9lizdkNambmfsuwAAAMhjhLK+lg/BCQOPCmbH9Bxq/2bPY3f+vPocqc+QE9Jm1wR8nk4ekDXWBNE7pGF3p5SVTpX6hxdKzHwbAAAA+YlQ1tf+oi+o9Z0kY46SGJVsTJrTSqUu2LMpcpETTujUhUziE2KH3EKKcYxKt3temH4IvJG9D+rzo8fWHfvXq/KRPocqpOnPk67COD3083RO9u5slIbD6i7VFwEAAPIeoazPXZeOz82YozuGh5dO15X8buu5yHbGFcm0sHV6Cmx0q9ePLJQ5oTN0P8Oo9axCFyqs3h9Snl9T5yWdwNXrYBciivdhtPochB6zOt/HnDFs2RaRAQAAQF4hlPWDrn3Xeir0mTmmei661f3bRshsPcfXfa4L/7+odZzQotdxBTYrwMXLrV+XMylKo/ctp9CF69g84UWXtlfH948jpMQscZz78zXTtVPP1zXCE0rd52VWjXu5mzfYlbi3q85Rief1stTf74Ou9nifOmZ1vqwuimobbtacZ6aUftJxbgAAABgwmKes37gv4IOogKFLynsqGKZeJ2juL3udoO/ZgufmynY9W89cXiHOq9f9Y8DrqhAy+xfD7e5/gcL3x5J0ff/cYYmSHVOP/nwf1PLbhsukhf6Jqn1Szs1WIis2LpdlckjWP04FRgAAgHxGS1m/0XNaXZGPX9NV9dwX/9el+/g1Oa4u3BPn43KvYxZZ9DpX5WM991VYWOlnXfuuWuOdzhw33f0c6ljPq9BhzUMWtK+60qA6Dl3MojubY7QqFepxVt5A1a1DoDpvyQJZ+vr3fej61C7ykfhZcY5Ln8/sJssGAABA/qGlDBiUaCkDAAAYKGgpAwaz0nlSW+UfzQcAAIB8QksZMEjFalfIpiVF5pHjhDSsfF32mkcAAACIHi1lwCDVurNR1u8+IW3tZgEAAADyEi1lAAAAABAhWsoAAAAAIEKEMgAAAACIEKGsj+numQAAAAAQhlAGAAAAABEilAEAAABAhAhlAAAAABAhQhkAAAAARIhQBgAAAAARIpQBAAAAQIQIZQDyUkntZvmH7X+Q+6rMAgAZ4+cIAAaGYbNmz7lu7kdCz+N16lSreTT4DPbj85ogj81bJQ/Jfqk79JYcMUvBeclcTH608RmpLG2Xlg1r5d2TZnF5nfz8qQekyDx062xvkS//+LK8uz+/ft70RXHdkjbZs3KzHDXLwsxY/QdZPFfdaX9Fmh5vknP24h5Va+UfVlWqOy1pvd6gFT8Pvs/HgLVI7tv+iNxsHoU6vFX+5fl95kE6Qn6OAAB5h5YyAHloshSVqi/tB+Vz94XkpImBgUwrKq2UylXPyM9r82nC9phMn6cOpP2MdJgl4WIyboK5WzpRis3dHuoC+34dRJS0Xm+wcp0HKZWiSebuQFa1IHUgUzrbTpt76Qr5OQIA5B1CGYD8U27C19dnPK1FJWVl1tcvt/1M/mWl67bhCdmzu936XtGSB2WGdS8fmIti33EEs5/b2W4fh19J7a+sFo9O/e20Xm+QqnrQbvnZ9op0qodFZfkUwrO0f7Pn89xkPsv+z/m/78ywFTjk5wgAkH8IZcih8XLzKHMXLr04L+ULZd3GemnaXi9bakvMwiHAtIj5WwaKy6w/+0vnV/bjuJOtcnTnP0uLdS1bJuPKraXRMy0gX36QRpczcwHdeeigChv+Y1gkC5aUSufhNt04lEWLyWBhWsl0y8/+M1YoG4xCP+eZCvk5AgDkH8aU9bFBP6Zs/HLZNXmGxNIJHR3NMvuzT8wDl8Lb5bHJi+Su4mJ1yWVr7T4qb5/eK8+d/dos8Zo5RQWVySIvfdggz11UC4JeQ21vvdqefwzXTLXPm1Lsc+vpbbLslG/bIfv5+6M75FW9D265OC9K9ep6qddjjCydsmtDozT2UTcke+yT9Iw9KV8k9z1cIzeX6gtEpb1F9ry4WY4GbL+kaq38RF0sW61Clnb5cnezvL9zX5K/0MdkxupfyQ/nltp/zVc6D78iHzQ3SccCvS+lVkvBa/vNN/UFuTU+Jnw8lT0mK3z8THb7qdZT52J6jToXvn1943n/uC91zja6zllSvuMw46S+3P2KFC15QDpdxx4fl7ZNZLF+jue8GOXqfNZ4z6d+z1rCxtk54/NCxyklP98lVXWy4P75rmNVIeLwQev9C/qMuGX7PsTPkXX8ZhxWinFW+fS5PjpJ739ZivFdzviy8M+5V6Y/RwCAfERLGXotreARaII8dmu9fDSnRh5yBR0tNmqGPFSxSl4YbxYkoQNa4Guomz+QLVXba6pIMyy5hG5D7efTc56UXVOcwUA9sj8v0bD/Ot8m59XFolWx7Sl1YegOF/puwoWkDiF/kDp1odxz4aqVys1LHpG6jXUS2L6nA8H2Z1SAcgUIpWjuA7L4qbWyQI/DUhelX7gvJMsXqv1RXw+/H3yhql7zh1aRjKDxM1nup3XBqy5s1bmoDNjXuu2b5UfuFi3d2pVWIFN848Lsrpkq2LxvtwD1dMszrWS7Xxb5oV3kw3NeFB0efv5U4vmUZOPsUraiOOORAsavqe3VrXrAFz7Vtq33b7PcVxWwPUu274Om1lXr6SIo71vHf9ruyjlhYpJ18ulzrc6L9f7Z+xLK6XIY9jl3y+bnCACQl2gp62NDq/ri7fJCVY3c2Z1mlcHxy+UjFZDs1qa98upFp2Vqgiyd8lN5erIudXBUfr1/h7xqfyPObikrlnc6jsqdxTNE1Gv82vcaMwu/liPuFiyzPVGXmC8d+1/xVriZ4++WTRVV6vI7eFvu9d45vU+2nuppfbNa3XTI06/ptNolyPC8uOnuiw/Pk0p1bdW2e4es2Zm0HaEXTKuIvCJNf5xoXYx2Ht4qbzTvk3PWBaQKJ1Xq3fC0uKgLV+sv+qb14H3nuUr5IvnRwyrIqP1O/Cu9s56iLrD3vNjTsmK1TOgLYf3AX4HQtJJ07n7CO7ZGtxAteFB+uMReL3x7me6n01Kk76t1t/2zCgOtZn/UNmvNNsMqJTrbDf2+m7tV6mUZp+7ffMg+Trv1r2e59R4FnBfNes+ed1pxYiqEPCh1ah/1/vtbZ+wWpCStKKEtac6+2ufktfhnQm2v6kHz/gW1Vmb7PtgS9zd5S55tAHyu/cI+5wlytD0AQF6gpQzRObtD6j78rSw7pLv/ubsKfi2vnmqQX1t/ni+RWwqthYF0INNdDWcHvIYnkCkzR9l/237nmApPrm6RR86+JcuO6Uu6GbI4oWVugjw22S4bodd71BXItCPqGOx1i+Wu4sTWsl47eUCefbxB6lY29GEg00yriMxXF3Nl6oJTXRDqi3vnYlRafReuuqugviBUF8Tq4vs13Z0r/lzl5D5598XgQgz2eoq+2FcXi+5uY+f2b5Z/39ZijxUKKfJRtOQZa96l+E23EFmBTF9EP5FwQZ/tftqFNdQdfVG7Uq0bD2SaHsOm9nXDVutiOPCdyajIQmKrVFHZZCsY6dY/3Up2NLBoiLowVxffmg4J1ntmPdLU/qp9tItGlMrNC7zHl3LcUqqWtPaDVkjtoban37+VT1jn2t89L9v3wWa3FnpbfVrlvPtHPlB+fa4tKT4Pzue8sy1ZIMv+5wgAkJ8IZYhUPDgVTpCl4++WF26tl13z6uWjqiflaasmeLHcPNp6RrCO5sSxX71QPsoXrApvk7t0N8Tu/bL1rL0owdkj8o76Eiu5TWbaSwYeJ0CUlkrnNjuAJLdIbrHGulXK4qdcAckTlgLmE4t3MVRBx9P64hUUBuwQEUSHsa3SZF1E+/c7y/10hYA9yVoZ1EW6+2LYw4SazIp8HFDb6gkbM2r0vrXIB/q4nOe4zktJbY11Ya5bVQJbu5Rz7+vCISbkxZny+0lKpc+wutoFhQOzf6UPyE9WL5KShKIqKugkvGa274Ot5zh1OPVLUtglzz7XWvLPg5lCwRM+A/Ti5wgAkJ8IZYiU7jr4wrwn5aM5q+Tpiiq5U4/ZGpU4Q1OY1q6wpJToSLd9aX1nxXJZ6m59K7xdXrC6J6pr7G5fwBtdoi6TlFFV0qSCog6LibcaudN68gDmtIokubj3SHNeJb+SBfPt7VjhI1hwS4Ezh5cKSU6J8A12i4XVYuNv0XBkuZ/xi/l0xvWEsENNmhX04q1S9jF3tLWLTKhxtZK5zp3rvDitXV++nyps+Djj80JbUZzzHbz/R59/QvYcbpeiuY9InRVeNst9tSqgme8nyPZ9sPQEZCuculjnSY9lC5urLO8+16k+D0nG8blk/3MEAMhXhDJEZ/xyadJBzGqJOirvnG6WX3+4TerUbfb+35ruizl0dod5Tbs4RzxUzTGhqqM5vDVskHMCRLoX984Fn+4y555HKejmHheTOkSEtRSYi1V3SDrZJB8cVl9L58v0kJaSbPczZde9lJxQk6Kog+G/YD/Xpkvfq7DR/oq8YfYrsbthmtsIOpaUx+eEg7CWtFYVzNaa+eF0NzlTAMMKZ4ndD7N+H5R4Nz3deuVrtdJjzJLJv891mkU+UnQ5zP7nCACQrwhlyL1RJTLN3A3ntE7pohv2mDA9XkuPCzviGRuWa3bS817K6AIezVIXUD5funRnMkWXrVdBMektVRGPtM5LFDILEG7B4396I6SlwLRg+EPE0Q/0OJ1SqaxZZC8Ikfv9TCUgRIYKuGD/6ox8eViXs3e6Tpr3KEl3w2Axe14vxd1i4oSPsFaUEqfFKNV4JGt+OD2OTAWVDVvly3Ydzn7lrUjpkvH74HTTSyH4dQfA59qv138McKS5PQBA3iCUoQ8kL87h0f2ZvBE4F9kEucXcy5nxy61xai/p4iKeQJVYwCPu4qfydrf6WrxIHkv3mEJlcF4c/TJ5dOYXcFZLjlI0b2Fol7WSqljI98K6m+ny86ZVxBcGQkPE/vflS/117gKxO6B6Zb2fKhRZ47CWPBj4upbyJN31nBaPtASc/5NN8trzm+XdeCuHeY7nvDhjzyrlliprQQJ3sRK7jLwtsdWth1Xl0BQPSQwHi+Q+PY7MPPI4uU9e+6Mdkv3vb7bvgz2mTtHFLHwtVdbNFM/wjpdz5P/n2i+zlr3ebw8AkD8IZcihT2SPdfVTLA/NuNs3bksX8rD+bO01qko2TbndVSBjglVmfte8VfJQ+kPL0mJXXyyWmzOqkvi1PHdat3WoY5pTLy/offUEK12+X+1v1XJZapYkyuK8GNU1djl8rWzJYlkRVtCgN9LsMuXhhKHSB6w5m2a49ktPtPwjPbfXqmdkgS8s2GOARG5etda7TlWd3LdRz7dkP/aHgfAQsU++0F0Yw4JJlvupq15+ae1qpSzeqPfV1XKiS/Cr9fR8Vz8Jmv/LbW6N/Mg1Z5e9TbUf5rHFnP9k44PizwlsKdTn0zc3mHNsVve+dmkJrBBptzDGA4Zax5qbS63z5WH7ffKHYKvghh5HttHeniec6PVNq1yCbN6HeCtZi+wJK2ZhwnPgXGUD4HPtlX7LXm62BwDIJ8xT1seG1jxlSuHdsmuOnvMriHceMGeusUB63jF1JfX05BnyzrHfyqO+sV7OurocftrVF5Pum03Pmfb26b2ekvla0n3V1HovHd0RMk+ZksF5cateXS/18e5bnbJrQ6M0ZtgVK6W050Xycc2PFcQ7Z5bDNbeSX7u6+D5UJouXqMtwT0n1FPNROfuhK9EFVUrMaj8VFQqsebrMQ7/Ow6+o9cIqMzr7bB766DFL8cITZv88y3ySzSlmz2NmHiQImi9MCT0n9vM/X6C3538fbM6+hFLnU1cE7O374BxX8s+l+TwFvfdme/n/uTYPwwR+rrPZHgAgn9FShty6+JYs+7BZ3un2dhjSYeelY3s9wePIqQapO3ZUfc8s0KznmXnH3Mtz4eKn8vuO5B2ZYqNmyEMVq+QF33xlel9nq+N6Sa3vubxTx2mNR1P7GxrItAzOi9ve5kPSYv9RXNp278l9IFNSjS8KtX+zGUdkdtDQYWXPBv+cWY598ppap8W0xFjU+nr+qKbHN5tuZv6WghTd0Pa/bJ+jsIIfWe2ncrLJnnNL7avVGuNQF70t1nxXYYFMa5V3H3/Ce5xKp75gVtt0Byv7/Ad3JXQk62549PmfSZOek8q9KX1O9TQBK0MuytU50cfVw/t8e3vBLTbnduoCH/Z76D4vnc77GHY+M3kfVDCygqar0Emw0/Zxl04U/59MBsznOpXAlr5stgcAyGe0lPWxIddSlrcmyGO6S6TsVwEqrCDHBFl66ypr3FlGLXAAAABAL9BShqHBTALdeu7TJBUSv5bjXYFtMQAAAECfIZRhSIlN/qm8MH6Cq7CIbWbh7fLYrc64saPye1rJAAAA0E/ovtjH6L6YP5be+qTVNTGpVAU7AAAAgByjpQxDxquf/Vbqju23im34Y7JdcGNb6oIdAAAAQI7RUtbHaCkDAAAAkAwtZQAAAAAQIUIZAAAAAESIUAYAAAAAESKUAQAAAECECGUAAAAAECFCGQAAAABEiFAGAAAAABEilAEAolW+ULZsvFeqzUO/WO0K2bK6wjwCAGDwYfLoPjakJ4+evEi+d3+NjJxVKgVm0ZWPX5FvtzbJFfN4qLnhkc1yozofVz7eKh1b95ml6DP6Yv+peVJmHsa1H5L1jx+QzH4yS2TFxuWyrFSkbfebsmbnMbM8N3Tw2LSkSL32DvXa58zSqDjH2im7NjRK40mzuC9U3StbVk2VsvYT0vDi67I3YFvOuZHDb0rd89me9xKprp0vNfPUttR7aFPbXKm2aR4BABAVWsrQNybXSfETj0ihK5BpBbMekOLfrJUbzOOBqKBms9y0NYtjUOdEnw+t4KaJnvOCzMSqFsq6jSukaXt9/LZl9UKpLjdP6Avl02S+uZgvW3JLaKsOMqBDsw5kOhw9HhzItNadjbJ+d6fI3HtkS22JWZqZ6tXLpX6JO5ABAJA/CGXoAzH53v98wAodVovQIz+Tb8ytY3uLXPrwZblkP3EAiskNc9RV3TdnMm/tO31ALn+j77Src3BgyLYW9k6JrFi9QjatmieVpUVmma1s7jypf2qFrKsyC7STB2TNygapi9/elBbzrYydPC4H2+27bbu/oHWl19R7+bBuxdStcalbq3QwazisA/FiWZFx+C6RiRPsey3bdrg+D7SSAQDyA6EMuTd5oYy8SX01XfTc4ePKe5vl2+aB3J1zsozQx5ZNKJNW+etvdDhdO8DPQVRMl7q5Oox1WhfX6+MX1zukYfcJaZMiqfxhX409OieNj9vby3XXxaEoVrvYdAXdk3b3yL3P61BdJMseXigxsywj7Ydk5/6ou4YCAJCIUIacK6icb7WSXTo0CMdM3bHA6rY4KI8t31XNty7irXFAGxrlWXVx3RNtz8nena/Lmg07ejHmCP2nQmr1GDEVkl7IaPzcMdmpuzGWzpNad4soAAADHIU++tjQKPSxSG78TY3ccFOqwRot8u0jm3u6Llrjzh6Qgo+3yjeBRS9i8r3fPCOFN/nWc5Z/46wXkxtqHpTCn1S6CopslW99rXRuBZMXyQ1pFSFJ99g0337esVZuWllpHrh884p0/CaNYieT1XHd/yvvuLxvWuTi6y/LX98L+kz1/rxkQ4/vqr1fdyc0C6RT2g63yAsqHCXupWntEqfQRolUr14sNXOL4sU42g6rC/Xn/UU4nMITuvtZgwpkZnHGKmTd9nukMmWhj57tBUmvGEeJOjfz5dH7x0pZvKtl+LlJVeijevUKqdethIfflPVB57a8QlbUVMp897lsPyHNIcUzbM4+9oy10ue/ufmASE292l4fFfqouleaVk3NrqiJU7wlw6If1avV8UzIpsALAAB9j5Yy9N7kiVKQVmjxKbOLXVxpP20/ThDSVdB0j7TW08Fu6zNyoyt4aAWzHpEba4I6OKmgooJTaBGSrZvle5PNAi2TY/PtZ0FpQs0/y5U0xpMVqEBX/IQ6Lt8+yk2VUrjyGSkOOrZenZds6OBSb8Z3mUUWFQrm3iObtq8IH/ujQsoUFSLWqeCjg4b7TOmxYZs2+rqnxYtsnJD3sg5k/cgc2yZdxMIz9i2NcxNAB7ZkgUx/v+mpe6yunZ5zWTpV6p+qDymOYQdPex/NIsUZm1djxmD1heofTlX/dsrB97PoSuiM7ZubRbEV/bkzdwEAyCeEMvTe6SZXMY+tdkuRbg1yFfiwb+7Wrp7QcqU95O/WOhDpr/5QZsKczPmV3dL2TYt8+8wTZhtPyLcfW89Sr+9OV5rdkqSDjlVsY/sTrn1U673RorZTKoX/s64nyKR9bOrma/260rzW+/3tdomJ0ON16EC20g5T3kIpan/VPmoFP/mVNzxqWZ+X7DhjgpzxXfHiCRvelF1WQYwiWfZU2NxTOizco8Jcp+xyrbt+2wn72/7uaZNM2DjcXwU2esaPuW9WBcCUVCCzjk3dbT/hOT732LdJk+xnpxIvB69b94JayKrutb+v34fdKrS591edzzb1naDiGLoaYdD7t169fy3t6ny7glpuOUU3LsiZrFrgzsm7h/T7MFYm9mW1TQAA+hGhDLkVFqQCFJTa4eiqvmoMEtKS5oQ5qwXrDRU6fqPC3mnnUrVVLv3xlcBtF9T8SgqtljcdqtbKt++1up6n1mveLB3PbJVv/5+QroUZHFsQe7+THK9lkdxoujxe2v4zX6EUtb96H9/QiadURlZ6W7yyPS9ZKV8oj5ogoLu36fFdcSePqUCzwwSzqVITVsJcz0u1slEaXeu27n/dqrCnlZb1rBcrG2vu5b9YbaVY76DVRfJ1z/G5x76l0wXTE8gCu92VyIr7dauT7tap3oed3tCmz+caK+gWyfwFrvdBvX81c/WdxPevVb1/z8bfv74wTiZZP/qdcspekKV0g22JOo/32sfb620CANA3CGXIrZRdEh0xFR7Ul28OquBgL/G7YZ4dTvwtS3aY06HlCelIUsXQuw+LpPAner0W+TbZeK7T+0L3xzm27Ip8OKX0w49XK6ipsQqJXFGh6tv37GV+V1oOWvvvb/HK7rxkKd5y1RIy3uicNP7RbvUqmzfN2xXRosKAHutkHrmdakunNSpflciP5pmw+mKSsUsnU3fb6wlkeg6vkNdyunWq0LYzLOTt/8KaBsDzPqR8//Jba9sFcy8JPfbMmsNuuTqPU63JqZO+JwAARIhQhpyyg1S7XG5JcenjlM0PbXUyoS2hZclZ3iKXA4tdqHBiqj96wpzTyvXx+54ulJlwji15S1eY9ErpO62HKc9fgizPS5aclqu2tvPW10BfdVpd53Ixjid+ET5hXEDAyyemFSjrrnm2WLxLopakdccJV6XzZJNrIm3v7R675c4lrfdvkNGfxTP2XQAA8g6hDDnkBIM2uZKqMSZli5oTYvwtS6nDTWC3yLRb8MJkcGxB0iqln+Y2Ao8ly/MyUOQw4OW9eYut4hu69avBlH/ftLqv5l4bmNLqzhqfOFyP4+u0i55kO78ZAAB9jFCGHEqvNUhLVeSjwISYhNcKWx7Xy/AUyhxbli1t6Y0nS0dMvndvQLfOiM5LWdk4cy+A04qTi3E8TsW9ZGPU8kr2RSjKdLVGM4Zs785Ge4zd3HtkXdC8XE5Y1eXhTaGO0FtAF8ik71+fOS9fWcMiexuwO+Wrr8zdpPQ4PnMeqb4IAMhThDLkTo6KfBTUbLaqD2r+li0nzIW3OIUEwzb7ccFPHrTDS5DJi+z9D+IcW5bs400ViFrlyjf6a6WMvMNakMBdrOSia8xZ1uclS63v21X9ZG5lSGn3ngIUbYeO52Acj1NxTwWJgEqCcXqurqo0QlufXZwfk/esQiVFsixZq0x5Sfj3fEU99j7/pjUmrHJVQBn9eHn4sPchWM/7F1JWvtzphtkXzsmZr/XXbIOrM26vd11EAQDIJ4Qy5IwzZin9QhilUni/KwipUHTjb/4gxT8plUsf26Xfgot8JGlxMi1GCXOBnT4gl03gufE3a+WGya5LYj1J8yOb5aYn0pjDa1aNfO+OnufoSai/90hdeNCzOK1UlVLoev2COxap/TAPjEuH7JL3N6zcLDe6tqPPzff0/GpWsZJ2ueirEJn1ecnWyQPS7ISPp1bIOncQ0sEoPvHyCWnOdHLgEK0797hK7att1la4go2eBPle2aLn6lqVJLQ5rTRWi5trfbXP1VkFhER7mw/ZgUd3O9x4ry8kOvu5PLRLYmKIPSbPmgqKiUHPKajiOiee4yiR6lq1ve2+qQlcLY/1ah/dx+6cR/84tFza+0FARch0OcVN+m16BAAA+t6wWbPnXDf3IzFlSkxOner939Hz1WA/PrcbHvmD3DhLBYZn1spfU3WRu2Ot3GRaw7zs9S9V6gAivtey5xkrvKlFvvXNeeawWtl0qNv+s8TqhXpCZT1/l3nod+XjV+TbrWGVGZ1tm4c+gdtzcfbLL2g9+zyaBwmCzm8vz0vW7MmH7fAVxC637q3u56wT9D2bU3WwbfcOWZMQ6FJv0yoNn6TcfLyqoZ/uAvj8MfMgWPJ9c9GV/56aZ3ffDJR4/KleO77fAfsZekwOq/Lg697znWwf1fNbvp4qlXPD36feqZB1ugBJaKn/cM6xtmxrSGtaAZv53Ejm2wMAoD/QUoYcyXDM0nub5VvTGmZrl0tv6ImS7cAR3N2vl8UsrImg9STK7d71v2mRi7qMfGgg01rlr795Qi569lkFOWuC5tRB50rzPwcer7sLouPS1p9Jx/YW05XR+MZ7frx6eV6yZk+wvH7bIWnxnJZOaVPBYb2egyznF/PubbpL5+ttHpIGa84tsyhE685GWW9N4OyiQ8sHOaxEaBWZMBNF5+jcxFsKrfFl3hYmfUzWpN2HzRgzhzpH1oTSer40//b0Ppp1evQ8f2efTk1wTHaaIiaPZjRGsEJqdfhMNgUAAAADEC1lfWwotZQBQPpSt5r6Va+ul/qsWu9oKQMA5DdaygAAETgnjS/q8Xd6PJxvzFsA3W2xfq5I2+492bfAls6T2nQKwQAA0M8IZQCAaOgulNt0V1JTcMQs9nOPp0s6li9UT/XOylXLXRNrpw6DAAD0B0IZACA6+1+XNRtMxcokFTD1WLxUhViSiY8l9A4LBQAgLzCmrI8xpgwAAABAMrSUAQAAAECECGUAAAAAECFCGXpFd88EAAAAkD1CGQAAAABEiFAGAAAAABEilAEAAABAhAhlAAAAABAhQhkAAAAARIhQBgD5rnyhbNl4r1SbhwAADCax2hWyZXWFeTQ0DZs1e851cz8SuqT6qVOt5tHgw/FhUCteKzfdXGke9Lj05c/k2w7zIEo6zDw1T8rMw7j2Q7L+8QMyID65VffKllVTpaz9hDS8+LrsPWmWR6JAViwvkmVjr8qul89LY6/eY+e1RNo+/E7WvH/ZLM83A2U/AQxsmfx+HXy/l3Qo27SkSOTwm1L3/DGzdGihpQxA1gpuSIg7SotczodANhjoUKkDmahA9nhYINP/OY+Xpr9Xt+WFEp85cPoYe5m6rZtulllGyjqzPN2bd/0cKR4p89UFhVY2Z2T+tgIOlP3EEGN+7t0/8xg68vb3Uqb/H/Vo3dko63d3isy9R7bUlpilQwuhDEDWrpxZK98c/Jm5PSEXL6mFl87IFfvb0Tt5QNasbJC6+O1NFRkHihJZ8bBu5euUXRtUIDNLk7pwJaD176p8dd7czScdl+XgBftu24eX0zu+KAyU/QQwdAyE30tZ/H+kg1nDYRU0lyyWFeVm4RBCKAOQI5NlxA3qS3cehbIBLFa7WJaVqv9wd++Rxpx2Wbwsz/7urNR5bir4Wf/B624z/u+dlWc/t1bMsSvSuMN+/fzuejNQ9hPA0DF4fy/tfV7/8bRIlj28cMi1AhPKAORG8QLRmexS5z77MXqhQmp13/r2Q/LCznNmWZgrcsb8xdTj/FVpM3cBDDYjZJLpvgbkj1z8f3RMdupujKXzpLbKLBoiKPTRxzi+waVg9CK5oaxGRhaVSoFZdqXzFfn2eJP6VRRidEyt8yspdK0jl1rkYtvL8teOoHMXk+/d/owUdm+Vb47rgKPWn/igFJZVura5VW1zX+A2C4rr1HPnyw03lJol7er5B9X2muRSl1kUJOP99CqYuFmKy0Qu/uda+Wuy7bgUFK+VG/Vx6TRnaZdLbc1y8UzwsfVehazbfo9UZlDoI1a1UGrvnyeVzumUTmk73CIvPH8s6fqxqnvl0funSll8vURtu3fImqDQpdZtWjU1/Ps+1T8eL/Ux3Y2lU9a8b85ccaFseXC0lMllafjddym6t6Q7wNz/vAK17TFSExsRL6bS1tolL/zpou/cOOuZhz6e/Q6ktrNgtNrOSCmLv4b6T771orzQcllaczaGcaDsZ4/Y9DHy6Fz39hL59zu2YJxsmiM973XxSFlRWSjzPe/jd+p9VPtsHscFPffCZWn+D/UZS3Z8Ga1n3gfpkvU79Gcp3c9Z70RyXtSxxaaPVu9hgXoPR5hl5jPj3456r7ekeK/j1H7WqfVzof/PS6Y/R97Pi95m7X8vlErnfF64Ki2Hv5NnPw//2Y1NL5TauaPVOmZB2Htg6e3n03nPe45PP7+5Re17pf5d7v89nO3vpd7/HGXz+6X3/x8pTpGuIVb0g5YyIC0qsExToeMHj3hDi1JQ9IAUz98s3xttFrjo0FH8g2fkRt86ckOlFN78jBRPDGicH71QRqqQcqX7tLpfp15bre8KZFpB0SNyY9C6ens3P+AKZJrattrHG3+wWW4sDu4MkNV++hSM0ttskytpBbJFcuPtf1D76g5kWqkKho9I8e113v2IRIms2Fgvm1a5A5lWJGVz75FN21eE9nmvXr1CrZc8kCVT/cOp6t9OOfh+6kCmnVIXHVp7p+s/5o4rKuIq6nunrAU5Nm6krFP/4de7/oPXymKjZVNOiw+Y7czxXxio7cbGyKYHx8m6BdF/WqLYz+ofq4vlu5JfMKWiL7ibHhwjy/zvo7r5L9RCnzt2pNQ/OF62hBxftuuJuqieoi6w++dz5tUf50WHB31s9nvoBDJNvY7+zPz9OFlRbBYZvXmvc6Hvz0svfo7UOazVPxNqm/FApqn7lXcVSdOPR5oFbjq4jFfvgTuQaeHvQVxWn087KPl/bvXz69Wx1fTF+5vVfmb/+yUn/x+dPC4H9QpzbxlSxZVoKetjHN9gYFqurPDQLpe+/Ge52NFqWnJcrViXXpGOT1wtZq5y8d6WrZgUqHWK1Tr69RJalsx6Vy6p30gqXBVcapFvv3hZLnXp86zDoQ5P6q56TbslzeHsp72P38Zbt9T2ih+UG3UASrI9LaP99FAha/4jckPCPgUxz9XnUreKdartOa87epF87xYVfNW57puy+um3lMXL86pw1LJtjzy73wSk8gpZ8fA91ngv0VURV/qKcJhWLr3eLrVeo1lPt7g9qgKeVUnRv46HDoPL1eunep6Lrmyl/vNseds9/sv/V9JknL/EpttSZh6Kev7b30mj+Qu0/quq/k9c8+5LMH3RtmnOiKQtUM5z5MJlafD8db3nr83SGr5+LuTlfpr3PPE9KJRH1QVmsr9IO/va0npZKmPqNax97lL77Oyb2ufiK94WCdf2Wj68KDvf72lBsP6ari/e9L74Pz9ZrZfbz1m6+vW8WFVQVXjQd9V2dh3uih+f3o7VUqSCSXvo8Zn1L6Tz8907/Xlesvs58n5enFYne119LseokGeHNP/nJb49vZ/qMxZvTVMhZsV/V4HSek3/z1L2n0+nFcm/vZjaXq3anh0Mgz4viZx9T9lSls3Pkev9y/T3i7Ou9zXNvqT1/5HN/j9YZNeGxhyPq85ftJQBKRRM/JUdyHToOrjWCjs9v/5a5dKZzdLxnyrMfOHuwqiChwk6Olx0eLoaqvX1Om36z0ClMrLI+zcqp8x8gW7tantCvvlkswlkmtpe2yuu1wpw6aAVGnuo7XWo7R18Qr5NCFbZ76fH6InqV65p3Uvhhmk6kKmgqfblW91N0b0/Xfvkr1/Yx1dwQ5Lt9bVyFaBMINP/IcQDmXbymDQ+vkN2WX/2myo1vtK9MfNnxZZt6j8S13qt+w/Imm0n1L2pckfSfvLjZJIOfO2dGbZwhVS1uhBUASsH9EXT79SFg3MRo7R+/p00mI2VFoX8NTtL+kLL291JHZfa3podeqB70p+IftVf+xkz57flbf97cFHWvK27rY2UO1JMZaAvsPUFXd0OffHr3jffBba+oNIXw4re3rOuC2zNOj5rmyNk/i3u9z3b9Vz6+XOm9f15Ue/fgkITyPRFas9Fr+2K7H1frftyp/dCOWL9cV4c2f4cWQHlT04g0/S5PC/rP7Rbbyqn2vtlKVYBwwQyHYLigUzruCyNO5wCSCOlJqx1LpPPp9pejQlk/u21qu09G99eH8jw56j3v19y9f9RkUyaZO4OAYQyIKlFUmj1QVMhwt0K5qfChHu8VsHEGqvoxRUVqsJae/Q4L/16BaMm2wsMuxugDklPSMeZ8F9fiQFIhahu9eWGB+TGaYukIKE7pQp0vpau3uynxygTyi6l+nW7SIU7/bVSbvzBH+Sm+QG3HzxgvVakJhWJFY0Pt4T8he6cNP5RByyRsnnTJNP4WFqW4zlY1H+udfo/XN9FjFWdK0fjSrzURYX+K7Z55OZ0XcmV1i8uWwPEy+aMkXULRkosrCtRxPJxP1MGllZ1kZtOUCw2cyKpALEzLCR8ftmabqJMXbjHfx6yXS+u/z5nHn19XtRvuB/FTBj4jyStBp7gkwf6/Lz09ufoqhz8Inj/nNeVsQU92xtnuvK1XgxplVK/Qw/bvz9z8vlMub2+0jc/R6G/X3L0/1FrW18l1PxFKAOSMS1A0vm+6Cm40mUHq3a53JnZ34RE/dovGKW/6gmYg9ctKJofGoAuHVfhqrPdGnNWbIWezXLjRBXQzPf9st9PrxuK9N9805g02lRozHdOa1dbW5IJVb7qtP+TLy2SKdYCm/MfSeWqe6XaPeasvELWWd0a1RlvS2+sGJSOi7Lm5S5puTBCKtWF2qYHnYlJ9diSTC/a+lA/72erGa9RedcYqXa/trogXme6JHnGdARoS/eCzLmYHDtaNpkJYBNvpiueW7brRazPz4s4lROvyJl+vTjvnb4/L0pf/xzp8VXmrtMalPS4nKqBrvWyldb28kQufr8gc4QyIBmnBSiNbnk9nGCVouhF4Gubub6STMDsBKmrulUsQasKZmvlm/9U4aytRb2GKZxhhTP/3/l6s59u5nXSmDTa6Zqpu0r2TDodfEvWSpjX9r9uTX6puynWP1UvTdvN7al77IuQw2/Kzv36DtKmLtSe1X9lfblTGj68rC7Y1IWSHrxvLtq2/Djor9gR6M/9jHc9sosmxC92dZEDvbj1u/BWCiCfDZSf98EsD36/OH8cHUoIZUAkYvI9q4CGr8XLaUkKnYA5zSDVZca66YDzn1vl0iUdzn4VWCEyuZD99Mh80uhIx4tloKxsnLkXwOniGDj2q9P61/oLa1yntOx+U9anKKUvcl6+sobxeVvgoHTYY22e3XFe1uiJrV/+Tl2w6a5FY+TRsDEfUei3/bT/4u79nOnCCt/J+sBS3llyWgvUhZgzoXjozT2IP9v1BopeH1+BTMxhy0/eyNX7nsufI6f1TgU8/+9rb+VLnyTrZSvp9vJKP/1+SapTvvrK3B0CCGVAMiZoFJQ9GN7tbrS/e6AZ2yWVMjLkP1x38ZCLru4r8ZakzrAKhmEtaYvscWTmkUfXPqvVTF3lywgr0Dmy308PEyTTaU28csn+9V4wbmHwvioFxSp4mvuhyhfKuo12C9QWX6GNtKQIPK3vn7D/I5pbGVL2vkRW3G93RWw7dNz7n1PVvVI/V1eMapA1KxukLn5rlGd3pgpk2jk587X+OlYmhpTcH0pi05P8VVwPjnfGfER8odPv+zl9jFXFbdfLZ+0L1vgtsbBCr6n9P6h75cYKw8uDB8l2vYEi6+O7LO9Zb9AIWfbfk5T1L3aNfwqVg2CXa71433v7czQp8O9oPYVH2lp7fjbi48xC9zN4vWz1bG9kcJn34jyaELw/f78EKpEfzdMD0C/ImSFSeVEjlAHJdB2Qy9Zgskq58fa1csNo138XerLlaZvlph8kzhl2qVOHIJEbbvbNDaZLvuv5zqziIe1y0VOxUf0XkLRrouIEoPMHvOvpgh16HNnt9vY8oUZtU89zFiTb/Qyig9YNTkucPjdBc6J1mLF5NzxgzUUWf76iJ+a2tnnzM1KY4j/y6pqeucPKliwOnS8skWmFsqomVvT8519e4R3/dfKANFtdEItk2VMrZF2VK/jpkvhWyXr94IQ0+yZ3trtcFMmkBdkX89j7gS4iUiTze/Eag4KujnbXGGuuIKvLkrpIddNlpJ3xDZGO04hgP+3xKeoiLqxqYU45BQ9UiLDmidLHaH/HZpcd3/L3Y3wXm9muN1Bkf3x7W7rsC3Q97mr5GFkx3f0+6vLvar0Hi2ST+jwF8wY777gftV3P6/W3LM9Lr3+ORkjlXWZ7ZokeA9VTFv6yNLsLlXRclGbnHOr9dJ+zZOtlywmrukuges/d75n9fufP+Mr+/f0SoHyazNf/xx7+Irjs/iDFPGV9jOMbBPQEzkkqAl7pfEW+PZ4YWm6Y9gd7PrFAQfN+OfOMtci3BzcHFhYpmGgHpaA5vJzvherc6it5b8t8P/2cecd8/PO2OVzzogXxzpUWrHp1vdUaZbPL1qc7j0nP/GM+h9+UuuePmQeaM1+YeZggZLvlC2XLU3o+snBt7Sfk4B8Pekrme6U/n1puFJgLkKsp5sdJ/bzUc+f0SOe5el6c2rn+iV19rLLifdf9LS/3U13AbnlQzxcUru2Cugj0zH9ly+Q9cnPWC6W2p6u8+T8Xma+X289Zuvr7vKR+D1P8PCZdX5dAD664l6n+PC/Z/Rw5nxf9mdetaGaxR9i57Fk3WNB6vfh8JnvP1PlouTBSKmMp3ncj9fvSR/tphP1+yQXn/+mWbQ3y7BAag01LGZBKV5M9x1dnuzcoXGqRi7psfUAg0y4d/5l0fNkiV9zp6pKeMFmFo4NBQad3RT6unNEFPrbKRd9+6kmorfL6IUEn8/302yff/ucrcsm1/hV9btq8rXlxHZvNODerySrOCrf/6Z8rLdje5kPSYlZv270no4klW3c2yvrdpnuiQ4WkXR/4Ky2ek8bHG2T9tp5t2TqlTQW49StDguDJ49J82B5TFqasdKosW7Vc1oXOV3ZMdu5Wr1E6Tx7NpnvmIKLnxdGD/te/rSuyef86ri8Kdr3d2aeBLF39vp8dl6W5NXmrW9nYkbLsriJZl2K+snS1vn/eGtezS23X8/OjjtcaZ6Ln2wq48Mt2vYEi6+PTlQZ/Zxez8Fb/Vq/TqtZLKCvuo9e3xlkFfd66Im9hyOa89O7n6Koc/A+9rvd86jnPGkJDjl2q3d6eWWRJ8z3IlHnP9Dnp0XM+dvqOOTIR/H7pUSG1+g+n7YeGXFEsWsr6GMcHDCWmdU2StXCVSPXq5VZLX9vuHbLG1/2xh9NSl1lLIIYC8xdwSdbyViDVPy6yxoVk2sIBDCypW4SQiWh/v9g9YYbm/3u0lAFArph+8AnFPzzOyam25C1ptnPS+OIhabPGtd07QMfcoE8U25PzJi8+cKVvJ1gGMDhF+PtFd1u0/2CZWQ+YwYJQBgA5pouP6OIg/lInMV0kZLUzpi2xSEiCkwdkzTbd1XKq1G8kmMGrbM4YqzhBwudMFyn4sTOeJ0dFCgAMKf39+yU+3vvwm0l6kAxudF/sYxwfMLR4i5CE0GPYXnw9/b8E6uIhDxdJs1pnL90YoVT/eLzVdSgpPQYnqMAEMKjQfTHXovj9okPZo2UtssZTcGtoIZT1MY4PGHpiVQul9v6pUlpqJpg2nKqL7+4/l6RbCJAeu1LdSCkdaya4NZyqaO9+foXPGYYAQllf4PdL/yOU9TGODwAAAEAyjCkDAAAAgAgRygAAAAAgQoQy9ApdFwEAAIDeIZQBAAAAQIQIZQAAAAAQIUIZAAAAAESIUAYAAAAAESKUAQAAAECEmDy6jw2FyZWrV9dL/VzzQDqlrf2CNL/4uuw9aRYBAAAACEVLGXKsSMpKp0r9U/dKtVkCAAAAIByhDL229/kGqVtpbhvelF3teulYmVhufRsAAABAEoQy5NbJY/LuoU7zAAAAAEAqhDLkXGvbBXMPAAAAQCqEMuRcrGysuQcAAAAgFUIZ+sgFOUP1RQAAACAlQhkAAAAARIhQhj4yVeo3LpRqKjACAAAASY24acKE35j7kbjxxrHy7beDtzDEYD++IBc+/Vr+Ul4mE6ffLHffNV/+R818+du/OSFvfNplngEAAADAQUsZ+kyZ+QoAAAAgHKEMuVc1X+rnFom0n5CGDTusSaXX7DxnvgkAAADAjVCGnLNL4nfKrhdfl70nCWMAAABAMoQy9BFK4gMAAADpIJShj4yViVReBAAAAFIilAEAAABAhAhlyLnWtqE1BQAAAADQG4Qy5Jxd6AMAAABAOghlyK3yCqldUmQeAAAAAEiFUIZeq15dL03bze2pe6RSL2w/Ie9SfREAAABIiVCGHOuUtsOHpOHFA9JqlgAAAAAIN2zW7DnXzf1ITJkSk1OnBu/l+2A/PgAAAAC9Q0sZAAAAAESIUAYAAAAAESKUAQAAAECECGV9jPFkAAAAAJIhlAEAAABAhAhlAAAAABAhQhkAAAAARIhQBgAAAAARIpQBAAAAQISGzZo957q5H4kpU2KDvkJh9ep6qZ9rHkintLVfkOYXX5e9J80iAAAAAEMWLWX9rkjKSqdK/VP3SrVZAgAAAGDooqWsv5VXyIqH75FlpZ2ya0OjNNJaBgAAAAxptJT1t5PH5N1DneYBAAAAgKGOUBaB1rYL5h4AAACAoY5QFoFY2VhzDwAAAMBQRyiLzAU5w3gyAAAAYMgjlAEAAABAhAhlkZkq9RsXSnW5eQgAAABgSKIkfiRKpHr1YqmZWyRlZknb7h2yZuc58wgAAADAUEFLWYScQAYAAABg6KKlLApV90rTqqki7Sek4cWDsvckLWQAAADAUEVLWQTskvidsuvF1wlkAAAAwBBHKIsMJfEBAAAAEMoiNFYmUnkRAAAAGPIIZQAAAAAQIUJZBFrbLph7AAAAAIY6QlkE7EIfAAAAAEAo63/lFVK7pMg8AAAAADDUMU9ZP6heXS/1c80DR/shWf/4ARliM7QBAAAA8KGlrN91StvhQ9LwIoEMAAAAAC1lAAAAABApWsoAAAAAIEKEMgAAAACIEKEMAAAAACIUeShjPBkAAACAoYyWMgAAAACIEKEMAAAAACJEKAMAAACACBHKAAAAACBChDIAAAAAiNCwWbPnXDf3I1O9ul7q55oH0ilt7Rek+cXXZe9JswgAAAAABqk8bCkrkrLSqVL/1L1SbZYAAAAAwGCVFy1lHuUVsuLhe2RZaafs2tAojbSWAQAAABjE8q+l7OQxefdQp3kAAAAAAINbXhb6aG27YO4BAAAAwOCWl6EsVjbW3AMAAACAwS2PS+JfkDOMJwMAAAAwyOVxKAMAAACAwS+PQ9lUqd+4UKrLzUMAAAAAGITyryS+pUSqVy+WmrlFUmaWtO3eIWt2njOPAAAAAGBwyOvui04gAwAAAIDBKj9byqrulaZVU0XaT0jDiwdl70layAAAAAAMTnlcEr9Tdr34OoEMAAAAwKBGSXwAAAAAiFAeh7KxMpHKiwAAAAAGubwu9AEAAAAAg11ehrLWtgvmHgAAAAAMbnlc6AMAAAAABr/8C2XlFVK7pMg8AAAAAIDBLS/mKateXS/1c80DR/shWf/4AWk1DwEAAABgMMrD7oud0nb4kDS8SCADAAAAMPjlRUsZAAAAAAxVlMQHAAAAgAgRygAAAAAgQoQyAAAAAIgQoQwAAAAAIkQoAwAAAIAIEcoAAAAAIEKEMgAAAACIEKEMAAAAACJEKAMAAACACBHKAAAAACBChDIAAAAAiBChDAAAAAAiRCgDAAAAgAgRygAAAAAgQoQyAAAAAIgQoQwAAAAAIkQoAwAAAIAIEcoAAAAAIEKEMgAAAACIEKEMAAAAACJEKAMAAACACBHKAAAAACBChDIAAAAAiBChDAAAAAAiRCgDAAAAgAgRygAAAAAgQoQyAAAAAIgQoQwAAAAAIiPy/wO6sJFhJ3hRoAAAAABJRU5ErkJggg==;" vertex="1" parent="1">
          <mxGeometry x="1170" y="442" width="869" height="451" as="geometry" />
        </mxCell>
        <mxCell id="BMfPGsOhMgCzCpeU4s8g-3" value="" style="shape=image;verticalLabelPosition=bottom;labelBackgroundColor=default;verticalAlign=top;aspect=fixed;imageAspect=0;image=data:image/png,iVBORw0KGgoAAAANSUhEUgAAA7cAAAG9CAYAAADOYIFMAAAAAXNSR0IArs4c6QAAAARnQU1BAACxjwv8YQUAAAAJcEhZcwAADsMAAA7DAcdvqGQAAGkGSURBVHhe7d0NcFR1nv/7L5C9QDJ/ICSMJDykUQjilDxlQGZTxNKVmVJEUuM/VJipmovzH7Y0tSMWDFVojcVQ4xWqXCh1t4I1zF2pvbWTFFz/FXTQmsHVEi4rigEf/iuCKAEk0YEQ8A4E7vJwf79zfqdzTvc5/ZRO0qfzflW1OX26T5+H7kh/8v09DJk5a/ZNAQAAAAAgxIaanwAAAAAAhBbhFgAAAAAQeoRbAAAAAEDoEW4BAAAAAKFHuAUAAAAAhB7hFgAAAAAQeoRbAAAAAEDoEW4BAAAAAKFHuAUAAAAAhB7hFgAAAAAQeoRbAAAAAEDoEW4BAAAAAKFHuAUAAAAAhB7hFgAAAAAQeoRbAAAAAEDoEW4BAAAAAKFHuAUAAAAAhB7hFgAAAAAQeoRbAAAAAEDoEW4BAAAAAKFHuAUAAAAAhB7hFgAAAAAQeoRbAAAAAEDoEW4BAAAAAKFHuAUAAAAAhB7hFgAAAAAQeoRbAAAAAEDoEW4BAAAAAKFHuAUAAAAAhB7hFgAAAAAQeoRbAAAAAEDoEW4BAAAAAKFHuAUAAAAAhN6QmbNm3zTLQOq+O1Rm/WyojDR3o87fkI//5YZcNnf7VqnU1M2T2rlTpLzMrJIT0rjiDdlr7gEAAAAYHEIZbktrC2TqVHMnRvf5m9J94IZ89enNfgpYqRgik34+TCZIfwa/PpYD4bZmVYM0zDF3ogi3AAAAwGCUd+E2ql8riMnkYbiNM0QqfzVMxvbbdS+V5RuXydIykdZtO+S5/efMegAAAACDUaj73J5//Zoc+Ef37bp8/PoN6dYPjh0q0xYOsZ6HPNZxSHYSbAEAAIBBL88GlLoplz+9IR+9bhejR5ZYP3LCyLFmAQAAAACQdaFulqwrt8c+NSvdnP6gQU1kvztEJv3tUBk7dUi0z6juq3vmj9fl3F/MCl9DpPCOoTJtgQ6rTlX4pnQfvyGft8T08b1jmMxaoF4/lVB7/LocUNvHCTjO8wduyOlPY58f2/R5iLpOQ2WCe1vrOIObDBeqY56W5Ji737suH+3z+8hk0Cw54/fBZvW5HX9I1j15QNrMOgAAAACDU15OBVQ43YQlFZRiQ1bhwmGy4GcqBLoClabD6tSfFcisoKbMKohVqvA48wEd/tzPUfenqvUq2E36rlllZF6tVaGvNvg4JzwwTCrvMCtiqccLzbFOjd126lCZ+fOhUmjuu5Wq/dnnZlb0sYzfh1hlxTLZLAIAAAAYvPKscjtEShcOlQl32YEp7vE7VKBSAU5XW8+/d0O+2tcTfq2qpQ536rEz/3pdTnsqh6YqqRd1ZdFTOe3ZZ3dQJdnZPtWqpjlOu4p5Q879xbuvqWpf+hyO/+N16eltaiq30XCqtn295zj1+enwqiW6Lt5thqprokdEjt2XnzTOMeP3wcseLZnRkQEAAACEvHI79oECWfAr922YFfx0sO0+fj0u+E5a4IQ79ZgrUGmXP71u+uoOkbHT7ec5ClWgtIOtDm4qcHmaBN+Uc/vUtiqI+QfbDKhj+fhfr8lHal89wVaz93X8uH1vZEylOEqFYh1G3cepzy+6XUnM+Zm+yfq6eLdx+i+raxJUKU5b5u9Dj1KJ1N0vtXoaoI4uOWWvBAAAADCI5V2z5G4VQI+roPlRbB/W76qwpBOqevyroBCqwtx59WPktCGuprtDpETdt6qaf0xQkfSE0N677FQs1XGX3jFUKmuHyayfD7NCvD0NkgrxpdYzYujj9K+yXu7M/BhjA3HGMn4flIoFsmV7gzRvXyabFk+R8o4Tsusl+tsCAAAAyKOpgD5+zw5uI8/fjKl2GqV2RVdPETTTU+1130zT4xhOP9TuFAY5yhbdJLjy5+qYfjZMpj5gBl3y9PXNnsud9s+xDwyTUnc1WPfdNU2Zu3sRjD168T7Eale3M/YiAAAAgEEubyq3l/fZ1T6ZOjRuYKfQsfrHqkBrVTh1v9TrVjX6Y3XTQd5pXpw10SbL9mBO0ZCpgrUVMo9fD66y9qeTB2T1ikapX7FDGnd3SXnZFGl4dIFEzMMAAAAABq9ht4wf/xuzHBqFt9vBr/vzG9J51qxUuocNkVsmDpFRk1QmPHxT/sustwwZIiWzhsjf6Gl3/uWGfPUfCW6ebdV2f6sHVVKvf/ymfHvJXpse8xrqRf7f/4gfwdlriFT+7/YgTnpwp0//rM7xlArvar//Zfbtf/5DZPScoTJK7+Mj/+P8m4qh1vW5duamfBPTUbXwdt1ceIh0q+W/sVcp9oBPn/852TFr5hy71WvHXnu3jN8Ht8ty8tP/JX+pmCfzpl2RYy3H5aR5BAAAAMDglFd9bnX19owu344dKhNjB0D6iwpq+rG0K7tqO1PVnPCg/zQ6lu/G9A8NEDgIVKzzN6XTM3CVwzTrzaY79LRBImf0IFammbd9ix/wKSk9FZFZ9JXx+wAAAAAAwfJsQKmbcvqAHQjHLogNos5jKqT+bJhULtTzwdqP2PQ0O8Nk1q+GSew4Tef+44ZV0bT6if58mEy6w933Vb2OCoez1GvOrA3qE+sNyLH9Wks9r2eofU3Tx2juRvejp/uxBpTKHnu0ZBWaA0cnTk231S5cnaP7uPX5ea5z5u8DAAAAAATJs3lutZ75Xrvfuy4f7fOeXqEKTjOteWIDWHPL+syv+t2hKsDazZP9JZmXNeH23nlkEx6jnubnc7GmPPKev3PewcfhvG7cdUl6bjq4qoDumd83XuBx6ybIMaNXZ/w+RJXK8o3LZKkcknVPMmIyAAAAMNjl3VRAPZVBkZF3DY2r/l3ep4KWCn9njt+0q7EOHd5U6LPmsfULVH+5IR+pAHr8PbWdVaF0qPsqvH2s55UNDGKK3l7t97zaj5sOjbpvrXvqHn2MH78esx/rebqfqgrBZnTjrPmLem11PRLRIzVPeGCYVCaY79Y6bn19zH2LPu5jZtkl4/cBAAAAAHyEsnKLbDIVX7mhAmXQPL5DpLTW7pfrVw0fGFRuAQAAAPTIw8ot0vJdPUqyCq2fJxo4Sj2WrXlus61srtRV0zsXAAAAGOyo3A520f62N+X86zfkq0+9IbdQhV89xc+Eqbp/rLdv8ECL1C2XTYuLzT3HCWlc8YbsNfcAAAAADA6EW0QH6EpI951NOMDTwIjU3S+Pz50i5WVmBeEWAAAAGJQIt7AU3jFUJi4YYg0c5R412RklWc+5m9Z8twAAAADQjwi3AAAAAIDQY0ApAAAAAEDohS7cTp4cMUsAAAAAANio3AIAAAAAQo9wCwAAAAAIPcItAAAAACD0CLcAAAAAgNAj3AIAAAAAQo9wCwAAAAAIvSEzZ82+aZZDQU8FdOpUm7k3WIyXJ+aulEdGirSdbpGlpz4x69PhvEanvPxhozx/yawOnYj8YOOzUlXWKntWbJajZm1S1WvkH1ZWmTs9vtz2E3l9v7kDAAAAILSo3IZB0R1yjwq2WmTSDFliLw5Sk6S4TP3oOCOd9oqUlJaXmyW3Vvki14JtRb38dPsf5B98bj/duEZ+UJ178zyX1m1Wx7dGppv7AAAAwEAg3IbBpU/l7W57se30EXnNXhycKiZIsf759Rk5Z61Izbmda+SfV/zE3J6S1g61Ms2A3C8mmvPzUVxWJVUrn5Wf1uVSwI3ItLlluXktAQAAMKgQbkPha3n+0G9l1v7fZtgkOX+Uzp9nhb8vP9hnr8iIqf6mGZD7g1Nh1s2le8K4uq1/Svbs1olchdzFD+dQlTR3ryUAAAAGF8ItsqNigazd2CDN2xtkS12pWZl9JeVWm2Tp+sq+n5Hq+XKr+tG7gNw3As/vZJsc3flPdsVZymVshbV24OXwtQQAAMDgwoBSOadn8Cg/bae3ydJTX5t7fsbLjHE1smnSdImY12jr3C+/P/2WyKSn5ZmSvhlQqmZVgzTMMXekS3atb5Kmk+Zu1ngHk+qsrpf5Dz4kt+o8qHR1tMoHL22Wo0n2q/uI1i8WaV2/Rt5N9Fzd/3XDQ1J8eKv88wt+4S354Fal1WvkRw9W2dVNS4d8ubtF3t+5z6fSmfz1pq/6gyya0xF47Ontr0dpxUKZVlsrt84pizaL7jr8qvzpheaY7RbKAxvV88qiO0ggzUG/AAAAgF6gcptX7GDcXNkTbLVISbU8M7tBflFoVoSWaQJ7+IyM3fgHqV/ZE2w13Sd10YbN8oMkVU27Otou55OFb9P/tav9tH0/TqLBrXQI1MfoDppamdy6+DGp31gvcfXtigX2+Rx+3z8QqrD9ff0HhI6D8nncsWewP0tEBWYV9jc8JlWuYKsVz3lI6rfHXE/d5zmlYKvQDxcAAAD9iMptSMyY3CDNk0oSVm6X3K4rs3qpU9459j/l8bP282YU3SmPTa+Vu63A20dTAelmyY/OlSqVe9p375DVO/ugB6ZTSbXudMiX2/5J3t/fZlcWK1S4e/QxEw6DKq2aet529byEz7HZFd6y4OmCAiu7Zh9O1fT9fXLOCaPqOH+gjlNfp7jXNdMVde1+Sv5tp+szXqEC6PyH5fuLVXBVd+OPJ8P9RSvFejnmeurQW2f22fGqND8ZW8HVzH4DHwcAAAD6D5XbfFF0r/zCBFsdXp1gqx259Ik8fmibvGxGXO4TJw/Ic082Sv2Kxr4JtoozmJToMLVijQpqThBTTu6T1196Vbr08vgJAVVKxYy2HFyN7ZG0f29AZXf6Kh00W2XPenWMujmwu8qqjvNdc5zF5d5Rj53BpIoXP+udBmjDs7LICrY6vD4VF7Qz3l/dL+1g63c9Rffx3Sz/tn6r7HkpILhmOHI1AAAA0BcIt/misFSs6NK5L/tV2RzhhM3WoLB18owdbhOJBtJk1f+IjB2vfvg2AbZN/36V9dP7WgvlNqvvsW4i7QqonrDqVJ+97PPzo0PtVmm2wmvscWe6v4Uyf7HenwrFiaquKhwH9mE215LBpAAAAJALCLd5YsZIu1bZdvms9TP/mLCZSl/ZBOxA2ipf+DUzdnP6vwZWJZ3jiansmtGD0+e8nh6EyZn+x1SiVcC2BoTyO+9M9+dUXYP696bAvpa9HLkaAAAAyBLCLULCGUwqQRhL2kzWqcamMNBRyoNJeSu7gfPU+tw8/Wr9zu9ks3xwWP0smyfTAgbJynh/Sc8vmez8sQEAAADIFsJtnokUjjNLeSaFvrLTa+3mt8HNZE2ATKGPqBMag5ovlzoV04DXiu3fmpR5vdjzO/pBq/pvmVTVLrRXBEh7f72Wwh8bAAAAgH5EuM0TRzo/EyuGlcyQJdaaGEXj5NaAuXOzQo+WvLFBmrc3yJa6wOGcMhYdTCqAnt91kdX3NEGT44AA6SfRYFLWKMornf623tc6195u/SyeuyBwUKvS6kjcY4Fhev/78qX+OWe+TLdWeGW6P/nK7p9cvPhh39e1VCxMOjAXAAAAkCsIt/ni0qfytjUa8nR5Zu4yWVJkrbXMGLdMds2ulbvN/b5QU2tPA6SVL14ky5PMNZsuZ7AlPZLwT+vcocvM02rC5pfbNietJOogON05Pj3Njgp//uyKaXRferohPZesnh7ocIe1KjCMlj1kzS0b3Y9SqqflsY71WZlfbVYawWF6n3yhmyZLldwWs40lw/3p0a2/tE6hShZtXKO2c10DfU3Udv+w4TH5UV2SivCcWvmB6/rZ+1THYe4DAAAA/YV5bkMilXlu9XRAu2ZXq7jno/uovHN5utxd0jfz3NasapAGq3Kqdcmu9U3SlLW+mGY+VmlVQa7KHugpjj1Pq57OJpgzH2wMv3lazZyz8Tqkdf0a+Xy+ngNXrOV3Y88zcFtb1+Gt8qcX9rn258w3qweT8gnnzusFzSeb9v4Mz7zB8boOv6q2CxpJ2T1Hbrz4OXUBAACAvkXlNp9cekuWftgiL3e6h0vqlHdOt0j9oR2y9XLSYZQytrflkLTaxUxp370ni8FWs/t3dh16RV5/8inZc7jDNeWPWlYhzJrjNWGw1fbJ6+tfNRVLW1dHq7T+8UB8gNu/2dpPDzMdzwo7zNqV1oDBlNS2/7x+q9qPe3s7LO5Z/xP5t7ig6QxOFTDQ1f5X7GsbNLBU2vszTjbLv62IvZ6KvibbnlLbJZgiSNrkXfVetHqukX099T4JtgAAAOhvVG4BAAAAAKFH5RYAAAAAEHqEWwAAAABA6BFuAQAAAAChR7gFAAAAAIQe4RYAAAAAEHqEWwAAAABA6BFuAQAAAAChR7gFAAAAAIQe4RYAAAAAEHqEWwAAAABA6BFuAQAAAAChR7gFAAAAAIQe4RYAAAAAEHqE27w2Xp6Y+7R8VP207Jp8p1mXLuc1GuSJIrOqV7L9egAAAABAuM1vRXfIPSPtxcikGbLEXuwDJrDOvVdmmDUAAAAA0J8It/ns0qfydre92Hb6iLxmLyIDkYpKWb5quTRvb5DmVZVmbWKR6gWydqN6vt7Gui2XtXWVEjGPB8l0OwAAAGAwI9zmta/l+UO/lVn7fytLT31i1iEdNavsgLlpw32ydE6xWZtcpG65bFo5V6rKzApLsVQtvk82bVwQGFQz3Q4AAAAY7Ai3yIJxcqtp/txvKnqqm1vqSs3K7DvV8qY0bjO33V1mbRLq2B5frINwl7Tu3iHrVjRKvb6tf1NaO9Tqsrmyya/6m+l2AAAAAGTIzFmzb5rlUJg8OSKnTrWZe/llye1PyzMlIu8c+608ftas1IrGW31Zj1z62r5v2M/vlJc/bJTnL+l+ryvlkYCQ2XZ6myw95d3eS+1jXI1smjRdIuY12jr3y+9PvyUyyb0f+zEZt0x2uZ6bUGeLzPrMqRw7x9lz3Etu/7H8oqQkWpXU+1332VtyxNz3oyuqDXPMHRUGd61vkqaT5m5fqb5fmldOETn8ptS/cMysjOccW7sKqKt3njNrHZWydvt9UuVzzJluBwAAAIDKbU45frnT+lkxcrz106bC4PSV0jx7peya7F1/W6H60f2Z/MkJnBmzA2dzpTesRkqq5ZnZDfILvR8fKQXbRArvlBfVfp9xBVtN77c5tINTVcpdVug+IS1xAVU7JjutCnCxTJxor7Fluh0AAAAAjXCbQ45026EmUjjO+mlxj3jst/7yWVPh7Olf677Vn7YDcyJLbncqvp3yzrFtPdt+2CLvdKvg6Rdiz+5w7Uc9T6/r3i/10XWuW7Rq61Yij1TWyt26guve57Gj9sMjq+Ux1+nG2ttyyG6qq7Tv3pM7lcyKsWJ1lz38hey1Vtjc4b2t/YL1s6zc1Zw60+0AAAAAWAi3ueTsETskqhAbrVoWlqqAc1Te0Rk1br0KPCrc9krRvfKLEr1gNxN+/GxP0+Ujlz6Rxw9tk5fNiMtZ131Ufr2/UZ5371OF5l+bPO6tYMc4eUCee9LukxrfhHcATSyWcvWjvf28fd9qTtwgm9x9g7/qknb1o7x8rH1fy3Q7AAAAABbCbU45K1/qIDmyVKbaK2RJyXQVAs/JHt1keeTt8qMie/0M9RztZHeifrQpMCFZOvf19KftFypMH93hOz2R0zw7L1TfJlVmMa1Qmul2AAAAwCBFuM0pX8sXl/XP6bLIapJr+tVePiuvWU2WS+RW0/91aqEutx6VPb0s3DohudcVYHhEA+n+g7LLaj7dJa0fBA9C5ch0OwAAAGCwI9zmGO+gUvYUO1bwvHxO9BjR9vo7ZZHOtirwHlc/kENM0+Ee56TJaj7dJM/tN6vimiArmW4HAAAAwEK4zTFHOj+zQqw1eNS4GXK3WraaHl/6VN7uVutL75AZReOkQj85OphU73kGq8qUqzn1oHXyvFgF1zm3SY21Il6kfIz1s6Pd1Vc40+0AAAAAWAi3uebSWbEG/lVhc4nVZNhpemyaLOsAma3BpBQnTEvJDFlirYmhgrSuHqemVG4zfYL7XMUCWbuxQZrdAy7lhGPy3mH9c4rU+h5XpdQtLlY/T8h7TkXWkul2AAAAADTCbc7pGVRqke5X62p6/FqnniZHrTejG7/d2cvBpDRTEdb9fJ+Zu0yWuMLpjHHLZNfsWqt6nNgnssdqTV0ij0y/1/MaUjReloxLMOpxhmpq50qVNXeOSPniRbLcKmXnBj1NkTWq8eJlKnhX9kznU1GpAvl99kBRMVP+aJluBwAAAEBkyMxZs2+a5VCYPDkip05Ztca8teT2p+UZK8AqnS0988QW3avCZrUJPXoaHf/Rht1mTG6Q5kkl0nZ6myw9FRCGPa8bo/uovHN5utxdYk8VFDiicqLX8BzreHlirp5XN/j1UjnmmlUN0jDH3JEu2bW+Ketz3Xr3kcDhN6X+Be+gT5G65bLJqrT66Dgk6548YFfMY2S6HQAAADDYUbnNQXaF1vZOpwm2mtNkWcvmYFKX3pKlH7bIy53uKXg65Z3TLVJ/aIdsTWVqHvMa73R7n9umwvHLx/YmDeHp0lXOVquTqkj77j1ZD7a91bazSdZt08fYZdZoXdK6+82EATXT7QAAAIDBjsotAAAAACD0qNwCAAAAAEKPcAsAAAAACD3CLQAAAAAg9Ai3AAAAAIDQI9wCAAAAAEKPcAsAAAAACD3CLQAAAAAg9Ai3AAAAAIDQI9wCAAAAAEKPcAsAAAAACD3CLQAAAAAg9Ai3AAAAAIDQI9wCAAAAAEKPcJtzxssTc5+Wj6ob5Ikis6rfOcfwtOyafKdZly25cH4AAAAA8g3hFvGK7pB7RtqLkUkzZIm9mENMQJ57r8wwawAAAAAMboRbxLv0qbzdbS+2nT4ir9mLyECkolKWr1ouzdsbpHlVpVmbWKR6gazdqJ6vt7Fuy2VtXaVEzONBMt0OAAAAyAeEW/j4Wp4/9FuZtf+3svTUJ2Yd0lGzyg6YmzbcJ0vnFJu1yUXqlsumlXOlqsyssBRL1eL7ZNPGBYFBNdPtAAAAgHxBuEUIjZNbTbPptFX0VDe31JWaldl3quVNadxmbru7zNok1LE9vlgH4S5p3b1D1q1olHp9W/+mtHao1WVzZZNf9TfT7QAAAIA8MmTmrNk3zXIoTJ4ckVOn2sy9fKT7k66UR0Z2yssfNsrzl8bLktt/LL8oKYlW39o698u6z96SI+Z+nKI75YlJC+Ue9zbdR+X3R3fIa5fMiihnf+ZujLbT22Tpqa/NPX8zxi2TTZOmSyRB4Ox5nQzPT+1jV5J9RHW2yKzP/CvOuqLaMMfcUWFw1/omaTpp7vaV6vuleeUUkcNvSv0Lx8zKeM6xtauAunrnObPWUSlrt98nVT7HnOl2AAAAQD6hcpvLCu+UF1UQfMYV/LRISbU0BwymNGNyg3w0u1Yeid1m5HR5ZrYe/Xi8WZMdS25vkObKFENnrDTPL6N9hEal3GWF7hPSEhdQtWOy06oAF8vEifYaW6bbAQAAAPmFcJuzSuSRylq5W1c4j22z+r/qW/2xo/bDI6vlsXH2YtS4ZdI8qUQtdMo7p1uk3mzjbKfr3ZFJP46Zgqenf637Vn+60zyegNqfDqZ6f95j3G/tS+So/Nqsi6/+pnl+Z3dEnzNrf4u8o9d17/ecY/QWULXV9rYcspvqKu279+ROJbNirFjdZQ9/IXutFTZ36G9rv2D9LCt3NafOdDsAAAAgzxBuc1m3DoeN8vzZnmB4RIW8X5vcWTHSXYUdL09Mmm4tvXOsUR4/9YmnWa/ebqkVHEvknpLsVG9njLTDkt6f9xjfMvuaLotiA7hbWueXJScPyHNP2n1S45vwDqCJxVKufrS3n7fvW82JG2STu2/wV13Srn6Ul4+172uZbgcAAADkGcJtzuqUl3UfWXPP7fhln6qqMzdt937ZetZeFefsEaviGSm9o9/mhw0OqGme32BTfZtUmcW0Qmmm2wEAAAAhR7jNF4WldlPUkdXSXP20fOR7q5W7rSdnx5Fuu/J5d+UyWeJu6lx0p7xYaVeRT3bHNkdGItFAuv+g7LKaT3dJ6wfBg1A5Mt0OAAAAyBeEW2Qu2oTYHqwqGqJnmxDd2RJcRYaXaTrc45w0Wc2nm+S5/WZVXBNkJdPtAAAAgDxDuM0Xl8/ZgzjpaXD8Blly3w4lmEYobXYTYu/kTGZAq8+8/X6zbmSpTDWLoXfyvFgF1zm3SY21Il6kfIz1s6Pd1Vc40+0AAACAPEO4zReXPpW3u9XPkoUxoyH3IWu0ZJGXP/ytLPUE6PgBrfpGqdyW7rlWLJC1Gxuk2T3gUk44Ju8d1j+nSK3vcVVK3eJi9fOEvOdUZC2ZbgcAAADkF8Jt3vhanj9tj4b8yOwGeXHynTLDE/zGy5LJy2RX9TJZYtb0lj1aconcmqXRl1P3ieyxCsbqXKffG9PfV53nuODjqamdK1XW3Dki5YsXyfIKezkX6GmKrFGNFy9TwbuyZzqfikoVyO+zB4qKmfJHy3Q7AAAAIJ8MmTlr9k2zHAqTJ0fk1ClvI9j8Ml6emLtSHtHzv37YKM9fMqtdZkxusOazbTu9LW7+WOexQN1HrVGK/V7XLdE+oorulV2zqz1zqsZqU/t7+/Re13Q/vTu/qIT71lMM+Y/EXLOqQRrmmDvSJbvWN2V9rlvvPhI4/KbUv+Ad9ClSt1w2WZVWHx2HZN2TB2KagNsy3Q4AAADIF1Ru88yRU40y68MWebmz0xtmuk0/2EPJg23KLn0qv1f7SSQycro8UrlSXkw0320mLr0lS9V5vqPOy02H6ZeP7fUNtpqucrZanVRF2nfvyXqw7a22nU2ybps+xi6zRuuS1t1vJgyomW4HAAAA5Asqt8iQqcDKfhWYgwaoGi9Lbl9p9ctNWIUFAAAAgF6icovMFN0h94xUofXcpwkGjvpajl9OXNkFAAAAgGwg3KJXIpN+LC+OGy8zzH3HjKI75Ynbnf6/R+X3VG0BAAAA9CGaJSNjS25/2mpynFCKA1gBAAAAQG8QbtErM8bdK49Nul0qRpZ4Ri52Rkn+09mv+2G+WwAAAACDHeEWAAAAABB69LkFAAAAAIQe4RYAAAAAEHqEWwAAAABA6BFuAQAAAAChR7gFAAAAAIQe4RYAAAAAEHqEWwAAAABA6BFuAQAAAAChN2TmrNk3zXIoTJ4ckVOn2sw99FrRvbJrdrVEzN2o7v1Sf+gtOWLuIlUFsnxZsSwdc112vXJemjrN6mRKimTLw4VSbu5GXbgs63ZcEj7xAAAAQGJUboFAOqiOk+a/V7dlRT1/AJg2yl6nbmunmXWDCtcFAAAAuYdwO9hdekuW7v+tzIreWuQd8xBcLlzzqZ5el6/Om8Xe6rwkq393Vuqjt2+l1TyU0/r6ugAAAAApItwCAAAAAEKPcItwqlggazc2SPP2BtlSV2pWZts1OXPBLLqdvy7tZnFw4roAAAAg9xBuc9p4mTFumeya2yAfVT9tbg2y6/Y7ZYZ5hp8Z4+6VF+c6z09tm97IZH8zJutzapAnisyKojvlidvVdtHXeDrha9TUzpWqMnu5fPEiWV5hL/eV9gvXzZKbCnlJBoyKlAyXtcvGRvuiNqvltdMKzKNZoAeiiu376uH0jx0ry0vMqljqGJf/cKz9Oua2ZdkoqQl6vkum1wUAAADINsJtrlJh78W5K6W5crpERrpTRokKTLXS7A6GUePlCRUymyur5e6RZpUl0Ta9kZ39WUF3dq08UqK2M+s0vTzQozWfMuGto+ua9dPSeU069E/12Clrhb+JVWNl08OjpGrMMLNGUctV9xRL8w+HmxUDKzJfBW91jEsjwzwjNZePGS4ND6uQO98/iPfmugAAAAB9gXCbk1SwVWHPCozdR+XlY9tcAz5tk1+fPiptKkDeWmg/2zFj8o/lEStkdso77m0+bJGXu/X6Enlk9jJZohezoPf7U+cwaZk0T1LhXZ3nrz/0nmf96U/M8+LtbTkkrVaSEmnfvUeaTtrL2dbmDm9R1+Urv2a5HirEqsDY3nZZGl9xBonqksYPTaUzMmrgRxSeNko2zdbB+7q0fvitrHMNaLXu7atWE+Py2aN8K76ZXxcAAACgbxBuc9CMyQvlbr1gzTW7Q54/+7W13va1vHZqhyxVQfDxs2aVVnSvbNIhUQXNlz9sVI+5trn0iTx/aJsJnNPlF5PHW6t7JUv7u7tkurSdVqFWnedrl7zneeSSWfRz8oA892Sj1K9olNU7z5mVfSVg9F/fkYJ7tH/YJav/fEn2RpvoXpO975+XdSbgVk0ZyOptgSyfY++/9e3z8tz7Vz3n0vb5t7JaBVwd0ufdFtSMOrPrAgAAAPQFwm3OGS8/KjWh8ehbwc1yPUFQKSy1m/R27pPnfUPh1/L86aPWUqT0jt73v83W/jpbZOmpmHPJJSrk1f/uvDR5+pBek6YdZ6X+zzr8BbkuB7/wq26q4PiFXRWVMQUB/WT7QclwmTdG/bxwWXZ+bq+K8/lVazqi8sjw+OPM+LoAAAAAfYNwm3PGya1WU99z8kWiymWMGSPtEYPbLrvLuTEun7Mrauq5U60VmcvW/hJun+/GDJPJZrHfjTV9bMcUyibXQFLe2yipsp4MAAAA5D7CLQAAAAAg9Ai3OatUbstgZONI4Tiz5MNpStx9To5bK3qvv/eXF5yq6UCOKuzMSdummxf3DCTle9txiT60AAAAyHmE25zzieyx+jGWyCPT7w3uq1o03vPYkc7P7ABSsjBg+p3x8sSk6dZS27lPk0+xk6Tpctb3l66KBbJ2Y4M0b2+QLXV2E+ncMkwmjjWLHj0DObW3eQdx8pWs6bIz/U7A8yLzR8lS3bc2VudVOahHNo4UBc9/CwAAAIQI4TYHvXZ6v+mrWi3Nc5fJE+Pcow2rUDtumeyavVKab7/TrFMuvSW/d0Lx7AZ50b1N0Z3yxNyVZtqeo/L7hAM4nZUvo6Mc39kToNVrLHGH2KztLzM1tXOlqsxeLl+8SJZX2Mu5pOoePU+sazCmkuGyfFmxCZtXpeV9/wGnbM60OsOlNuY1ajxhtOd5DT90P0+F6B+ONVP9+LkmTYft0ZCXPjxW1up9eF63QGpUMN7y96OkxqwBAAAActmQmbNm3zTLoTB5ckROnRoEjSSL7lUBtronrMSxp+DxjlQ83hUq/fhtE2/G5AZ77tlYnS0y6zP33LOZ78/Zh54GKJPRkmtWNUjDHHNHumTX+qY+m+s2PSpUWgH2urRfGCblflVTFUh3vRI70nC8yPyAcKqbErtHJJ42Sprv8Z9WSE9H1DKmWBoi/vsM3IfjwlXZ9e/fJj1WAAAAYKANu2X8+N+Y5VAYPXqMXLxolary23+dkObTx+TMkO/Irf9bqYz5G7NeBca2zj/Lo4d3yx//y6yK+qsc6Ngr71wpkHGFkyWS0jbxzl08KO8MGS/fH632a9ZJ91F5+esjcuDyX80KLfP9jRs9T/776EK58O0hab7ofs3UnPx6mEy5vUzK/5sKcLtfk83/cdk8MtCGyp3fGym3X7ki/8eOC/LmtwVyR3GB/LcR9qPtbZfl/1JhcXcKYfHCmW75YJjafrza3qyzwuaR/0/+1/kbZoVy/qp8ELMf/bzG3V3yu+M3ZEjJCLlvvMjRI93yv6yqfA+9j/+77br8TWGBjBoz1LWf69L62V/lxT9flv8nZhsAAAAgF1G5BQAAAACEHn1uAQAAAAChR7gFAAAAAIQe4RYAAAAAEHqEWwAAAABA6BFuAQAAAAChR7gFAAAAAIQe4RYAAAAAEHqEWwAAAABA6BFuAQAAAAChR7gFAAAAAIQe4RYAAAAAEHqEWwAAAABA6BFuAQAAAAChR7gFAAAAAIQe4RYAAAAAEHqEWwAAAABA6BFuAQAAAAChR7gFAAAAAIQe4RYAAAAAEHqEWwAAAABA6BFuAQAAAAChR7gFAAAAAIQe4RYAAAAAEHqEWwAAAABA6BFuAQAAAAChR7gFAAAAAIQe4RYAAAAAEHqEWwAAAABA6BFuAQAAAAChR7gFAAAAAIQe4RYAAAAAEHqEWwAAAABA6BFuAQAAAAChR7gFAAAAAIQe4RYAAAAAEHqEWwAAAABA6BFuAQAAAAChR7gFAAAAAIQe4RYAAAAAEHqEWwAAAABA6BFuAQAAAAChR7gFAAAAAIQe4RYAAAAAEHqEWwAAAABA6A2ZOWv2TbMcCpMnR+TUqTZzD+hPQ2TSz4fJhLEi3e9dl4/2hepXJwWlUlM3T2rnTpHyMrNKTkjjijdkr7kHAAAA5Coqtzmu8I6hUqkC1YJfFURvs2qHSul3zROQBh1O1TX8+VApNGvS8t0hMlYFW23kXeo9sBfzRs2qZdKw2B1sAQAAgPAg3OYsFcRqh8nMB4aqQDXErLONnDpUpv5smFTeYVagf/zlppw/by92v3dDztmLeaJUJoy3l1q37ZD6FY3mRtUWAAAA4UC4zUmm+etUHWpVoHr9unz8j9fkgHW7Lsffuynd6jljK72hF33tppz+F/t9yL8myUbHIdm5P79iOwAAAAYHwm0uumOo1a9Th6nj/3pdjn16Uy5bD2g35dy+6/KRWn+gJU8DVh8aaZoVAwAAAMgvDCiVc3oGLTr/+jUVbM3qNOh+uhMX6ObMZoUKxN3Hb8jnKgz3hGSH2Z/ckI//5YZ6fIiU1qpwPXWIjDTPsLfVj7llup3Ld9Vr/K06Tvc252/KmT9el3N/MSt8DbHOcdoCHVad6nXAOd4xTGYtUK+fSqg97v6DQc/74CeVAaX6531wqOcvVM+f5j5Xs7//UPtLeD1tNasapGH8IVn35AFhyDYAAACEDZXbXBMdtOimnE872OqAVGD66ZpVFhV4pg6Tmb8aJpOCBqJSIbFQ7VsPXjXVFag03cd3ZtAgTBluV7hwmCz4mQpzsduo15v6swKZtTCgybXZ18wHdIhzPyf4HPu/Wtvf74N5/l36mphVFrM/3T876HrGKiuWyWYRAAAACBMqt7nmDhX6VHDzVhFTowPjTBVwrGD8+g2rObNFhaVJDzpVyJty/B+vuwZDiq1Q3pQzatvTZttCdTw6SGreSnKm2ynOOerjfO+GfLWvp5Kpt5umg6t+vX+9Lqc9FUcV4lQwtHapK7wHevanH7Mql+r8uwMr3mb78051NH3ONU5Uue3f98G1P3VNjnuq3k6FWz32efJKs1W5ncPUPwAAAAgnKrc5prDELKTruyrEmEClQ2E0UGl/0QMhXZcz1ki/Q2RCUBVPhyMVuHoCo8jlT6/L8eP28siSbGynQpwOW4oeKOuYK9hqeruPXtevM0TGTvfur1CFVzvY6nDq3Z8+b6cvsn+w7ScD+D50f34jpjm3urb6ev5LsgGwSiVSd7/UzlGLHV1yyl4JAAAAhArhNl+Umiasx2/EVDsdKlgdsAPOyGlDfJq2qjCmq37mntvlzkTBKM3tvmuaXauA+lVQCP30huj85z3OIVKi7tv7S1B1VQFyQA3A+3D5qB49W73eXUOt5seFqc6BXLFAtmxvkObty2STnt+244Tseon+tgAAAAgnwm2OudxpFnTfS7OYCqfi2+1s7+ecHYLSfe2scsLf2KEy81cFssD3Zpoex3D6k3b7hsbcMCDvw19uyEf/ekPOnx8iY+8aJjN/Zq7jz+2+tqmG3XZ1O2MvAgAAAKFDuM01uRBAET4q4B7Tc/D+qz0P8vnz6nOkPkNO2J1V6/N5OnlAVq9olPoVO6Rxd5eUl02RhkcXSMQ8DAAAAIQJ4TbX/EUHE72QoE9mAiMT9dl1qqYq+GQymFJWOOFdD5j1jyqMJboFDPo0MtVmt0H64Q8HA/Y+qM+P7nt87F+uy0f6Gqqwqz9PetTkaYGfp3Oyd2eTNB5Wi4yWDAAAgJAi3Oacm9L5uemTedfQ4Clj9Mi7d/SEFaffpUwN2qZnIKdu9foDFm6d8B54nEHUdtaASir0PxgwLZGmrksqwbXXATnAQLwPhepzEHjO6nofc/r4ZjpYGQAAABAChNscdHnfjZ4Rdc0cpT3hRS3fMUxm6TliH3AFqL+obZzwp7dxBV8rCEenmbkpZ5JMCdO3nAGVXOfmCYF6Sh91fr8aJqVmjePcf9wwTbb1fK/DPOHefV1m1rrXu3kDcql7v+oalXpeL0P9/T7o0ZkfUOesrpfV9Fjtw82aM9dMIZSwHzAAAAAQcsxzm7PcQciPCmp6Kh3PiMPJt/GbO9bexu8xm//crpluZ+uZCzbAefW6f/R5XRXmZv1sqN2s11fw8VgSbh8792y8ROfUoz/fB7X+jqEyccFQexTqIEnn9i2V5RuXyVI5JOueZMRkAAAAhA+V25yl50S9Jh+/rkfBdYeom9J9/IYcVwEofj5X9zZmlUVvc10+1nOnBoW+fnZ533WrP+iZ46YZr0Od63kV3qx5bP2OVY8MrM5DD5rUnck5WiML636o3mDarcO0um6Jgm3q+vd9uPypPZhU/GfFOS99PRMFWwAAACD8qNwCUKjcAgAAINyo3ALoUTZX6qpjezsDAAAAuY/KLQBLpG65bFpcbO45Tkjjijdkr7kHAAAA5CoqtwAsbTubZN3uE9LeYVYAAAAAIULlFgAAAAAQelRuAQAAAAChR7gFAAAAAIQe4TbH6GbXAAAAAID0EG4BAAAAAKFHuAUAAAAAhB7hFgAAAAAQeoRbAAAAAEDoEW4BAAAAAKFHuAUAAAAAhB7hFkBeKK3bLP+w/Q/yQLVZASBt/B4BAMJsyMxZs2+a5VDQ88CeOtVm7uWffD8/r/HyxNyV8ojsl/pDb8kRsxZcl/RF5Acbn5Wqsg5pXb9G3j1pVlfUy083PCTF5q5bV0erfPnHV+Td/bn1+6bDRf3idtmzYrMcNeuCTF/1B1k0Ry10vCrNTzbLOXt1j+o18g8rq9RCa0qvl7ei1yHm8xFaC+WB7Y/JreZeoMNb5Z9f2GfupCLg9wgAgJCgcgsgD0yS4jL1o+OgfO7+Qj5xgm+w1YrLqqRq5bPy07qIWZMLIjJtrjqRjjPSadYEi8jY8WaxbIKUmMUeKqg8qAOdktLr5SvXdZAyKZ5oFsOsen7yYKt0tZ82S6kK+D0CACAkCLcAwq/ChNivz3iql6Xl5dbPL7f9RP55heu2/inZs7vDeqx48cMy3VrKBSZcxJyHP/u5XR32ecQqrfulVYHr0g+n9Hp5qvphuxK57VXpUneLy3PpjxkZ2r/Z83luNp/l2M/5v+1Ms1VCwO8RAABhQbjFABont440i3DpxXWpWCBrNzZI8/YG2VJXalYOAqZCG1upKim3ylDS9ZV9P+pkmxzd+U/SamWCchlbYa0deKYi9+UHKTQlNUGk69BBFdpiz2GhzF9cJl2H23WxMoMKXr4wVVtdidx/xgq3+Sjwc56ugN8jAADCgj63OSbv+9yOWya7Jk2XSCrhrbNFZn32ibnjUnSnPDFpodxTUqK+utrauo/K26f3yvNnvzZrvGZMVoFvksjLHzbK85fUCr/XUPtbp/YX28d1hjrmTUmOue30Nll6KmbfAcf5+6M75DV9DG7ZuC5KzaoGadB9MC1dsmt9kzT1UfNCu2+o9PTNq1goDzxaK7eW6S/aSker7Hlpsxz12X9p9Rr5kQodVpXS0iFf7m6R93fuS1Axisj0Vb+U788ps6tLStfhV+WDlmbpnK+PpcyqXL2+3zyog43VfzC4v6ndZzW4f2Fmx6m2U9diWq26FjHH+qcXYvvFqmu20XXNEoo5D9OP9Mvdr0rx4oeky3Xu0X6720QW6ed4rotRoa5nrfd66vesNagfstN/ObAfZ+LrXVpdL/MfnOc6VxXGDh+03j+/z4hbpu9D9BpZ52/6qSbph5pLn+ujE/Xxlyfp/+r0vw3+nHul+3sEAEB4ULlFv0spwPkaL0/c3iAfza6VR1yBUYuMnC6PVK6UF8eZFQnooOv7GuoWG2yXqP01V6YYOl0C96GO85nZT8uuyU5nyR6ZX5eBYVeL2uW8+tJtjbC6QX3Bdoc0vRj3hVyHuT9IvQocPQFAK5NbFz8m9RvrxbferIPV9mdVEHUFMaV4zkOyaMMama/7qaov91+4v5BXLFDHo34eft//C796ze9bgzH59S/M8Dit4KACgroWVT7HWr99s/zAXWHV1deUgq0S02/WbnKtAuL7dkWyp7mtqdrufkXk+/ZgUp7rougQ9tMN8ddTEvVDTlrVc/pr+vTvVfurX/lQTIhX+7bev83yQLXP/iyZvg+a2lZtpwfbet86/9N2E+3xExJsk0ufa3VdrPfPPpZATlPioM+5Wya/RwAAhAiV2xwzuEZLvlNerK6Vu7tTHBV43DL5SAVNu/q5V1675FRKx8uSyT+WZybpIXWOyq/375DX7Aei7MptibzTeVTuLpkuol7j1zGvMaPoaznirqia/Yn6qv7ysf8ZrQrPGHevbKqsVjHGf1/u7d45vU+2nuqpBltVYB2W9Ws6VeQ4aV4XN90s+dG5UqW+o7bv3iGrdyasa/WCqdLJq9L8xwnWl/quw1vlTy375Jz1RVyFvGr1bngqgCoAWBUmU81633muUrFQfvCoCoTquOOrRs52igoqe17qqfRZlTIdKPSd2BGDTdWua/dT3r6HumI5/2H5/mJ7u+D9pXucTuVSL6ttt/2TClVt5njUPuvMPoNGNnb2G/i4m7tK+oqMVcu3HrLP065G96y33iOf66JZ79kLTlUxosLcw1KvjlEff2y10K5oJqjqBVZ2nWO1r8nr0c+E2l/1w+b986ueZ/o+2OKPN3Fl2RaCz3WsoM95nCztDwCAHEblFuFxdofUf/hbWXpIN+t1NwH+Wl471Si/tspFpXJbkbXSlw62ugnxLJ/X8ARbZcZIu9byzjEVQl3NnY+cfUuWHtNfjafLorhK8Xh5YpI9PJHe7nFXsNWOqHOwty2Re0riq7e9dvKAPPdko9SvaOzDYKuZKp3MU1+Ky9UXd/XFWock50u9tMUEAN0EWH+xVsFChZjXdTPN6HOVk/vk3Zf8B/yxt1N0aFJfut3NQc/t3yz/tq3V7ksZMJhU8eJnrXk7ozddsbSCrQ4jT8UFo0yP0x7ASS3ocLBCbRsNtpru46uOdf1WK1T4vjNpDeYTXyUtLp9kBUxdjdZV26O+g1OpgKNCjKbDlvWeWfc0dbzqGO3Bicrk1vne80varzNZZbfjoBX2e6j96fdvxVPWtY5tdpvp+2Czq9feKmSbnHf/yvvKrc+1Jcnnwfmcd7UnCraZ/x4BABAmhFuESjSAFo2XJePulRdvb5Bdcxvko+qn5RlrLpQSubXQeoa/zpb4vrG9UDEyJqAW3SH36ObF3ftl61l7VZyzR+Qd9SNSeofMsNeEjxPEysqka5sd5BJbKLdZfYGrZNEGV9D0hE6f+WijTYdVYPRUA738QpUdxvzoULtVmq0wEnvcGR6nK0ztSVT1UmHHHSo8TDhMbzCpA2pfPaFteq0+tlb5QJ+X8xzXdSmtq7UCjq7y+VZflXPv6wGqTFiOMtMOJZgiZrrVhNYvZJnjK3tIfrRqoZTGDd6lAmPca2b6Pth6zlOH/FgJBhDLsc+1lvjzYKaO8oR4H734PQIAIEwItwgV3ST4xblPy0ezV8ozldVyt+7TOjJ+hs8gbZeDEme8I912RLm7cpkscVeDi+6UF61mxyqrdMcE5cJS9XVTGVktzSpw69Adf6uVu60nh5hTpUsQkjxSnJczVun8efZ+rBDnz79y5cwBq8KmMzXKeruCZlUQYytsjgyPMxqKUun3GMAOhymOeButktrn3NneITK+1lW1dV0713Vxqq9fvp8stMVw+i8HVvWc6+1//EdfeEr2HO6Q4jmPSb0VAjfLA3Uq6JrH42T6Plh6/tBghXwX6zrpvr5Bc93m3Oc62echQT9nl8x/jwAACBfCLcJj3DJp1oHWqowelXdOt8ivP9wm9eo2a/9vTbPkLDq7w7ymPQhUNJzONuG0syW4OpvnnCCWakhyvjjrprDueTj9bu5+g8nDWFDlynzpd4fNk83ywWH1s2yeTAuo3GV6nEmb5CblhMMkgwcZscHnXLue8keFto5X5U/muOKbEae4D79zSXp+TsgKquy2qYC7xswvrJu/moGWrJAb36w44/dBiTa/1dXUmCqq7oObSO59rlMcTCpJU+LMf48AAAgXwi0G3shSmWoWgznVUj24k91nVvdn1f1mj3j6zmabnZi9Xwn1QFEtUu8zbZBc1o1EFT1djwrcCW/JBotK6boMhPSCmJt//8jeCKhcmYpabBg7+oHux1gmVbUL7RUBsn+cyfiE8UA+weerM/LlYT2Nj9Mk2rxHCZoR+4vY88Iq7gqeE+KCqnqlTgUzWX9Na35h3c9WBb71W+XLDh1yf+kdQdol7ffBaX6bhP/rhuBzHavXf1RxpLg/AAByHOEWOSDxIFAe3Z/Jn3znsh0vt5mlrBm3zOrH+7IexMoTTOMHioq69Km83a1+liyUJ1I9p0BpXBeHHi15Y4M0b2+QLXWJJjzpjfS/CFuVRaV47oLApqil1ZGAx4Kakeppd0yVLiZUBYax/e/Ll/rnnPliNyz3yvg4Vbi0+qkuftj3dS0VCZrhOhW4lPhc/5PN8voLm+XdaNXNPMdzXZy+uVVyW7W1Io57UCx7+hxbfBW4hzUqsRmkKj5kLZQHdD9bc8/j5D55/Y/2Hxti399M3we7z7GiB02KqZxaNzNIk7c/sSP3P9ex0qs0935/AADkOsItBtAnssf6Flkij0y/N6Zfqx4wyiqjeI2slk2T73QNxDTeml5n19yV8kjqXW9TYo+WXCK3pjWq8dfy/Glde1PnNLtBXtTH6gmoetoidbzVy2SJWRMvg+ti1NTa0wBp5YsXyfKggXN6I8WmkB5OqCx7yJrzc7rruEr1dCl6btiVz8r8mNBl95EUuXXlGu821fXywEY9X6d9PzZUBYexffKFbpocFPAyPE49SvWX1qFWyaKN+lhdlTw99ZDaTs+X+iO/+WPd5tTKD1xzvtr7VMdh7lvM9U/UfzL6HN/Ktb6eMXPLOudmNdvtkFbfEZ3tinc0qKltrLld1TZfHrbfp9g/JlgDO+l+thvt/XlCnt7eVInjZPI+RKu2rbInaNAk80cI37luQ/C59kq90pyd/QEAkPuY5zbHDK55bpWie2XXbD1nrB/vPLLOXLW+9Ly16hvpM5OmyzvHfiuPx/SFdbbV0wClPFpywmOz6Tl33z691zNVkJbwWDW13ctHdwTMc6ukcV3calY1SEO0WWaX7FrfJE1pNrFMKuV5NWO45lf1451z1eGamzNWhwoxh8pl0WIVZzxTySSZz9Q5Dj1yrN/Ixhkdp6LClTXPq7kbq+vwq2q7oJGUnWM2d2PoPp3RAY7M8XnWxUg0J609D665E8dvvlkl8JrYz/98vt5f7Ptgc44lkLqeegTf3r4Pznkl/lyaz5Pfe2/2l/ufa3M3iO/nOpP9AQAQPlRuMbAuvSVLP2yRd7q9DQF1aHz52F5PgDtyqlHqjx1Vj5kVmvU8M2+te302XPpUft+ZuIFiZOR0eaRypbwYM9+tPtZZ6rxeVtt7viar87T666rjDQy2WhrXxW1vyyFptYs00r57T/aDrZKs/2Wg/ZtNP0tzgIYOfXvWx8656tgnr6ttWk1l0KK21/OPNj+52TQfja1cJWleuv8V+xoFDSyV0XEqJ5vtOVvVsVrVQYcKD63WfKlBwVZrk3effMp7nkqXDh5qn+6Aal9//ybCjkTNiI++8BNp1nOaunelr6meHmlFQLhR10SfVw/v8+39+VcQz+3UA0nZ76H7unQ572PQ9UznfVAB0wrsrgG1/J22z7tsgsT+6Sk0n+tkfCvPmewPAIDwoXKbYwZd5TZnjZcndFNn2a+CaNDAT+Nlye0rrX65aVWEAQAAAGQdlVvAT9Edcs9IFVrPfZpgROOv5fhl39ogAAAAgH5GuAUSiEz6sbw4brxrACvbjKI75YnbnX61R+X3VG0BAACAAUWz5BxDs+TcseT2p60mxwklGxgKAAAAQL+gcgsEeO2z30r9sf3WoE6xf26wB3balnxgKAAAAAD9gsptjqFyCwAAAADpo3ILAAAAAAg9wi0AAAAAIPQItwAAAACA0CPcAgAAAABCj3ALAAAAAAg9wi0AAAAAIPQItwAAAACA0CPcAgAGRsUC2bLxfqkxd2NF6pbLllWV5h4AAEBiQ2bOmn3TLIfC5MkROXWqzdzLP/l+fglNWijfebBWhs8skwKz6trHr8rFrc1yzdwfbEY8tllGq+tx7eOt0rl1n1mLPqPD1oa5Um7uRnUcknVPHpD0fjNLZfnGZbK0TKR995uyeucxsz47dPDbtLhYvfYO9drnzNqB4pxrl+xa3yRNJ83qRKrvly0rp0h5xwlpfOkN2euzjXOOcvhNqX8hu9cvuVKpqZsntXPVMar30KaOdYU6VnMPAADkFiq3yA2T6qXkqcekyBVstYKZD0nJb9bICHM/jApqN8stWzM4B3VN9PXQCm6Z4LkuSE+keoGs3bhcmrc3RG9bVi2QmgrzhL5QMVXmmVBUvvi2wOrkoKT/iKCDrQ6LT/oHW61tZ5Os290lMuc+2VJXatb2j5pVy6RhsTvYAgCAXEe4RQ6IyHf+x0NWeLMqlI/9RL4xt87trXLlw1fkiv3EEIrIiNnq2/E3Z9KvPp8+IFe/0Qsd6hocGLTV694pleWrlsumlXOlqqzYrLOVz5krDRuWy9pqs0I7eUBWr2iU+ujtTWk1D6Xt5HE52GEvtu/+gmpflHpPHtXVcV3lTV4F1QG38bD+A8EiWd6Xf4zwKJUJ4+2l1m07XJ8HqrYAAOQywi0G3qQFMvwW9dM0vXWHuGvvbZaLLWFupj1JhulzyyTcSpv89Tc65K8J+TUYKKap7BwdaruskLIuGlJ2SOPuE9IuxVL1/b7q03lOmp6095ftJslhFqlbZJpq70mt+bKy9wX9R4ZiWfroAomYdf2i45Ds3D/QTb4BAECqCLcYcAVV86yq7ZVDedin9K75VnPkvDy3XFc9zwpRVj/J9U3ynAopPX8iOCd7d74hq9fvGIC+nINZpdTpPrQqNL6YVj/hY7JTN08umyt17ko7AACACwNK5ZjBMaDUQhn9m1oZcUuyzmytcvGxzT1Nkq1+uQ9Jwcdb5RvfwZUi8p3fPCtFt8Rs56z/xtkuIiNqH5aiH1W5Bq7aKhdjqsZuBZMWyoiUBrtK9dy0mOO8a43csqLK3HH55lXp/E0Kg2pNUuf14C+9/Za/aZVLb7wif33P7zPV++uSCd3/te5B3UzYrJAuaT/cKi+qkBl/lKb6Ks6ATqVSs2qR1M4pjg761H5YBaUXYgd7cgY40s1KG1WwNavTVilrt98nVUkHlOrZn5/UBn0qVddmnjz+4BgpjzahDr42yQaUqlm1XBp01frwm7LO79pWVMry2iqZ576WHSekJWBwJ5tzjD19UfX1b2k5IFLboPaXZECp6vuleeWUzAbBcgb76qfBpWpWqfMZn8lAYgAAYKBQuUX/mzRBClIKfzHK7UGVrnWctu/HCWgCbJo9W9vpgLz1WRntCnBawczHZHStX4NHFfhUAA0c7GrrZvnOJLNCS+fcYo6zoCxujF7LtRT62xaoYFzylDqvmGOUW6qkaMWzUuJ3br26LpnQAbDB9H81qywqXM25TzZtXx7cp1KFvckqjK1VAVIHNveV0n1nN22Maa4aHczphLyXcbDtR+bcNulBljx9g1O4Nj508E0UbPXjzRvus5pse65l2RRp2NAQMHiTHeDtYzSrFKfvcq3po5pIzfenqP92ycH3M2jq6/RhntOPg3Ppz51ZBAAAuY9wi/53utk1aNRWu3Kpq5OugaTsm7v62hP+rnUE1FF0sNQ/Y8OtCcUy+5d25febVrn47FNmH0/JxY+tZ6nXd6dUza5s6sBoDeq0/SnXMart/tSq9lMmRf+jvicQpnxu6hZTjb3Wssb7+HZ7KKPA83XoYLvCDqXeAbnU8apj1Ap+9EtvCNcyvi6ZcfpaOv1fo4P0rH9TdlkDLxXL0g1Bc57q0HWfCsVdssu17bptJ+yHY5urTjSh7XB/DeTU07/WfbNG+k1KBVvr3NRixwnP+bn7Bk+caD87mej0Obra7Fexrb7ffly/D7tV+HUfr7qe7eoRv8Gb9OjBfu/fOvX+tXao6+0KvP6cQZouyJkU+9p6nZN3D+nrOUYm9NvAUgAAIEwItxhYQYHUR0GZHTKv62/ffgIqu04otiqqf1Lh7TcqNJ92vvK3yZU/vuq774LaX0qRVQnW4XSNXHyvzfU8tV3LZul8dqtc/D8DmgyncW5+7ONOcL6WhTLaNGW+sv0nMQNyqePVx/gnnRzLZHiVtwKb6XXJSMUCedwEKt1sVfd/jTp5TAXDHSbgTpHaoClf9HyoK5qkybVt2/43rJF0tbLynu0i5WPMUu6L1FWJ9Q5aTZ/f8Jyfu29wKk2rPcHWtzltqSx/UFdPdXNt9T7s9IZffT1XW38wKJZ5813vg3r/aufohfj3r029f89F379ExspE61e4S07ZKzKUetDPTKm6jvfb59vrYwUAAP2JcIuBlbSpsSOiQpj68c1BFcDsNbFGzLVDXmyl0w7FOvw9JZ0JRh32HsNCKfqR3q5VLibq73p6X+DxOOeW2WBSzhRCweerFdTWWgNWXVPh9OJ79rpY11oPWscfW4HN7LpkKFpJbQ3oj3lOmv5oV2HL5071NjG2qFCl+4Kae26n2lOpjuaqUvnBXBP6X0rQt/Nk8ma8PcFWzx0b8FpOc20VfncGheX9X1jTH3neh6TvX/9oa79glvqA7tNrzYG8TF3HKVKuq+iJ3hMAAJBzCLcYUHYg7ZCrrUm+QjrTBQVWQU34jat0Outb5arvoEoq5JnRmj2h2Km6fvy+p2l0OpxzS1x5DZLaFEJONTvp9YuT4XXJkFNJbW8/b/309VWX1SQ2G/0coyFo/FifoJxLTDUz46a6tki0qbGWoNrohNSyubLJCnJ+t/vsSrJLSu9fntGfxTP2IgAACAnCLQaQE7Da5Vqy4mDSCq8TBmMrnclDom9z55QrykHSODc/KU0hlOI+fM8lw+sSFlkMyjlv7iJrkCddjW000+VsWtVXc/cOrD5tbn7ygKy2+hHrfs5d9uBa/T2vLgAA6BXCLQZQatVJLdlgUgUmDMa9VtD6qF6G0EDm3DKs/KbW3zYVEfnO/T7NtQfoupSXjzVLPpyqYjb6OToj6ybqw5tTMh8kqVyPrmz62O7d2WT3QZ5zn6z1mw/WCf16Oh0zIFTgzadpc8L3L6nz8pXV/bu3f3Dokq++Mot9QvdzNteR0ZIBAAgVwi0GTpYGkyqo3WyNFqzFVlqdUBxcAQ0I2O32/YIfPWyHQD+TFtrH78c5twzZ55ssWLbJtW/0zyoZfpe1Io57UKxLrj65GV+XDLW9b4/CK3OqAqa06RnoqP3Q8Sz0c3RG1lWBzGfk3yg912t1CuG3z0LOMXnPGhCrWJYmqhJWlAY/FjN41N4X3rT6zFat9Jk+KDqdTtD74K/n/QuYhqfCaV6dyDk587X+mWmQd/on964JNwAAyF+EWwwYp09n6gMulUnRg65AqcLl6N/8QUp+VCZXPraHavUfTCpBBdRUMOPmkj19QK6a4Dj6N2tkxCRXtFDLeu7bW55KYQ7YmbXynbt6nlOgjvk7j9UHB2aLUzWtkiLX6xfctVAdh7ljXDlkT/UzYsVmGe3aj74239Hz81qDYnXIpZgRnTO+Lpk6eUBanBC3YbmsdQdKHTA3OtPMnJCWnckHT0pF2849rimG1D7rKl0BUYXF6vtli57rdWWC8OtUG60KsGt7dcw1GQW0eHtbDtnBUTcn3nh/TNh2jnNZYFPj+D8GHJPnzIjH8YHZGbjLdU0851EqNXVqf9tjpmRyVcIb1DG6z925jrH9dP3s/cBnJOZUOYNh9dv0TgAAIGyGzJw1+6ZZDoXJkyNy6lTv6zq5Kt/Pz23EY3+Q0TNV8Hp2jfw1WdPXu9bILaY662Vvf6VKBzmJeS17ntqiW1rlYsycuQ6r6qvD8fafxI82PKnenv/V3I117eNX5eLWoJGUnX2buzF89+fiHFcsv+3s62juxPG7vr28LhkrdYVYP/Y0M97ReJ1t/B6zOaMEt+/eIavjgnHyfVpT4iSYZic6CnEs3bT3hWPmjr/Ex+aiR+rdMNdulu0r/vyTvXb0uH2OM/CcHNZIwW94r3eiY1TPb/16ilTNCX6fbJWyVg9YFThVUTDnmFu3NaY0LVLvmM+NpH+cAABg4FC5xQBJs0/ne5vloqnO2jrkyp+2WvPP6uDm34y3l4MmnW5Wr/+UtV/P9t+0yiU9fU5gsNXa5K+/eUoueY5ZBWK17cVnkwfGay3/5Hu+7qbFjitbfyKd21tNE2XjG+/18erldcnYOWl6slHWbTskrZ7L0iXtKoCt03PYBoaiTLn36Z4ySO/zkDRac7aaVQHadjbJut2mWa5Dh78PsjhysDWYkR7ISO0nS9cmWrm2+t96K6X6nOrXvym7Dps+uA51jVp3q/3p+XZj96eP0WzTo+f5O1OakumY7DSDXj2eVl/oSqnTYTzRFEYAAGDQo3KbYwZT5RbAYJS8Gh+rZlWDNCStCmcTlVsAAMKIyi0AoB+dk6aXdD9j3e83pm+vD90cuWGOSPvuPf0UbF3K5kpdKgOOAQCAnEC4BQD0L93EeZtu6m0GqDKrY7n7DSfss5x1PaNtV61cJs3bG8wteRgHAAADh3ALAOh/+9+Q1evNSNEJRp7WfY6TDdzVF6J9rb3d5gEAQA6jz22Ooc8tAAAAAKSPyi0AAAAAIPQItwAAAACA0CPcol/pZtcAAAAAkG2EWwAAAABA6BFuAQAAAAChR7gFAAAAAIQe4RYAAAAAEHqEWwAAAABA6BFuASDfVCyQLRvvlxpzFwCAXBSpWy5bVlWae0DvDZk5a/ZNsxwKeiqZU6fazL38w/khr5WskVturTJ3elz58idysdPcGUg6FG6YK+XmblTHIVn35AEJxSe3+n7ZsnKKlHeckMaX3pC9J836AVEgy5cVy9Ix12XXK+elqVfvsfNaIu0ffiur379q1ueaXDzODN+HkiLZ8nBh/O/DhcuybselcPw+ADkvnd/PsPx/MHU63G5aXCxy+E2pf+GYWQtkjsotgH5TMCLua7LSKldzIdjmAx3OdbAVFWyfDAq2+svROGn+e3VbViTRmaenjbLXqdvaaWadZbisNetTvXm3z5KS4TJPfaHTymcPz92qdFiOEyFlfn/dv7sYPHL2/y/p/rvSo21nk6zb3SUy5z7ZUldq1gKZI9wC6DfXzqyRbw7+xNyekktX1MorZ+Sa/fDAO3lAVq9olPro7U0VvcOiVJY/qqvOXbJrvQq2Zm1CF675VN+uy1fnzWIu6bwqBy/Yi+0fXk3t/AZCWI4zFZ2XZPXvzkp99PZtiH4fgDwUhv+/ZPDvig64jYdVYF+8SJZXmJVAhgi3AAbIJBk2Qv3ozqFwG2KRukWytEx94dm9R5qy2hT5qjznCTj6pgK09QVLN6OLfeysPPe5tWGWXZOmHfbr53ZTvLAcJ4Dwyd//v+x9Qf8xuViWPrqAVgnoFcItgIFRMl90tr3Stc++j16olDrdZ6njkLy485xZF+SanDF/+fc4f13azSKAXDVMJppmqUDuyMa/K8dkp26eXDZX6qrNKiADDCiVYzi//FJQuFBGlNfK8OIyKTDrrnW9KhePN6t/CgIURtQ2v5Qi1zZypVUutb8if+30u3YR+c6dz0pR91b55rgOimr7CQ9LUXmVa59b1T73+e6zoKRePXeejBhRZtZ0qOcfVPtrliuXzSo/aR+nV8GEzVJSLnLpP9fIXxPtx6WgZI2M1uelU7GlQ660t8ilM/7n1nuVsnb7fVKVxoBSkeoFUvfgXKlyLqd0SfvhVnnxhWMJt49U3y+PPzhFyqPbxWvfvUNW+4VXtW3zyinBj8eo+eE4aYjoZm1dsvp9c+WigwddlcbffZukuVuqA6DEPq9A7XuU1EaGRQcpam+7LC/+OXZwImc7czeG57h9qf3ML1T7GS7l0ddQX7LaLsmLrVelLWt9vMN2nPb78K4Ml7q/K5KqMcPshy9cl9bD38pznyf7LdL9r0dJVbIBpZzPUuDzUvj8lAyX5VVFMs/9WblwVVr+XX02s9xHPzJ/rGyaLT3H4rfvtm/V51S9J+Z+VMbHWSCRaYXy+JwC9d6b98F572P3M22UbJnj/owkoI6zXm2fDf1/XdL9fTCfI7E/Z3qf6X6uI9OKpG5OodrGrAh6Dyze/bXp403p/2cO5z3vOT/9/JZWdexV+v/Jsb8Pmf7/pbfHqa/LKM9x+ondf+//XVGcQR0ZXAq9QOUW6BMq+E1V4e17j3nDn1JQ/JCUzNss3yk0K1x0eCv53rMyOmYbGVElRbc+KyUTfBrrFC6Q4SrsXes+rZbr1Wur7V3BVisofkxG+22r93frQ65gq6l9q2Mc/b3NMrrEv3FQRscZo2Ck3me7XEsp2C6U0Xf+QR2rO9hqZSpgPyYld9Z7j2NAlMryjQ2yaaU72GrFUj7nPtm0fXlgX6KaVcvVdomDbSI135+i/tslB99PHmy1U+pLn9bR5fpi1HlNOvRP9dgpa0WWjVXBSH3hanB9wdLKI4WyKauD45j9zI79Yqb2Gxklmx4eK2vnD/ynZaCOc2KVCiwPq4AaDVSKWq66p1iafzjcrBhYOlQ1q2NcGvtZGTNcGh4eJ1v68P0L3Le6xQaBjI9ThTD93m+6R7/3rvfBee//fqwsLzGrjEQhoz/0/XXpxe+DuoZ1P0z3c60D4Dj1HriDrRb8HkSp151s3sPU/39mB077PTerFP38BnVutX3x/mZ0nDqkqmsZc5ypyMq/KyePy0G9wZzbGIwPGaNym2M4v3xgKqlWCOuQK1/+k1zqbDOVRVdV9cqr0vmJq4LrmibHW2mNSIHapkRto18vrtJptrt2Rf2LoEJqwZVWufjFK3Llsr7OOmTrEKoW1WvalV2Hc5z2MV6MVlvV/koeltE6SCbYn5bWcXqosDrvMRkRd0x+zHP1tdRV2i61P+d1CxfKd257zLrWfTOdUOqV2+h0Bipktm7bI8/tN0GzolKWP3qf1R9W9CjGK2IGezJVV73dLrVdk9lOV4AfV0HZGvk4dhsPHaqXqddP9jwXPYKl+vLS+ra7f2zsX/sTcSoKqVZuzV1Rz3/7W2kylRRdHdBfojTvsfjTX5o3zR6WsCLqPEcuXJVGT5Wop2oibckqqr2Te8fpfR+capG9T10tG6VChR0KEr8P6otyX1duzWdTf1ZaP7wkO9/vqaBZ1ST9pVt/jhJ+7tLjvBetbVelKqL2bb0nl9X1ca69ek9Krnkrhxkfp7mGelHtZ9fhy9HfB/u9KJRaFfA6At+HFN+DLOjP65LZ70Pmn+vo/vRxqv8nRau7uuL8dyqYW6+pjsVTbcz8/2dOVTN2fxGr2qxDuf1YKp9r59iTVm4zOE73++fdpki9d0kqsGZb72uaY0np3xWb/W+pyK71TVkePwKDBZVbIMsKJvzSDrY6vB5cY4XGnn9+2uTKmc3S+Z8qFH7hbpqsApwJjDqkdXqaEKvt9Tbt+s+ZZTK82Pu3Vmd6nQJdfW1/Sr75ZLMJtpraX/urrtfyceWgFb57qP11qv0dfEouxgXUzI/To3CC+ifPVJuTGDFVB1sV2NWxXNTNj93Hc3mf/PUL+/wKRiTYX1+rUEHUBFv9D3I02Gonj0nTkztkl/Xn6ylSGzPVQcT8ebx1m/qH3LVd2/4DsnrbCbU0Re5K2P9orEzUwbmjK82Ka8DolRf8RrrMAv2l9Xfqi5vzJVJp+/xbaTQ7KyvObjVOf9Ht+YKsqfNS+1u9Qw/EkvA3ol/193FaX4j/7AQA7Zrsff+8rPvQrrpUTbG/9A4M9UVYhxil9e3z8pwrGGnWdXlbN7kdJvNuy+7nRdMBTl+f+h06XLmvfUyA68VxRuYXmWCrv+z3hAebfi/Utq90eQPHAOuP6+LI9Pchrc91iQpqJtjqMBkNtlrnVWna4QyYN1xqg6rF6fz/TO2v1gTb2P21qf09F91fH0jz/7sRc1+/f95tLpn3brjclXCqt2z9u1IsEyeaRSBNhFsgqxZKkdW2VIUxd1U2lgpl7v6sBRNqrcGVrqlwGlR91P1g9esVjJxkrzDs5r06bD4lnWeC//mID5IqjHarHyMektFTF0pBXDNpFYxjKq+9OU6PkSbcXkn2z91CFZL1zyoZ/b0/yC3zfG7fe8h6rQE1sVisPzEcbg34S/M5afqjDqoi5XOnSroxvKw8y3P/qS839foLT8yXSGsUziz11/NSX+p0Ncbcc3OasmVL2xdXrQFMymePkrXzh0skqGnhABuY47wuB7/w/7+SczwypiDtz2fWlJg5PFXw2xkU7j6/ak1HVK4CV9aPs02FqFT+oJDxcRbIDyImVP17giqWJ0DmgD6/Lr39fUjzcz3WNNFtuxRQJVX/Lzxs/3/Q/3OW5v/Pku6vr/TN/3cD/xCZpX9X2tr7KuljsCDcAtlkKpLS9b7oKVxTZQfUDrnald7fNkX9s1swUv9slasBgzgVFM8LDJJXjquQ2tVh9cktscLjZhk9QQVd83iszI/Ta0Sxrl3oY7bvBzIjKuc6p/ra3p5gIr+vuuwvWWXFMtlaYXP+Ia9aeb/UuPvkVlTKWqu5srri7an1pYWi52Z95bK0XhgmVeqL8qaHx0nz36vbMt1nL90vzX0oV49T99Mzi/3OCQFjCmWTvha+N9Oktw+0p/qFP+PjdEY6viZn+jXk9E7fXxelr38fXJ9rpzqZ8LycUX6z8PuQ0v5yRJvpL1t1zyipcV/zkuGy1jRl9vSpBXIQ4RbIJqcimUJz2x5OQE0yuJLva5u5Yq8EzxXrBNLrukobp00F3DXyzX+qkNveql7DDNBkhdzYv1f35jjdzOskOGaH0+RaN4H+5mDiW6KqdU7b/4Y1eb1uftywoUGat5vbhvvsL4GH35Sd+/UCUqa+KD+nqwWvdEnjh1fVF2b1RVV9SXW+NG/5oV81ZgCE5TiB/sDvw8CLNlm2B/+K/lFCD9alV7d9G1yVzxLnj8VApgi3QChE5DvWQE0xFVinstkdFBRTDKSXTV9gHRT/c6tcuaJD7i99R3ROLOA4PUwgDzzmeAPanzYN5eVjzZIPp+myb9/YLuu/VqUgqktad78p65JMISRyXr6yujl7K8JQOu0+jM/tOC+rf6e/NH+rvjDrpoaj5PE+HHE3bblwnE7VTQWKPhktOxVOtUxPZ6OvQ6JbHw+mlFCvj7NAJmSxEpkzsvX+ZfP3IcHn2jtSdYw++H1IuL+cYleYvf8e6QHCvpV1vlMk9YUu+eorswikiXALZJMJbAXlDwc3py2MbfZr+r5KlQwP+MLjHqTqkqs5W7Sy2RU04nBQZXeh3c/W3PO4vM+q4qq0JMOsYOzI/Dg9TCBPpbp97Yr9z2vB2AX+x6oUlKgAb5YDVSyQtRvtiuiWmAGdUpIkOLa9f8L+IjCnKmC6n1JZ/qDdxLj90HHvl4Pq+6Vhjh4ZslFWr2iU+uitSZ7bmSzYaufkzNf65xiZEDDV0GASmZaguqMHb3H60g3wF82BOc5hMtH37y89AwG1t6Xw5TVZsFLhxBo/LeB5kfnOaLQx1Hkf1K30I0XB07DkgoyP86q8Z13cYbL07xJMf1WSSr/nLATkbOvF+9fb34d0PtfRfriBx5nm70MSPfsb7j+9TYnTXD0HTBtljeq865Wz9h8Worf4AcL6Rqn8YK4eaOOCnGGkZGSIcAtk0+UDctXqbFslo+9cIyMKXf9cq2U99+0t34ufc/ZKlw6TIiNujZlbVk91o+fLtQap6pBLnhGW1T/BCZscK06QPH/Au50eGEr3s73T3p8nHKp96nly/WR6nH50YB3hVIb1tfGbU7fT9F0e8ZA1l230+UqBs89bn5WiJF+kamp75p4tX7wocL7ZeKYqao1yXNnz5aui0ts/9uQBabGaFhfL0g3LZW21K0DrqYCsqXr0nRPSstPbf9ZuglUsE+dnPmjU3g/0YFXFMq8Xr5EX9Cio94yy5qi0mjCqkOCmp91w+o0NaP+3ATzOqnvGyRbdh9Hct6Y+iU4bclVaEg4cdF2+0uHFGkXW+xqe/nmu5zW4m5Kq81yu59A007PEcwbyUeHPmtdUXxv7EZs9vcuWvx81wHNgZn6ce1sv20FH90tdNkqWT3O/93raG7Xdw8WySV03f96A7O0Xqfbreb3+luF16fXvwzD1uTb7M2sSfq47L0mLcw31cbqvWVq/DylyQr/+fVDvufs9s9/vvutHni67f7AK230wGnlKKqbKPP1v5eEv/KcbAlLAPLc5hvPLA4X1UpJgBN9rXa/KxePx4W/E1D/Y89H68ps31pmntlUuHtzsO4BVwQQ7cPrNAes8Fqhra8xUP7b0jzOWM29tjNh5fx2ueXX9eOfa9VezqsGqjtrs6XpSnT+vZ/7aGIfflPoXjpk7mjPfrLkbJ2C/FQtkywY9n22w9o4TcvCPBz1TBXmlPh9vdqiQYn0BtKe2CB4BNPnzks/Z2COV5+r5GOvmFJp5IwP08RyhuXecPe9D+4Vh4t+lLdl7aeuZHzSGborqHhE1Ol9mPH1dWsYUS0PEf5+B+3BcuGqNApvsWFOVzmfQLePjVGHOmgfY3I2X5L1IuL2e+sV/hNx09ed1yez3wflc69Crq7pmtUfQtezZ1p/fdr34/1mi90xdj9YLw6Uq4PchVvL3pY+O02hXx3vQMz9z9jj/3rZua5TnGGsCGaJyC2Tb5WZ7jtiuDm/gutIql/R0PT7BVrty/CfS+WWrXHOn1CsdcqVdhcyDfoGxd4NJXTujB5LaKpdijvOa3qd1nP6BMf3jjLVPLv7nq3LFtf01fW3avdXlqM7Nph+wVUKNsv5I8J+xc+3629tySFrN5u2796Q1MXzbziZZt9s0O3aosLnrg9iRkc9J05ONsm5bz75sXdKugvC6FQGB+uRxaTls97kNUl42RZauXCZrA+e7PSY7d6vXKJsrj2fS7DqP6PkY9aA0697WI696qzz6S9mut7v6NNimakCOU73ui9Y+r1phwKHnFm1M4Uu11mbNHWqaWTr08Z6Iqah9/m3cfvTzGnVzR/VlOtFUJHofup/lrjbTh9OhtrH6/en5YVM41r6W8XHqkYF/Zw+a5J31RL1Om9oubjqVGHp7qx+q3+fm8oBXvDK5Lr37fbguB/893c+1PUWNvT+zypLie5Au857pa9Kj53rsjDnnAdN5VVo8xxivfMxwWXpPsaxNON9tJiqlTv8hueMQgyiiV6jc5hjODxhMTLVXElVcS6Vm1TKr8ty+e4esjmnW3MOpHKdXmQaAcEpeoUQ6zPWURC1GCqTmh7rVhfr3KM2KfjJ2Cyv+/ULvUbkFgIFi+hfFDTLlcU5OtSeu7NrOSdNLh6Td6vd7/wD3SQQAhErJcJmnm3gnHEQrcauLTOnmyPYfcNNrWQX4IdwCwADTg1zpQaiig6EYET0Y1Sqnz2/8YFRxTh6Q1dt0E+op0rCRgAsASE/57FHWIFtx/x7pwbaiA8JlabAtJTquxeE3E7RMAlJHs+Qcw/kBg4t3sKsAuo/vS2+k/hdtPUjVo8XSorbZy1/BAeQlmiVnW80Px1lNjhPSfaCzOaCbCrePl7fKas8AjUDmCLc5hvMDBp9I9QKpe3CKlJUVe0apdEZJfnf/uQTNxABgMCLc9gV75OrhUjZmmPffIxVq9SjJ735+jX+PkNMItzmG8wMAAACA9NHnFgAAAAAQeoRbAAAAAEDoEW7Rr2iSDAAAAKAvEG4BAAAAAKFHuAUAAAAAhB7hFgAAAAAQeoRbAAAAAEDoEW4BAAAAAKE3ZOas2TfNcihMnhzJ6xF38/38tJpVDdIwx9yRLmnvuCAtL70he0+aVQAAAACQJiq3GGDFUl42RRo23C81Zg0AAAAApItwi36394VGqV9hbuvflF0deu0YmVBhPQwAAAAAaSPcYmCdPCbvHuoydwAAAAAgM4RbDLi29gtmCQAAAAAyQ7jFgIuUjzFLAAAAAJAZwi1yxAU5w2jJAAAAADJEuAUAAAAAhB7hFjliijRsXCA1jJgMAAAAIAPDbhk//jdmORRGjx4jFy/m7wBE+X5+fi58+rX8paJcJky7Ve69Z57899p58rd/c0L+9Oll8wwAAAAASIzKLXJGufkJAAAAAOki3GLgVc+ThjnFIh0npHH9Dqlf0Sird54zDwIAAABAcoRbDDh7KqAu2fXSG7L3JKEWAAAAQPoIt8gRTAUEAAAAIHOEW+SIMTKBkZIBAAAAZIhwCwAAAAAIPcItBlxb++Ca+ggAAABA9hFuMeDsAaUAAAAAIHOEWwysikqpW1xs7gAAAABAZgi36Hc1qxqkebu5bbhPqvTKjhPyLqMlAwAAAMgQ4RYDrEvaDx+SxpcOSJtZAwAAAADpGjJz1uybZjkUJk+OyKlT+RuD8v38AAAAAKAvULkFAAAAAIQe4RYAAAAAEHqEWwAAAABA6BFucwz9bQEAAAAgfYRbAAAAAEDoEW4BAAAAAKFHuAUAAAAAhB7hFgAAAAAQeoRbAAAAAEDoDZk5a/ZNsxwKkydH8n5E4ZpVDdIwx9yRLmnvuCAtL70he0+aVQAAAAAADyq3Oa9YysumSMOG+6XGrAEAAAAAeFG5zXUVlbL80ftkaVmX7FrfJE1UbwEAAAAgDpXbXHfymLx7qMvcAQAAAAD4IdyGQFv7BbMEAAAAAPBDuA2BSPkYswQAAAAA8EO4DY0Lcob+tgAAAADgi3ALAAAAAAg9wm1oTJGGjQukpsLcBQAAAABEMRVQKJRKzapFUjunWMrNmvbdO2T1znPmHgAAAAAMblRuQ8QJtgAAAAAALyq3YVB9vzSvnCLScUIaXzooe09SsQUAAAAANyq3IWBPBdQlu156g2ALAAAAAD4It6HBVEAAAAAAEIRwGxpjZAIjJQMAAACAL8ItAAAAACD0CLch0NZ+wSwBAAAAAPwQbkPAHlAKAAAAABCEcJvrKiqlbnGxuQMAAAAA8MM8tzmoZlWDNMwxdxwdh2TdkwdkkM3wCwAAAAApoXKb87qk/fAhaXyJYAsAAAAAQajcAgAAAABCj8otAAAAACD0CLcAAAAAgNAj3AIAAAAAQi904Zb+tgAAAACAWFRuAQAAAAChR7gFAAAAAIQe4RYAAAAAEHqEWwAAAABA6BFuAQAAAAChN2TmrNk3zXJo1KxqkIY55o50SXvHBWl56Q3Ze9KsAgAAAAAMKnlQuS2W8rIp0rDhfqkxawAAAAAAg0soK7ceFZWy/NH7ZGlZl+xa3yRNVG8BAAAAYNAJf+X25DF591CXuQMAAAAAGIzyYkCptvYLZgkAAAAAMBjlRbiNlI8xSwAAAACAwSiPpgK6IGfobwsAAAAAg1IehVsAAAAAwGCVR+F2ijRsXCA1FeYuAAAAAGDQCP9UQJZSqVm1SGrnFEu5WdO+e4es3nnO3AMAAAAA5LO8apbsBFsAAAAAwOCSH5Xb6vuleeUUkY4T0vjSQdl7kootAAAAAAwmeTQVUJfseukNgi0AAAAADEJMBQQAAAAACL08CrdjZAIjJQMAAADAoJRXA0oBAAAAAAanvAi3be0XzBIAAAAAYDDKowGlAAAAAACDVfjDbUWl1C0uNncAAAAAAINRKOe5rVnVIA1zzB1HxyFZ9+QBaTN3AQAAAACDRx40S+6S9sOHpPElgi0AAAAADFahrNwCAAAAAODGVEAAAAAAgNAj3AIAAAAAQo9wCwAAAAAIPcItAAAAACD0CLcAAAAAgNAj3AIAAAAAQo9wCwAAAAAIPcItAAAAACD0CLcAAAAAgNAj3AIAAAAAQo9wCwAAAAAIPcItAAAAACD0CLcAAAAAgNAj3AIAAAAAQo9wCwAAAAAIPcItAAAAACD0CLcAAAAAgJAT+f8Bkqh19OkVL+cAAAAASUVORK5CYII=;" vertex="1" parent="1">
          <mxGeometry x="190" y="1040" width="951" height="445" as="geometry" />
        </mxCell>
        <mxCell id="BMfPGsOhMgCzCpeU4s8g-4" value="Connections: Intercepting signals" style="rounded=0;whiteSpace=wrap;html=1;fontSize=30;fillColor=#dae8fc;strokeColor=#6c8ebf;" vertex="1" parent="1">
          <mxGeometry x="380" y="40" width="780" height="210" as="geometry" />
        </mxCell>
      </root>
    </mxGraphModel>
  </diagram>
</mxfile>
